<svg width="269" height="65" viewBox="0 0 269 65" fill="none" xmlns="http://www.w3.org/2000/svg">
<g filter="url(#filter0_d_4_660)">
<mask id="path-1-outside-1_4_660" maskUnits="userSpaceOnUse" x="-2" y="-2" width="269" height="65" fill="black">
<rect fill="white" x="-2" y="-2" width="269" height="65"/>
<path d="M0.2 60V1.2H20.76V10.08H8.84V25.52H16.84V34.4H8.84V60H0.2ZM26.9206 60.64C25.054 60.64 23.4406 59.6933 22.0806 57.8C20.7206 55.9067 20.0406 53.0133 20.0406 49.12C20.0406 45.36 20.8406 42.3333 22.4406 40.04C24.0673 37.7467 26.494 35.76 29.7206 34.08C30.734 33.5467 31.5873 33.0667 32.2806 32.64C32.974 32.2133 33.4006 31.8133 33.5606 31.44V26.64C33.5606 25.5467 33.4273 24.6133 33.1606 23.84C32.9206 23.04 32.3073 22.64 31.3206 22.64C30.414 22.64 29.8006 23.0667 29.4806 23.92C29.1606 24.7467 29.0006 25.7867 29.0006 27.04V29.12H20.9206V27.28C20.9206 24.88 21.3873 22.8133 22.3206 21.08C23.2806 19.32 24.574 17.9733 26.2006 17.04C27.854 16.08 29.7206 15.6 31.8006 15.6C33.8006 15.6 35.534 16.0667 37.0006 17C38.4673 17.9067 39.6006 19.1733 40.4006 20.8C41.2273 22.4 41.6406 24.24 41.6406 26.32V52.4C41.6406 54.3467 41.694 55.8667 41.8006 56.96C41.9073 58.0267 42.0406 59.04 42.2006 60H34.2806C33.934 59.5733 33.7206 58.9467 33.6406 58.12C33.5873 57.2933 33.5606 56.7467 33.5606 56.48H33.0006C32.334 57.7067 31.4806 58.7067 30.4406 59.48C29.4273 60.2533 28.254 60.64 26.9206 60.64ZM30.2006 52.72C31.134 52.72 31.9206 52.4 32.5606 51.76C33.2273 51.12 33.5606 50.4267 33.5606 49.68V39.28C31.614 40.1067 30.1873 41.36 29.2806 43.04C28.4006 44.6933 27.9606 46.56 27.9606 48.64C27.9606 49.5467 28.134 50.4533 28.4806 51.36C28.8273 52.2667 29.4006 52.72 30.2006 52.72ZM46.5875 60V1.2H54.6675V60H46.5875ZM68.9219 60.64C65.6952 60.64 63.1485 59.5333 61.2819 57.32C59.4419 55.08 58.5219 52.3467 58.5219 49.12V27.12C58.5219 23.7067 59.4419 20.9333 61.2819 18.8C63.1219 16.6667 65.6952 15.6 69.0019 15.6C71.1619 15.6 73.0152 16.0933 74.5619 17.08C76.1352 18.0667 77.3352 19.4133 78.1619 21.12C78.9885 22.8 79.4019 24.72 79.4019 26.88V39.6H66.0419V49.12C66.0419 50.2133 66.2819 51.2267 66.7619 52.16C67.2685 53.0667 68.0152 53.52 69.0019 53.52C70.0419 53.52 70.7752 53.0933 71.2019 52.24C71.6552 51.3867 71.8819 50.3467 71.8819 49.12V44.32H79.4019V49.36C79.4019 52.7467 78.4819 55.48 76.6419 57.56C74.8285 59.6133 72.2552 60.64 68.9219 60.64ZM66.0419 33.28H71.8819V27.12C71.8819 25.92 71.6685 24.88 71.2419 24C70.8419 23.0933 70.0952 22.64 69.0019 22.64C67.9885 22.64 67.2419 23.1067 66.7619 24.04C66.2819 24.9467 66.0419 25.9733 66.0419 27.12V33.28ZM107.648 60.64C105.195 60.64 103.101 60.0933 101.368 59C99.6615 57.88 98.3548 56.36 97.4481 54.44C96.5681 52.52 96.1281 50.3467 96.1281 47.92V13.28C96.1281 10.88 96.5815 8.72 97.4881 6.8C98.4215 4.88 99.7548 3.36 101.488 2.24C103.221 1.12 105.275 0.559998 107.648 0.559998C109.435 0.559998 111.035 0.893331 112.448 1.56C113.861 2.22666 115.061 3.14666 116.048 4.32C117.061 5.46666 117.835 6.81333 118.368 8.36C118.901 9.88 119.168 11.52 119.168 13.28V21.36H111.088V13.28C111.088 12.0533 110.835 11.0267 110.328 10.2C109.821 9.37333 108.981 8.96 107.808 8.96C106.741 8.96 105.968 9.38667 105.488 10.24C105.008 11.0933 104.768 12.1067 104.768 13.28V47.92C104.768 49.0933 105.021 50.1067 105.528 50.96C106.061 51.8133 106.821 52.24 107.808 52.24C109.008 52.24 109.848 51.8267 110.328 51C110.835 50.1733 111.088 49.1467 111.088 47.92V39.84H119.168V47.92C119.168 50.32 118.701 52.48 117.768 54.4C116.835 56.32 115.501 57.84 113.768 58.96C112.061 60.08 110.021 60.64 107.648 60.64ZM133.96 60.56C130.733 60.56 128.2 59.48 126.36 57.32C124.52 55.1333 123.6 52.3733 123.6 49.04V27.12C123.6 23.7867 124.52 21.04 126.36 18.88C128.2 16.6933 130.733 15.6 133.96 15.6C137.16 15.6 139.68 16.6933 141.52 18.88C143.387 21.04 144.32 23.7867 144.32 27.12V49.04C144.32 52.3733 143.387 55.1333 141.52 57.32C139.68 59.48 137.16 60.56 133.96 60.56ZM133.96 53.52C135 53.52 135.72 53.1067 136.12 52.28C136.52 51.4267 136.72 50.3467 136.72 49.04V27.12C136.72 25.7867 136.52 24.7067 136.12 23.88C135.72 23.0533 135 22.64 133.96 22.64C132.92 22.64 132.2 23.0533 131.8 23.88C131.4 24.7067 131.2 25.7867 131.2 27.12V49.04C131.2 50.3733 131.4 51.4533 131.8 52.28C132.2 53.1067 132.92 53.52 133.96 53.52ZM147.906 60V16.24H155.986V19.92C156.946 18.9867 158.026 18.04 159.226 17.08C160.426 16.0933 161.533 15.6 162.546 15.6C163.88 15.6 165 16.0267 165.906 16.88C166.813 17.7333 167.493 18.8133 167.946 20.12C168.4 21.4267 168.626 22.7733 168.626 24.16V60H160.546V25.76C160.546 24.9067 160.4 24.3067 160.106 23.96C159.813 23.6133 159.32 23.44 158.626 23.44C158.04 23.44 157.533 23.6533 157.106 24.08C156.706 24.48 156.333 24.96 155.986 25.52V60H147.906ZM182.554 60.56C179.327 60.56 176.794 59.48 174.954 57.32C173.114 55.1333 172.194 52.3733 172.194 49.04V27.12C172.194 23.7867 173.114 21.04 174.954 18.88C176.794 16.6933 179.327 15.6 182.554 15.6C185.754 15.6 188.274 16.6933 190.114 18.88C191.98 21.04 192.914 23.7867 192.914 27.12V49.04C192.914 52.3733 191.98 55.1333 190.114 57.32C188.274 59.48 185.754 60.56 182.554 60.56ZM182.554 53.52C183.594 53.52 184.314 53.1067 184.714 52.28C185.114 51.4267 185.314 50.3467 185.314 49.04V27.12C185.314 25.7867 185.114 24.7067 184.714 23.88C184.314 23.0533 183.594 22.64 182.554 22.64C181.514 22.64 180.794 23.0533 180.394 23.88C179.994 24.7067 179.794 25.7867 179.794 27.12V49.04C179.794 50.3733 179.994 51.4533 180.394 52.28C180.794 53.1067 181.514 53.52 182.554 53.52ZM206.98 60.64C205.087 60.64 203.433 60.32 202.02 59.68C200.607 59.04 199.433 58.1333 198.5 56.96C197.567 55.76 196.86 54.3467 196.38 52.72C195.927 51.0933 195.7 49.28 195.7 47.28H203.22C203.22 49.0667 203.5 50.6267 204.06 51.96C204.647 53.2667 205.62 53.92 206.98 53.92C208.153 53.92 208.913 53.4267 209.26 52.44C209.607 51.4533 209.78 50.32 209.78 49.04C209.78 47.5467 209.193 46.0267 208.02 44.48C206.873 42.9067 205.673 41.5067 204.42 40.28C202.26 38.1467 200.46 36.04 199.02 33.96C197.607 31.88 196.9 29.44 196.9 26.64C196.9 23.3333 197.767 20.6667 199.5 18.64C201.233 16.6133 203.7 15.6 206.9 15.6C208.82 15.6 210.433 15.8533 211.74 16.36C213.073 16.8667 214.14 17.6267 214.94 18.64C215.74 19.6533 216.313 20.8933 216.66 22.36C217.033 23.8267 217.22 25.52 217.22 27.44H209.7C209.7 26.0533 209.553 24.8533 209.26 23.84C208.967 22.8267 208.233 22.32 207.06 22.32C206.1 22.32 205.42 22.7333 205.02 23.56C204.62 24.36 204.42 25.3867 204.42 26.64C204.42 28.1067 204.767 29.4133 205.46 30.56C206.18 31.68 207.367 33.0533 209.02 34.68C211.1 36.7067 212.993 38.8667 214.7 41.16C216.433 43.4533 217.3 45.9467 217.3 48.64C217.3 50.4 217.06 52.0133 216.58 53.48C216.127 54.9467 215.447 56.2133 214.54 57.28C213.66 58.3467 212.58 59.1733 211.3 59.76C210.047 60.3467 208.607 60.64 206.98 60.64ZM230.404 60.6C226.858 60.6 224.244 59.4933 222.564 57.28C220.911 55.0667 220.084 51.9867 220.084 48.04V28.16C220.084 24.1867 220.911 21.1067 222.564 18.92C224.244 16.7067 226.858 15.6 230.404 15.6C233.951 15.6 236.564 16.7067 238.244 18.92C239.951 21.1333 240.804 24.2133 240.804 28.16V31.6H232.724V27.12C232.724 25.8933 232.564 24.8667 232.244 24.04C231.924 23.2133 231.311 22.8 230.404 22.8C229.498 22.8 228.898 23.2267 228.604 24.08C228.311 24.9067 228.164 25.92 228.164 27.12V49.08C228.164 50.28 228.311 51.3067 228.604 52.16C228.898 52.9867 229.498 53.4 230.404 53.4C231.311 53.4 231.924 52.9867 232.244 52.16C232.564 51.3333 232.724 50.3067 232.724 49.08V44.6H240.804V48.04C240.804 51.9867 239.951 55.0667 238.244 57.28C236.564 59.4933 233.951 60.6 230.404 60.6ZM254.351 60.56C251.124 60.56 248.591 59.48 246.751 57.32C244.911 55.1333 243.991 52.3733 243.991 49.04V27.12C243.991 23.7867 244.911 21.04 246.751 18.88C248.591 16.6933 251.124 15.6 254.351 15.6C257.551 15.6 260.071 16.6933 261.911 18.88C263.777 21.04 264.711 23.7867 264.711 27.12V49.04C264.711 52.3733 263.777 55.1333 261.911 57.32C260.071 59.48 257.551 60.56 254.351 60.56ZM254.351 53.52C255.391 53.52 256.111 53.1067 256.511 52.28C256.911 51.4267 257.111 50.3467 257.111 49.04V27.12C257.111 25.7867 256.911 24.7067 256.511 23.88C256.111 23.0533 255.391 22.64 254.351 22.64C253.311 22.64 252.591 23.0533 252.191 23.88C251.791 24.7067 251.591 25.7867 251.591 27.12V49.04C251.591 50.3733 251.791 51.4533 252.191 52.28C252.591 53.1067 253.311 53.52 254.351 53.52Z"/>
</mask>
<path d="M0.2 60V1.2H20.76V10.08H8.84V25.52H16.84V34.4H8.84V60H0.2ZM26.9206 60.64C25.054 60.64 23.4406 59.6933 22.0806 57.8C20.7206 55.9067 20.0406 53.0133 20.0406 49.12C20.0406 45.36 20.8406 42.3333 22.4406 40.04C24.0673 37.7467 26.494 35.76 29.7206 34.08C30.734 33.5467 31.5873 33.0667 32.2806 32.64C32.974 32.2133 33.4006 31.8133 33.5606 31.44V26.64C33.5606 25.5467 33.4273 24.6133 33.1606 23.84C32.9206 23.04 32.3073 22.64 31.3206 22.64C30.414 22.64 29.8006 23.0667 29.4806 23.92C29.1606 24.7467 29.0006 25.7867 29.0006 27.04V29.12H20.9206V27.28C20.9206 24.88 21.3873 22.8133 22.3206 21.08C23.2806 19.32 24.574 17.9733 26.2006 17.04C27.854 16.08 29.7206 15.6 31.8006 15.6C33.8006 15.6 35.534 16.0667 37.0006 17C38.4673 17.9067 39.6006 19.1733 40.4006 20.8C41.2273 22.4 41.6406 24.24 41.6406 26.32V52.4C41.6406 54.3467 41.694 55.8667 41.8006 56.96C41.9073 58.0267 42.0406 59.04 42.2006 60H34.2806C33.934 59.5733 33.7206 58.9467 33.6406 58.12C33.5873 57.2933 33.5606 56.7467 33.5606 56.48H33.0006C32.334 57.7067 31.4806 58.7067 30.4406 59.48C29.4273 60.2533 28.254 60.64 26.9206 60.64ZM30.2006 52.72C31.134 52.72 31.9206 52.4 32.5606 51.76C33.2273 51.12 33.5606 50.4267 33.5606 49.68V39.28C31.614 40.1067 30.1873 41.36 29.2806 43.04C28.4006 44.6933 27.9606 46.56 27.9606 48.64C27.9606 49.5467 28.134 50.4533 28.4806 51.36C28.8273 52.2667 29.4006 52.72 30.2006 52.72ZM46.5875 60V1.2H54.6675V60H46.5875ZM68.9219 60.64C65.6952 60.64 63.1485 59.5333 61.2819 57.32C59.4419 55.08 58.5219 52.3467 58.5219 49.12V27.12C58.5219 23.7067 59.4419 20.9333 61.2819 18.8C63.1219 16.6667 65.6952 15.6 69.0019 15.6C71.1619 15.6 73.0152 16.0933 74.5619 17.08C76.1352 18.0667 77.3352 19.4133 78.1619 21.12C78.9885 22.8 79.4019 24.72 79.4019 26.88V39.6H66.0419V49.12C66.0419 50.2133 66.2819 51.2267 66.7619 52.16C67.2685 53.0667 68.0152 53.52 69.0019 53.52C70.0419 53.52 70.7752 53.0933 71.2019 52.24C71.6552 51.3867 71.8819 50.3467 71.8819 49.12V44.32H79.4019V49.36C79.4019 52.7467 78.4819 55.48 76.6419 57.56C74.8285 59.6133 72.2552 60.64 68.9219 60.64ZM66.0419 33.28H71.8819V27.12C71.8819 25.92 71.6685 24.88 71.2419 24C70.8419 23.0933 70.0952 22.64 69.0019 22.64C67.9885 22.64 67.2419 23.1067 66.7619 24.04C66.2819 24.9467 66.0419 25.9733 66.0419 27.12V33.28ZM107.648 60.64C105.195 60.64 103.101 60.0933 101.368 59C99.6615 57.88 98.3548 56.36 97.4481 54.44C96.5681 52.52 96.1281 50.3467 96.1281 47.92V13.28C96.1281 10.88 96.5815 8.72 97.4881 6.8C98.4215 4.88 99.7548 3.36 101.488 2.24C103.221 1.12 105.275 0.559998 107.648 0.559998C109.435 0.559998 111.035 0.893331 112.448 1.56C113.861 2.22666 115.061 3.14666 116.048 4.32C117.061 5.46666 117.835 6.81333 118.368 8.36C118.901 9.88 119.168 11.52 119.168 13.28V21.36H111.088V13.28C111.088 12.0533 110.835 11.0267 110.328 10.2C109.821 9.37333 108.981 8.96 107.808 8.96C106.741 8.96 105.968 9.38667 105.488 10.24C105.008 11.0933 104.768 12.1067 104.768 13.28V47.92C104.768 49.0933 105.021 50.1067 105.528 50.96C106.061 51.8133 106.821 52.24 107.808 52.24C109.008 52.24 109.848 51.8267 110.328 51C110.835 50.1733 111.088 49.1467 111.088 47.92V39.84H119.168V47.92C119.168 50.32 118.701 52.48 117.768 54.4C116.835 56.32 115.501 57.84 113.768 58.96C112.061 60.08 110.021 60.64 107.648 60.64ZM133.96 60.56C130.733 60.56 128.2 59.48 126.36 57.32C124.52 55.1333 123.6 52.3733 123.6 49.04V27.12C123.6 23.7867 124.52 21.04 126.36 18.88C128.2 16.6933 130.733 15.6 133.96 15.6C137.16 15.6 139.68 16.6933 141.52 18.88C143.387 21.04 144.32 23.7867 144.32 27.12V49.04C144.32 52.3733 143.387 55.1333 141.52 57.32C139.68 59.48 137.16 60.56 133.96 60.56ZM133.96 53.52C135 53.52 135.72 53.1067 136.12 52.28C136.52 51.4267 136.72 50.3467 136.72 49.04V27.12C136.72 25.7867 136.52 24.7067 136.12 23.88C135.72 23.0533 135 22.64 133.96 22.64C132.92 22.64 132.2 23.0533 131.8 23.88C131.4 24.7067 131.2 25.7867 131.2 27.12V49.04C131.2 50.3733 131.4 51.4533 131.8 52.28C132.2 53.1067 132.92 53.52 133.96 53.52ZM147.906 60V16.24H155.986V19.92C156.946 18.9867 158.026 18.04 159.226 17.08C160.426 16.0933 161.533 15.6 162.546 15.6C163.88 15.6 165 16.0267 165.906 16.88C166.813 17.7333 167.493 18.8133 167.946 20.12C168.4 21.4267 168.626 22.7733 168.626 24.16V60H160.546V25.76C160.546 24.9067 160.4 24.3067 160.106 23.96C159.813 23.6133 159.32 23.44 158.626 23.44C158.04 23.44 157.533 23.6533 157.106 24.08C156.706 24.48 156.333 24.96 155.986 25.52V60H147.906ZM182.554 60.56C179.327 60.56 176.794 59.48 174.954 57.32C173.114 55.1333 172.194 52.3733 172.194 49.04V27.12C172.194 23.7867 173.114 21.04 174.954 18.88C176.794 16.6933 179.327 15.6 182.554 15.6C185.754 15.6 188.274 16.6933 190.114 18.88C191.98 21.04 192.914 23.7867 192.914 27.12V49.04C192.914 52.3733 191.98 55.1333 190.114 57.32C188.274 59.48 185.754 60.56 182.554 60.56ZM182.554 53.52C183.594 53.52 184.314 53.1067 184.714 52.28C185.114 51.4267 185.314 50.3467 185.314 49.04V27.12C185.314 25.7867 185.114 24.7067 184.714 23.88C184.314 23.0533 183.594 22.64 182.554 22.64C181.514 22.64 180.794 23.0533 180.394 23.88C179.994 24.7067 179.794 25.7867 179.794 27.12V49.04C179.794 50.3733 179.994 51.4533 180.394 52.28C180.794 53.1067 181.514 53.52 182.554 53.52ZM206.98 60.64C205.087 60.64 203.433 60.32 202.02 59.68C200.607 59.04 199.433 58.1333 198.5 56.96C197.567 55.76 196.86 54.3467 196.38 52.72C195.927 51.0933 195.7 49.28 195.7 47.28H203.22C203.22 49.0667 203.5 50.6267 204.06 51.96C204.647 53.2667 205.62 53.92 206.98 53.92C208.153 53.92 208.913 53.4267 209.26 52.44C209.607 51.4533 209.78 50.32 209.78 49.04C209.78 47.5467 209.193 46.0267 208.02 44.48C206.873 42.9067 205.673 41.5067 204.42 40.28C202.26 38.1467 200.46 36.04 199.02 33.96C197.607 31.88 196.9 29.44 196.9 26.64C196.9 23.3333 197.767 20.6667 199.5 18.64C201.233 16.6133 203.7 15.6 206.9 15.6C208.82 15.6 210.433 15.8533 211.74 16.36C213.073 16.8667 214.14 17.6267 214.94 18.64C215.74 19.6533 216.313 20.8933 216.66 22.36C217.033 23.8267 217.22 25.52 217.22 27.44H209.7C209.7 26.0533 209.553 24.8533 209.26 23.84C208.967 22.8267 208.233 22.32 207.06 22.32C206.1 22.32 205.42 22.7333 205.02 23.56C204.62 24.36 204.42 25.3867 204.42 26.64C204.42 28.1067 204.767 29.4133 205.46 30.56C206.18 31.68 207.367 33.0533 209.02 34.68C211.1 36.7067 212.993 38.8667 214.7 41.16C216.433 43.4533 217.3 45.9467 217.3 48.64C217.3 50.4 217.06 52.0133 216.58 53.48C216.127 54.9467 215.447 56.2133 214.54 57.28C213.66 58.3467 212.58 59.1733 211.3 59.76C210.047 60.3467 208.607 60.64 206.98 60.64ZM230.404 60.6C226.858 60.6 224.244 59.4933 222.564 57.28C220.911 55.0667 220.084 51.9867 220.084 48.04V28.16C220.084 24.1867 220.911 21.1067 222.564 18.92C224.244 16.7067 226.858 15.6 230.404 15.6C233.951 15.6 236.564 16.7067 238.244 18.92C239.951 21.1333 240.804 24.2133 240.804 28.16V31.6H232.724V27.12C232.724 25.8933 232.564 24.8667 232.244 24.04C231.924 23.2133 231.311 22.8 230.404 22.8C229.498 22.8 228.898 23.2267 228.604 24.08C228.311 24.9067 228.164 25.92 228.164 27.12V49.08C228.164 50.28 228.311 51.3067 228.604 52.16C228.898 52.9867 229.498 53.4 230.404 53.4C231.311 53.4 231.924 52.9867 232.244 52.16C232.564 51.3333 232.724 50.3067 232.724 49.08V44.6H240.804V48.04C240.804 51.9867 239.951 55.0667 238.244 57.28C236.564 59.4933 233.951 60.6 230.404 60.6ZM254.351 60.56C251.124 60.56 248.591 59.48 246.751 57.32C244.911 55.1333 243.991 52.3733 243.991 49.04V27.12C243.991 23.7867 244.911 21.04 246.751 18.88C248.591 16.6933 251.124 15.6 254.351 15.6C257.551 15.6 260.071 16.6933 261.911 18.88C263.777 21.04 264.711 23.7867 264.711 27.12V49.04C264.711 52.3733 263.777 55.1333 261.911 57.32C260.071 59.48 257.551 60.56 254.351 60.56ZM254.351 53.52C255.391 53.52 256.111 53.1067 256.511 52.28C256.911 51.4267 257.111 50.3467 257.111 49.04V27.12C257.111 25.7867 256.911 24.7067 256.511 23.88C256.111 23.0533 255.391 22.64 254.351 22.64C253.311 22.64 252.591 23.0533 252.191 23.88C251.791 24.7067 251.591 25.7867 251.591 27.12V49.04C251.591 50.3733 251.791 51.4533 252.191 52.28C252.591 53.1067 253.311 53.52 254.351 53.52Z" fill="white"/>
<path d="M0.2 60H-1.8V62H0.2V60ZM0.2 1.2V-0.800001H-1.8V1.2H0.2ZM20.76 1.2H22.76V-0.800001H20.76V1.2ZM20.76 10.08V12.08H22.76V10.08H20.76ZM8.84 10.08V8.08H6.84V10.08H8.84ZM8.84 25.52H6.84V27.52H8.84V25.52ZM16.84 25.52H18.84V23.52H16.84V25.52ZM16.84 34.4V36.4H18.84V34.4H16.84ZM8.84 34.4V32.4H6.84V34.4H8.84ZM8.84 60V62H10.84V60H8.84ZM2.2 60V1.2H-1.8V60H2.2ZM0.2 3.2H20.76V-0.800001H0.2V3.2ZM18.76 1.2V10.08H22.76V1.2H18.76ZM20.76 8.08H8.84V12.08H20.76V8.08ZM6.84 10.08V25.52H10.84V10.08H6.84ZM8.84 27.52H16.84V23.52H8.84V27.52ZM14.84 25.52V34.4H18.84V25.52H14.84ZM16.84 32.4H8.84V36.4H16.84V32.4ZM6.84 34.4V60H10.84V34.4H6.84ZM8.84 58H0.2V62H8.84V58ZM22.0806 57.8L23.705 56.6332L22.0806 57.8ZM22.4406 40.04L20.8093 38.8829L20.8048 38.8893L20.8004 38.8956L22.4406 40.04ZM29.7206 34.08L30.6443 35.854L30.6521 35.8498L29.7206 34.08ZM32.2806 32.64L33.3288 34.3433H33.3288L32.2806 32.64ZM33.5606 31.44L35.3989 32.2278L35.5606 31.8505V31.44H33.5606ZM33.1606 23.84L31.245 24.4147L31.2566 24.4536L31.2699 24.492L33.1606 23.84ZM29.4806 23.92L31.3458 24.642L31.3496 24.6321L31.3533 24.6222L29.4806 23.92ZM29.0006 29.12V31.12H31.0006V29.12H29.0006ZM20.9206 29.12H18.9206V31.12H20.9206V29.12ZM22.3206 21.08L20.5648 20.1223L20.5597 20.1318L22.3206 21.08ZM26.2006 17.04L27.196 18.7748L27.2049 18.7696L26.2006 17.04ZM37.0006 17L35.9269 18.6873L35.9379 18.6943L35.949 18.7012L37.0006 17ZM40.4006 20.8L38.6059 21.6826L38.6147 21.7004L38.6238 21.718L40.4006 20.8ZM41.8006 56.96L39.8101 57.1542L39.8106 57.159L41.8006 56.96ZM42.2006 60V62H44.5616L44.1734 59.6712L42.2006 60ZM34.2806 60L32.7284 61.2612L33.3287 62H34.2806V60ZM33.6406 58.12L31.6448 58.2488L31.6468 58.2807L31.6499 58.3126L33.6406 58.12ZM33.5606 56.48H35.5606V54.48H33.5606V56.48ZM33.0006 56.48V54.48H31.8113L31.2434 55.525L33.0006 56.48ZM30.4406 59.48L29.2472 57.8751L29.2372 57.8825L29.2273 57.8901L30.4406 59.48ZM32.5606 51.76L31.1756 50.3172L31.1608 50.3314L31.1464 50.3458L32.5606 51.76ZM33.5606 39.28H35.5606V36.2578L32.7789 37.4391L33.5606 39.28ZM29.2806 43.04L27.5206 42.0901L27.5151 42.1003L29.2806 43.04ZM26.9206 58.64C25.8584 58.64 24.7938 58.149 23.705 56.6332L20.4563 58.9668C22.0874 61.2376 24.2495 62.64 26.9206 62.64V58.64ZM23.705 56.6332C22.7044 55.2402 22.0406 52.8485 22.0406 49.12H18.0406C18.0406 53.1781 18.7369 56.5732 20.4563 58.9668L23.705 56.6332ZM22.0406 49.12C22.0406 45.6308 22.7835 43.044 24.0809 41.1844L20.8004 38.8956C18.8978 41.6227 18.0406 45.0892 18.0406 49.12H22.0406ZM24.0719 41.1971C25.4691 39.2274 27.619 37.4291 30.6443 35.854L28.797 32.306C25.3689 34.0909 22.6655 36.266 20.8093 38.8829L24.0719 41.1971ZM30.6521 35.8498C31.6906 35.3033 32.5855 34.8007 33.3288 34.3433L31.2324 30.9367C30.5891 31.3326 29.7774 31.79 28.7891 32.3102L30.6521 35.8498ZM33.3288 34.3433C34.0806 33.8807 34.9795 33.2065 35.3989 32.2278L31.7223 30.6522C31.7879 30.4991 31.8463 30.4732 31.7527 30.5609C31.6672 30.6411 31.5055 30.7686 31.2324 30.9367L33.3288 34.3433ZM35.5606 31.44V26.64H31.5606V31.44H35.5606ZM35.5606 26.64C35.5606 25.3947 35.4101 24.2283 35.0514 23.188L31.2699 24.492C31.4445 24.9983 31.5606 25.6986 31.5606 26.64H35.5606ZM35.0763 23.2653C34.8408 22.4802 34.3709 21.7589 33.6132 21.2648C32.8867 20.791 32.0706 20.64 31.3206 20.64V24.64C31.5573 24.64 31.5412 24.689 31.4281 24.6152C31.3704 24.5776 31.3184 24.5271 31.2807 24.474C31.2451 24.424 31.2394 24.396 31.245 24.4147L35.0763 23.2653ZM31.3206 20.64C30.5475 20.64 29.7464 20.8257 29.0385 21.3182C28.3314 21.8101 27.8787 22.4957 27.608 23.2177L31.3533 24.6222C31.379 24.5536 31.3963 24.5319 31.3916 24.5383C31.3892 24.5417 31.3822 24.5507 31.3698 24.563C31.3572 24.5754 31.3414 24.5888 31.3228 24.6018C31.3041 24.6148 31.2857 24.6251 31.2692 24.6328C31.2528 24.6405 31.2411 24.6442 31.2361 24.6456C31.2264 24.6483 31.2502 24.64 31.3206 24.64V20.64ZM27.6155 23.198C27.1777 24.329 27.0006 25.634 27.0006 27.04H31.0006C31.0006 25.9393 31.1436 25.1643 31.3458 24.642L27.6155 23.198ZM27.0006 27.04V29.12H31.0006V27.04H27.0006ZM29.0006 27.12H20.9206V31.12H29.0006V27.12ZM22.9206 29.12V27.28H18.9206V29.12H22.9206ZM22.9206 27.28C22.9206 25.1392 23.336 23.4128 24.0816 22.0282L20.5597 20.1318C19.4386 22.2138 18.9206 24.6208 18.9206 27.28H22.9206ZM24.0764 22.0377C24.8723 20.5787 25.9119 19.5115 27.196 18.7747L25.2053 15.3053C23.236 16.4352 21.689 18.0613 20.5648 20.1223L24.0764 22.0377ZM27.2049 18.7696C28.5267 18.0021 30.0414 17.6 31.8006 17.6V13.6C29.3999 13.6 27.1813 14.1579 25.1964 15.3104L27.2049 18.7696ZM31.8006 17.6C33.4788 17.6 34.8272 17.9875 35.9269 18.6873L38.0744 15.3127C36.2407 14.1458 34.1224 13.6 31.8006 13.6V17.6ZM35.949 18.7012C37.0792 19.3999 37.9629 20.3751 38.6059 21.6826L42.1953 19.9174C41.2384 17.9716 39.8554 16.4135 38.0523 15.2988L35.949 18.7012ZM38.6238 21.718C39.2826 22.9932 39.6406 24.5098 39.6406 26.32H43.6406C43.6406 23.9702 43.172 21.8068 42.1775 19.882L38.6238 21.718ZM39.6406 26.32V52.4H43.6406V26.32H39.6406ZM39.6406 52.4C39.6406 54.3703 39.6941 55.9653 39.8101 57.1542L43.7912 56.7658C43.6938 55.768 43.6406 54.323 43.6406 52.4H39.6406ZM39.8106 57.159C39.9211 58.2648 40.06 59.3217 40.2278 60.3288L44.1734 59.6712C44.0213 58.7583 43.8935 57.7885 43.7907 56.761L39.8106 57.159ZM42.2006 58H34.2806V62H42.2006V58ZM35.8329 58.7388C35.8358 58.7425 35.7994 58.6992 35.7539 58.5655C35.7078 58.43 35.66 58.2239 35.6313 57.9274L31.6499 58.3126C31.7497 59.3438 32.037 60.4103 32.7284 61.2612L35.8329 58.7388ZM35.6365 57.9912C35.5823 57.1521 35.5606 56.6709 35.5606 56.48H31.5606C31.5606 56.8224 31.5922 57.4345 31.6448 58.2488L35.6365 57.9912ZM33.5606 54.48H33.0006V58.48H33.5606V54.48ZM31.2434 55.525C30.7044 56.5167 30.0367 57.288 29.2472 57.8751L31.634 61.0849C32.9245 60.1253 33.9635 58.8967 34.7579 57.435L31.2434 55.525ZM29.2273 57.8901C28.5793 58.3846 27.8371 58.64 26.9206 58.64V62.64C28.6708 62.64 30.2753 62.1221 31.654 61.0699L29.2273 57.8901ZM30.2006 54.72C31.6459 54.72 32.9469 54.2022 33.9748 53.1742L31.1464 50.3458C30.8944 50.5978 30.622 50.72 30.2006 50.72V54.72ZM33.9457 53.2028C34.9056 52.2812 35.5606 51.0954 35.5606 49.68H31.5606C31.5606 49.7579 31.549 49.9588 31.1756 50.3172L33.9457 53.2028ZM35.5606 49.68V39.28H31.5606V49.68H35.5606ZM32.7789 37.4391C30.4623 38.4229 28.6663 39.9673 27.5206 42.0901L31.0407 43.9899C31.7083 42.7527 32.7656 41.7905 34.3424 41.1209L32.7789 37.4391ZM27.5151 42.1003C26.4647 44.0738 25.9606 46.2691 25.9606 48.64H29.9606C29.9606 46.8508 30.3365 45.3129 31.0461 43.9797L27.5151 42.1003ZM25.9606 48.64C25.9606 49.8076 26.1849 50.9558 26.6125 52.0743L30.3487 50.6457C30.0831 49.9509 29.9606 49.2857 29.9606 48.64H25.9606ZM26.6125 52.0743C26.8734 52.7567 27.2831 53.4372 27.9302 53.9488C28.6039 54.4816 29.3957 54.72 30.2006 54.72V50.72C30.1912 50.72 30.2192 50.719 30.27 50.7358C30.3231 50.7533 30.3728 50.7809 30.4111 50.8112C30.4848 50.8694 30.4345 50.87 30.3487 50.6457L26.6125 52.0743ZM46.5875 60H44.5875V62H46.5875V60ZM46.5875 1.2V-0.800001H44.5875V1.2H46.5875ZM54.6675 1.2H56.6675V-0.800001H54.6675V1.2ZM54.6675 60V62H56.6675V60H54.6675ZM48.5875 60V1.2H44.5875V60H48.5875ZM46.5875 3.2H54.6675V-0.800001H46.5875V3.2ZM52.6675 1.2V60H56.6675V1.2H52.6675ZM54.6675 58H46.5875V62H54.6675V58ZM61.2819 57.32L59.7364 58.5895L59.7447 58.5995L59.753 58.6094L61.2819 57.32ZM61.2819 18.8L59.7674 17.4937L59.7674 17.4937L61.2819 18.8ZM74.5619 17.08L73.4862 18.7661L73.4928 18.7703L73.4993 18.7744L74.5619 17.08ZM78.1619 21.12L76.3619 21.9919L76.3674 22.003L78.1619 21.12ZM79.4019 39.6V41.6H81.4019V39.6H79.4019ZM66.0419 39.6V37.6H64.0419V39.6H66.0419ZM66.7619 52.16L64.9833 53.0747L64.9991 53.1054L65.016 53.1356L66.7619 52.16ZM71.2019 52.24L69.4356 51.3017L69.4241 51.3235L69.413 51.3456L71.2019 52.24ZM71.8819 44.32V42.32H69.8819V44.32H71.8819ZM79.4019 44.32H81.4019V42.32H79.4019V44.32ZM76.6419 57.56L75.1439 56.2349L75.1428 56.2361L76.6419 57.56ZM66.0419 33.28H64.0419V35.28H66.0419V33.28ZM71.8819 33.28V35.28H73.8819V33.28H71.8819ZM71.2419 24L69.412 24.8073L69.4266 24.8402L69.4422 24.8725L71.2419 24ZM66.7619 24.04L68.5294 24.9758L68.535 24.9653L68.5405 24.9547L66.7619 24.04ZM68.9219 58.64C66.2087 58.64 64.251 57.7384 62.8107 56.0306L59.753 58.6094C62.0461 61.3283 65.1817 62.64 68.9219 62.64V58.64ZM62.8273 56.0505C61.3148 54.2091 60.5219 51.9394 60.5219 49.12H56.5219C56.5219 52.754 57.569 55.9509 59.7364 58.5895L62.8273 56.0505ZM60.5219 49.12V27.12H56.5219V49.12H60.5219ZM60.5219 27.12C60.5219 24.0803 61.3325 21.8036 62.7964 20.1062L59.7674 17.4937C57.5513 20.0631 56.5219 23.3331 56.5219 27.12H60.5219ZM62.7964 20.1063C64.1892 18.4914 66.1653 17.6 69.0019 17.6V13.6C65.2251 13.6 62.0546 14.8419 59.7674 17.4937L62.7964 20.1063ZM69.0019 17.6C70.8495 17.6 72.3143 18.0185 73.4862 18.7661L75.6375 15.3939C73.7161 14.1682 71.4743 13.6 69.0019 13.6V17.6ZM73.4993 18.7744C74.7475 19.5571 75.6953 20.6156 76.3619 21.9919L79.9618 20.2481C78.9751 18.211 77.5229 16.5762 75.6245 15.3856L73.4993 18.7744ZM76.3674 22.003C77.0395 23.369 77.4019 24.9791 77.4019 26.88H81.4019C81.4019 24.4609 80.9376 22.231 79.9564 20.237L76.3674 22.003ZM77.4019 26.88V39.6H81.4019V26.88H77.4019ZM79.4019 37.6H66.0419V41.6H79.4019V37.6ZM64.0419 39.6V49.12H68.0419V39.6H64.0419ZM64.0419 49.12C64.0419 50.5178 64.3516 51.8465 64.9833 53.0747L68.5405 51.2453C68.2121 50.6069 68.0419 49.9089 68.0419 49.12H64.0419ZM65.016 53.1356C65.8531 54.6337 67.2447 55.52 69.0019 55.52V51.52C68.826 51.52 68.7612 51.4834 68.7398 51.4704C68.7133 51.4543 68.6244 51.3931 68.5078 51.1844L65.016 53.1356ZM69.0019 55.52C69.7958 55.52 70.6036 55.3558 71.3377 54.9287C72.0819 54.4957 72.6256 53.8647 72.9907 53.1344L69.413 51.3456C69.3793 51.4129 69.3532 51.4451 69.3424 51.457C69.3329 51.4675 69.3286 51.4698 69.3261 51.4713C69.3227 51.4733 69.3035 51.4842 69.2565 51.4955C69.2077 51.5072 69.1259 51.52 69.0019 51.52V55.52ZM72.9681 53.1783C73.6108 51.9685 73.8819 50.5878 73.8819 49.12H69.8819C69.8819 50.1056 69.6996 50.8048 69.4356 51.3017L72.9681 53.1783ZM73.8819 49.12V44.32H69.8819V49.12H73.8819ZM71.8819 46.32H79.4019V42.32H71.8819V46.32ZM77.4019 44.32V49.36H81.4019V44.32H77.4019ZM77.4019 49.36C77.4019 52.3705 76.5932 54.5965 75.1439 56.2349L78.1399 58.8851C80.3706 56.3635 81.4019 53.1228 81.4019 49.36H77.4019ZM75.1428 56.2361C73.7902 57.7677 71.8169 58.64 68.9219 58.64V62.64C72.6935 62.64 75.8668 61.459 78.141 58.8839L75.1428 56.2361ZM66.0419 35.28H71.8819V31.28H66.0419V35.28ZM73.8819 33.28V27.12H69.8819V33.28H73.8819ZM73.8819 27.12C73.8819 25.685 73.6265 24.3341 73.0415 23.1275L69.4422 24.8725C69.7105 25.4259 69.8819 26.155 69.8819 27.12H73.8819ZM73.0717 23.1927C72.7294 22.4169 72.1892 21.7375 71.4198 21.2704C70.6638 20.8114 69.8232 20.64 69.0019 20.64V24.64C69.1381 24.64 69.2268 24.6542 69.2784 24.6669C69.3039 24.6732 69.3206 24.6792 69.3301 24.6831C69.3395 24.6869 69.3435 24.6893 69.3439 24.6896C69.3442 24.6898 69.3435 24.6893 69.3428 24.6887C69.3421 24.6881 69.3438 24.6894 69.3478 24.6942C69.3554 24.7032 69.3802 24.7351 69.412 24.8073L73.0717 23.1927ZM69.0019 20.64C68.1781 20.64 67.3587 20.8335 66.6219 21.294C65.889 21.7521 65.3563 22.4001 64.9833 23.1253L68.5405 24.9547C68.6475 24.7466 68.7281 24.6946 68.7419 24.686C68.7517 24.6799 68.8123 24.64 69.0019 24.64V20.64ZM64.9943 23.1042C64.3444 24.3318 64.0419 25.6861 64.0419 27.12H68.0419C68.0419 26.2606 68.2193 25.5615 68.5294 24.9758L64.9943 23.1042ZM64.0419 27.12V33.28H68.0419V27.12H64.0419ZM101.368 59L100.271 60.6721L100.286 60.682L100.301 60.6916L101.368 59ZM97.4481 54.44L95.63 55.2733L95.6348 55.2837L95.6396 55.294L97.4481 54.44ZM97.4881 6.8L95.6894 5.92561L95.6844 5.93577L95.6796 5.94599L97.4881 6.8ZM101.488 2.24L100.403 0.560161V0.560163L101.488 2.24ZM116.048 4.32L114.517 5.6072L114.533 5.62599L114.549 5.64439L116.048 4.32ZM118.368 8.36L116.477 9.01199L116.481 9.02218L118.368 8.36ZM119.168 21.36V23.36H121.168V21.36H119.168ZM111.088 21.36H109.088V23.36H111.088V21.36ZM110.328 10.2L108.623 11.2451V11.2451L110.328 10.2ZM105.488 10.24L103.745 9.25947V9.25948L105.488 10.24ZM105.528 50.96L103.808 51.9811L103.82 52.0007L103.832 52.02L105.528 50.96ZM110.328 51L108.623 49.9549L108.61 49.9752L108.599 49.9957L110.328 51ZM111.088 39.84V37.84H109.088V39.84H111.088ZM119.168 39.84H121.168V37.84H119.168V39.84ZM117.768 54.4L115.969 53.5256L117.768 54.4ZM113.768 58.96L112.683 57.2802L112.677 57.284L112.671 57.2879L113.768 58.96ZM107.648 58.64C105.497 58.64 103.791 58.1636 102.435 57.3084L100.301 60.6916C102.412 62.0231 104.892 62.64 107.648 62.64V58.64ZM102.465 57.3279C101.079 56.4183 100.013 55.187 99.2566 53.586L95.6396 55.294C96.6969 57.533 98.2436 59.3417 100.271 60.6721L102.465 57.3279ZM99.2663 53.6067C98.5227 51.9844 98.1281 50.1018 98.1281 47.92H94.1281C94.1281 50.5916 94.6136 53.0556 95.63 55.2733L99.2663 53.6067ZM98.1281 47.92V13.28H94.1281V47.92H98.1281ZM98.1281 13.28C98.1281 11.1367 98.5316 9.27411 99.2966 7.65401L95.6796 5.94599C94.6313 8.16588 94.1281 10.6233 94.1281 13.28H98.1281ZM99.2869 7.67438C100.066 6.0711 101.158 4.83449 102.574 3.91983L100.403 0.560163C98.3516 1.8855 96.7767 3.6889 95.6894 5.92561L99.2869 7.67438ZM102.574 3.91983C103.937 3.03879 105.601 2.56 107.648 2.56V-1.44C104.949 -1.44 102.506 -0.7988 100.403 0.560161L102.574 3.91983ZM107.648 2.56C109.182 2.56 110.484 2.84494 111.595 3.36886L113.301 -0.248867C111.585 -1.05828 109.688 -1.44 107.648 -1.44V2.56ZM111.595 3.36886C112.753 3.91496 113.72 4.65891 114.517 5.6072L117.579 3.0328C116.403 1.63441 114.97 0.538364 113.301 -0.248867L111.595 3.36886ZM114.549 5.64439C115.378 6.58149 116.023 7.69565 116.477 9.01198L120.259 7.70802C119.646 5.93102 118.745 4.35184 117.547 2.9956L114.549 5.64439ZM116.481 9.02218C116.933 10.3106 117.168 11.7247 117.168 13.28H121.168C121.168 11.3153 120.87 9.44942 120.255 7.69782L116.481 9.02218ZM117.168 13.28V21.36H121.168V13.28H117.168ZM119.168 19.36H111.088V23.36H119.168V19.36ZM113.088 21.36V13.28H109.088V21.36H113.088ZM113.088 13.28C113.088 11.7812 112.778 10.3695 112.033 9.15487L108.623 11.2451C108.892 11.6839 109.088 12.3254 109.088 13.28H113.088ZM112.033 9.15488C111.082 7.603 109.507 6.96 107.808 6.96V10.96C108.456 10.96 108.561 11.1437 108.623 11.2451L112.033 9.15488ZM107.808 6.96C106.098 6.96 104.616 7.71042 103.745 9.25947L107.231 11.2205C107.309 11.0817 107.368 11.0457 107.394 11.0312C107.429 11.0118 107.543 10.96 107.808 10.96V6.96ZM103.745 9.25948C103.066 10.4664 102.768 11.8313 102.768 13.28H106.768C106.768 12.382 106.95 11.7203 107.231 11.2205L103.745 9.25948ZM102.768 13.28V47.92H106.768V13.28H102.768ZM102.768 47.92C102.768 49.3867 103.087 50.7665 103.808 51.9811L107.248 49.9389C106.956 49.4468 106.768 48.8 106.768 47.92H102.768ZM103.832 52.02C104.722 53.4439 106.115 54.24 107.808 54.24V50.24C107.528 50.24 107.401 50.1828 107.224 49.9L103.832 52.02ZM107.808 54.24C109.509 54.24 111.125 53.6106 112.058 52.0043L108.599 49.9957C108.552 50.0756 108.513 50.1068 108.455 50.1355C108.376 50.1744 108.185 50.24 107.808 50.24V54.24ZM112.033 52.0451C112.778 50.8305 113.088 49.4188 113.088 47.92H109.088C109.088 48.8746 108.892 49.5161 108.623 49.9549L112.033 52.0451ZM113.088 47.92V39.84H109.088V47.92H113.088ZM111.088 41.84H119.168V37.84H111.088V41.84ZM117.168 39.84V47.92H121.168V39.84H117.168ZM117.168 47.92C117.168 50.055 116.755 51.9102 115.969 53.5256L119.567 55.2744C120.648 53.0498 121.168 50.585 121.168 47.92H117.168ZM115.969 53.5256C115.19 55.1289 114.098 56.3655 112.683 57.2802L114.854 60.6398C116.905 59.3145 118.48 57.5111 119.567 55.2744L115.969 53.5256ZM112.671 57.2879C111.34 58.161 109.696 58.64 107.648 58.64V62.64C110.346 62.64 112.782 61.999 114.865 60.6321L112.671 57.2879ZM126.36 57.32L124.83 58.6077L124.838 58.6169L126.36 57.32ZM126.36 18.88L127.883 20.177L127.89 20.1677L126.36 18.88ZM141.52 18.88L139.99 20.1677L139.998 20.1778L140.007 20.1877L141.52 18.88ZM141.52 57.32L139.999 56.0215L139.998 56.0231L141.52 57.32ZM136.12 52.28L137.92 53.1511L137.926 53.14L137.931 53.1289L136.12 52.28ZM136.12 23.88L134.32 24.7511L136.12 23.88ZM131.8 23.88L130 23.0089V23.0089L131.8 23.88ZM131.8 52.28L130 53.1511L131.8 52.28ZM133.96 58.56C131.23 58.56 129.288 57.6729 127.882 56.0231L124.838 58.6169C127.112 61.2871 130.237 62.56 133.96 62.56V58.56ZM127.89 56.0323C126.403 54.2646 125.6 51.9847 125.6 49.04H121.6C121.6 52.7619 122.637 56.002 124.83 58.6077L127.89 56.0323ZM125.6 49.04V27.12H121.6V49.04H125.6ZM125.6 27.12C125.6 24.1746 126.403 21.9137 127.882 20.1769L124.838 17.5831C122.637 20.1663 121.6 23.3988 121.6 27.12H125.6ZM127.89 20.1677C129.298 18.4942 131.238 17.6 133.96 17.6V13.6C130.229 13.6 127.102 14.8925 124.83 17.5923L127.89 20.1677ZM133.96 17.6C136.649 17.6 138.578 18.4901 139.99 20.1677L143.05 17.5923C140.782 14.8965 137.671 13.6 133.96 13.6V17.6ZM140.007 20.1877C141.508 21.9248 142.32 24.1818 142.32 27.12H146.32C146.32 23.3915 145.265 20.1552 143.033 17.5723L140.007 20.1877ZM142.32 27.12V49.04H146.32V27.12H142.32ZM142.32 49.04C142.32 51.9775 141.508 54.2535 139.999 56.0215L143.041 58.6185C145.265 56.0131 146.32 52.7692 146.32 49.04H142.32ZM139.998 56.0231C138.589 57.6769 136.658 58.56 133.96 58.56V62.56C137.662 62.56 140.771 61.2831 143.042 58.6169L139.998 56.0231ZM133.96 55.52C134.742 55.52 135.545 55.3639 136.276 54.9445C137.021 54.5164 137.564 53.8865 137.92 53.1511L134.32 51.4089C134.294 51.4616 134.277 51.4808 134.276 51.4819C134.275 51.4829 134.276 51.4817 134.279 51.4794C134.281 51.4772 134.284 51.4758 134.284 51.4755C134.295 51.4694 134.218 51.52 133.96 51.52V55.52ZM137.931 53.1289C138.494 51.9279 138.72 50.5336 138.72 49.04H134.72C134.72 50.1597 134.546 50.9254 134.309 51.4311L137.931 53.1289ZM138.72 49.04V27.12H134.72V49.04H138.72ZM138.72 27.12C138.72 25.6111 138.497 24.2015 137.92 23.0089L134.32 24.7511C134.543 25.2118 134.72 25.9623 134.72 27.12H138.72ZM137.92 23.0089C137.564 22.2735 137.021 21.6436 136.276 21.2155C135.545 20.7961 134.742 20.64 133.96 20.64V24.64C134.218 24.64 134.295 24.6906 134.284 24.6845C134.284 24.6842 134.281 24.6828 134.279 24.6806C134.276 24.6783 134.275 24.6771 134.276 24.6781C134.277 24.6792 134.294 24.6984 134.32 24.7511L137.92 23.0089ZM133.96 20.64C133.178 20.64 132.375 20.7961 131.644 21.2155C130.899 21.6436 130.356 22.2735 130 23.0089L133.6 24.7511C133.626 24.6984 133.643 24.6792 133.644 24.6781C133.645 24.6771 133.644 24.6783 133.641 24.6806C133.639 24.6828 133.636 24.6842 133.636 24.6845C133.625 24.6906 133.702 24.64 133.96 24.64V20.64ZM130 23.0089C129.423 24.2015 129.2 25.6111 129.2 27.12H133.2C133.2 25.9623 133.377 25.2118 133.6 24.7511L130 23.0089ZM129.2 27.12V49.04H133.2V27.12H129.2ZM129.2 49.04C129.2 50.5489 129.423 51.9585 130 53.1511L133.6 51.4089C133.377 50.9482 133.2 50.1977 133.2 49.04H129.2ZM130 53.1511C130.356 53.8865 130.899 54.5164 131.644 54.9445C132.375 55.3639 133.178 55.52 133.96 55.52V51.52C133.702 51.52 133.625 51.4694 133.636 51.4755C133.636 51.4758 133.639 51.4772 133.641 51.4794C133.644 51.4817 133.645 51.4829 133.644 51.4819C133.643 51.4808 133.626 51.4616 133.6 51.4089L130 53.1511ZM147.906 60H145.906V62H147.906V60ZM147.906 16.24V14.24H145.906V16.24H147.906ZM155.986 16.24H157.986V14.24H155.986V16.24ZM155.986 19.92H153.986V24.6539L157.38 21.354L155.986 19.92ZM159.226 17.08L160.476 18.6417L160.486 18.6334L160.496 18.6248L159.226 17.08ZM165.906 16.88L167.277 15.4236L165.906 16.88ZM167.946 20.12L166.057 20.7755V20.7755L167.946 20.12ZM168.626 60V62H170.626V60H168.626ZM160.546 60H158.546V62H160.546V60ZM160.106 23.96L158.579 25.2519V25.2519L160.106 23.96ZM157.106 24.08L155.692 22.6658V22.6658L157.106 24.08ZM155.986 25.52L154.286 24.4673L153.986 24.951V25.52H155.986ZM155.986 60V62H157.986V60H155.986ZM149.906 60V16.24H145.906V60H149.906ZM147.906 18.24H155.986V14.24H147.906V18.24ZM153.986 16.24V19.92H157.986V16.24H153.986ZM157.38 21.354C158.288 20.4715 159.319 19.5672 160.476 18.6417L157.977 15.5183C156.734 16.5128 155.604 17.5018 154.592 18.486L157.38 21.354ZM160.496 18.6248C161.52 17.783 162.187 17.6 162.546 17.6V13.6C160.879 13.6 159.332 14.4037 157.956 15.5351L160.496 18.6248ZM162.546 17.6C163.41 17.6 164.028 17.8585 164.536 18.3364L167.277 15.4236C165.971 14.1949 164.349 13.6 162.546 13.6V17.6ZM164.536 18.3364C165.182 18.9449 165.697 19.7394 166.057 20.7755L169.836 19.4645C169.289 17.8872 168.444 16.5218 167.277 15.4236L164.536 18.3364ZM166.057 20.7755C166.437 21.8708 166.626 22.9959 166.626 24.16H170.626C170.626 22.5508 170.362 20.9825 169.836 19.4645L166.057 20.7755ZM166.626 24.16V60H170.626V24.16H166.626ZM168.626 58H160.546V62H168.626V58ZM162.546 60V25.76H158.546V60H162.546ZM162.546 25.76C162.546 24.7973 162.405 23.5802 161.633 22.6681L158.579 25.2519C158.467 25.1194 158.469 25.0429 158.493 25.1449C158.517 25.2432 158.546 25.4374 158.546 25.76H162.546ZM161.633 22.6681C160.796 21.6788 159.596 21.44 158.626 21.44V25.44C158.717 25.44 158.781 25.4458 158.82 25.4515C158.859 25.4572 158.867 25.4619 158.853 25.4569C158.838 25.4516 158.799 25.4358 158.746 25.4009C158.692 25.3652 158.633 25.3157 158.579 25.2519L161.633 22.6681ZM158.626 21.44C157.492 21.44 156.482 21.876 155.692 22.6658L158.52 25.4942C158.546 25.4688 158.564 25.4555 158.572 25.4495C158.581 25.4436 158.584 25.4426 158.582 25.4433C158.581 25.4439 158.581 25.4437 158.584 25.443C158.588 25.4422 158.601 25.44 158.626 25.44V21.44ZM155.692 22.6658C155.167 23.1909 154.701 23.797 154.286 24.4673L157.687 26.5727C157.965 26.123 158.246 25.7691 158.52 25.4942L155.692 22.6658ZM153.986 25.52V60H157.986V25.52H153.986ZM155.986 58H147.906V62H155.986V58ZM174.954 57.32L173.423 58.6077L173.431 58.6169L174.954 57.32ZM174.954 18.88L176.476 20.177L176.484 20.1677L174.954 18.88ZM190.114 18.88L188.583 20.1677L188.592 20.1778L188.601 20.1877L190.114 18.88ZM190.114 57.32L188.593 56.0215L188.591 56.0231L190.114 57.32ZM184.714 52.28L186.514 53.1511L186.519 53.14L186.525 53.1289L184.714 52.28ZM184.714 23.88L182.913 24.7511L184.714 23.88ZM180.394 23.88L178.593 23.0089V23.0089L180.394 23.88ZM180.394 52.28L178.593 53.1511L180.394 52.28ZM182.554 58.56C179.823 58.56 177.882 57.6729 176.476 56.0231L173.431 58.6169C175.706 61.2871 178.831 62.56 182.554 62.56V58.56ZM176.484 56.0323C174.997 54.2646 174.194 51.9847 174.194 49.04H170.194C170.194 52.7619 171.231 56.002 173.423 58.6077L176.484 56.0323ZM174.194 49.04V27.12H170.194V49.04H174.194ZM174.194 27.12C174.194 24.1746 174.997 21.9137 176.476 20.1769L173.431 17.5831C171.231 20.1663 170.194 23.3988 170.194 27.12H174.194ZM176.484 20.1677C177.892 18.4942 179.832 17.6 182.554 17.6V13.6C178.822 13.6 175.695 14.8925 173.423 17.5923L176.484 20.1677ZM182.554 17.6C185.243 17.6 187.172 18.4901 188.583 20.1677L191.644 17.5923C189.376 14.8965 186.264 13.6 182.554 13.6V17.6ZM188.601 20.1877C190.102 21.9248 190.914 24.1818 190.914 27.12H194.914C194.914 23.3915 193.859 20.1552 191.627 17.5723L188.601 20.1877ZM190.914 27.12V49.04H194.914V27.12H190.914ZM190.914 49.04C190.914 51.9775 190.102 54.2535 188.593 56.0215L191.635 58.6185C193.859 56.0131 194.914 52.7692 194.914 49.04H190.914ZM188.591 56.0231C187.182 57.6769 185.252 58.56 182.554 58.56V62.56C186.256 62.56 189.365 61.2831 191.636 58.6169L188.591 56.0231ZM182.554 55.52C183.336 55.52 184.139 55.3639 184.869 54.9445C185.615 54.5164 186.158 53.8865 186.514 53.1511L182.913 51.4089C182.888 51.4616 182.871 51.4808 182.87 51.4819C182.869 51.4829 182.87 51.4817 182.872 51.4794C182.875 51.4772 182.877 51.4758 182.878 51.4755C182.889 51.4694 182.811 51.52 182.554 51.52V55.52ZM186.525 53.1289C187.088 51.9279 187.314 50.5336 187.314 49.04H183.314C183.314 50.1597 183.14 50.9254 182.903 51.4311L186.525 53.1289ZM187.314 49.04V27.12H183.314V49.04H187.314ZM187.314 27.12C187.314 25.6111 187.091 24.2015 186.514 23.0089L182.913 24.7511C183.136 25.2118 183.314 25.9623 183.314 27.12H187.314ZM186.514 23.0089C186.158 22.2735 185.615 21.6436 184.869 21.2155C184.139 20.7961 183.336 20.64 182.554 20.64V24.64C182.811 24.64 182.889 24.6906 182.878 24.6845C182.877 24.6842 182.875 24.6828 182.872 24.6806C182.87 24.6783 182.869 24.6771 182.87 24.6781C182.871 24.6792 182.888 24.6984 182.913 24.7511L186.514 23.0089ZM182.554 20.64C181.771 20.64 180.969 20.7961 180.238 21.2155C179.492 21.6436 178.949 22.2735 178.593 23.0089L182.194 24.7511C182.22 24.6984 182.237 24.6792 182.238 24.6781C182.239 24.6771 182.238 24.6783 182.235 24.6806C182.232 24.6828 182.23 24.6842 182.229 24.6845C182.219 24.6906 182.296 24.64 182.554 24.64V20.64ZM178.593 23.0089C178.016 24.2015 177.794 25.6111 177.794 27.12H181.794C181.794 25.9623 181.971 25.2118 182.194 24.7511L178.593 23.0089ZM177.794 27.12V49.04H181.794V27.12H177.794ZM177.794 49.04C177.794 50.5489 178.016 51.9585 178.593 53.1511L182.194 51.4089C181.971 50.9482 181.794 50.1977 181.794 49.04H177.794ZM178.593 53.1511C178.949 53.8865 179.492 54.5164 180.238 54.9445C180.969 55.3639 181.771 55.52 182.554 55.52V51.52C182.296 51.52 182.219 51.4694 182.229 51.4755C182.23 51.4758 182.232 51.4772 182.235 51.4794C182.238 51.4817 182.239 51.4829 182.238 51.4819C182.237 51.4808 182.22 51.4616 182.194 51.4089L178.593 53.1511ZM198.5 56.96L196.921 58.1879L196.928 58.1965L196.935 58.205L198.5 56.96ZM196.38 52.72L194.453 53.2569L194.457 53.2715L194.462 53.286L196.38 52.72ZM195.7 47.28V45.28H193.7V47.28H195.7ZM203.22 47.28H205.22V45.28H203.22V47.28ZM204.06 51.96L202.216 52.7345L202.225 52.7569L202.235 52.7792L204.06 51.96ZM208.02 44.48L206.404 45.658L206.415 45.6735L206.427 45.6888L208.02 44.48ZM204.42 40.28L203.015 41.703L203.021 41.7093L204.42 40.28ZM199.02 33.96L197.366 35.084L197.371 35.0913L197.376 35.0984L199.02 33.96ZM199.5 18.64L197.98 17.3401L199.5 18.64ZM211.74 16.36L211.017 18.2248L211.03 18.2296L211.74 16.36ZM214.94 18.64L216.51 17.4007V17.4007L214.94 18.64ZM216.66 22.36L214.714 22.82L214.718 22.8367L214.722 22.8534L216.66 22.36ZM217.22 27.44V29.44H219.22V27.44H217.22ZM209.7 27.44H207.7V29.44H209.7V27.44ZM205.02 23.56L206.809 24.4544L206.815 24.4428L206.82 24.4311L205.02 23.56ZM205.46 30.56L203.749 31.5948L203.763 31.6184L203.778 31.6415L205.46 30.56ZM209.02 34.68L207.617 36.1057L207.624 36.1125L209.02 34.68ZM214.7 41.16L213.096 42.354L213.1 42.36L213.104 42.3659L214.7 41.16ZM216.58 53.48L214.679 52.8579L214.674 52.8736L214.669 52.8894L216.58 53.48ZM214.54 57.28L213.016 55.9847L213.007 55.9959L212.997 56.0072L214.54 57.28ZM211.3 59.76L210.467 57.9419L210.459 57.9452L210.452 57.9486L211.3 59.76ZM206.98 58.64C205.31 58.64 203.949 58.3578 202.845 57.8581L201.195 61.5019C202.918 62.2822 204.863 62.64 206.98 62.64V58.64ZM202.845 57.8581C201.71 57.3442 200.794 56.6312 200.065 55.715L196.935 58.205C198.073 59.6354 199.503 60.7358 201.195 61.5019L202.845 57.8581ZM200.079 55.7321C199.316 54.7511 198.716 53.5684 198.298 52.154L194.462 53.286C195.004 55.1249 195.818 56.7689 196.921 58.1879L200.079 55.7321ZM198.307 52.1831C197.91 50.7599 197.7 49.1309 197.7 47.28H193.7C193.7 49.4291 193.943 51.4268 194.453 53.2569L198.307 52.1831ZM195.7 49.28H203.22V45.28H195.7V49.28ZM201.22 47.28C201.22 49.2719 201.532 51.1055 202.216 52.7345L205.904 51.1855C205.468 50.1478 205.22 48.8615 205.22 47.28H201.22ZM202.235 52.7792C202.648 53.698 203.255 54.5134 204.115 55.0906C204.982 55.6723 205.968 55.92 206.98 55.92V51.92C206.632 51.92 206.451 51.8411 206.345 51.7694C206.231 51.6932 206.059 51.5287 205.885 51.1408L202.235 52.7792ZM206.98 55.92C207.841 55.92 208.732 55.7386 209.519 55.2276C210.325 54.7041 210.851 53.9462 211.147 53.103L207.373 51.777C207.345 51.8569 207.323 51.8874 207.321 51.8898C207.32 51.8914 207.321 51.8887 207.327 51.884C207.332 51.8792 207.337 51.8751 207.341 51.8724C207.368 51.8548 207.293 51.92 206.98 51.92V55.92ZM211.147 53.103C211.583 51.8617 211.78 50.497 211.78 49.04H207.78C207.78 50.143 207.63 51.045 207.373 51.777L211.147 53.103ZM211.78 49.04C211.78 46.9949 210.971 45.061 209.613 43.2712L206.427 45.6888C207.416 46.9923 207.78 48.0985 207.78 49.04H211.78ZM209.636 43.302C208.431 41.6487 207.16 40.1629 205.819 38.8507L203.021 41.7093C204.187 42.8505 205.315 44.1647 206.404 45.658L209.636 43.302ZM205.825 38.857C203.737 36.7942 202.021 34.7817 200.664 32.8216L197.376 35.0984C198.899 37.2983 200.783 39.4991 203.015 41.703L205.825 38.857ZM200.674 32.836C199.511 31.1246 198.9 29.0864 198.9 26.64H194.9C194.9 29.7936 195.702 32.6354 197.366 35.084L200.674 32.836ZM198.9 26.64C198.9 23.6916 199.666 21.5235 201.02 19.9399L197.98 17.3401C195.868 19.8098 194.9 22.975 194.9 26.64H198.9ZM201.02 19.9399C202.297 18.4466 204.156 17.6 206.9 17.6V13.6C203.244 13.6 200.17 14.78 197.98 17.3401L201.02 19.9399ZM206.9 17.6C208.658 17.6 210.009 17.8339 211.017 18.2247L212.463 14.4953C210.858 13.8728 208.982 13.6 206.9 13.6V17.6ZM211.03 18.2296C212.061 18.6216 212.817 19.179 213.37 19.8793L216.51 17.4007C215.463 16.0743 214.085 15.1117 212.45 14.4904L211.03 18.2296ZM213.37 19.8793C213.962 20.6282 214.423 21.5903 214.714 22.82L218.606 21.8999C218.204 20.1964 217.519 18.6784 216.51 17.4007L213.37 19.8793ZM214.722 22.8534C215.045 24.1224 215.22 25.6442 215.22 27.44H219.22C219.22 25.3958 219.022 23.5309 218.598 21.8666L214.722 22.8534ZM217.22 25.44H209.7V29.44H217.22V25.44ZM211.7 27.44C211.7 25.9206 211.54 24.5244 211.181 23.2839L207.339 24.3961C207.566 25.1823 207.7 26.1861 207.7 27.44H211.7ZM211.181 23.2839C210.931 22.4194 210.439 21.6159 209.627 21.0545C208.835 20.5074 207.926 20.32 207.06 20.32V24.32C207.367 24.32 207.412 24.386 207.353 24.3455C207.326 24.3266 207.307 24.3046 207.3 24.2944C207.296 24.2878 207.315 24.3136 207.339 24.3961L211.181 23.2839ZM207.06 20.32C206.29 20.32 205.503 20.4881 204.791 20.921C204.074 21.3571 203.561 21.9834 203.22 22.6889L206.82 24.4311C206.852 24.3659 206.875 24.3376 206.881 24.3311C206.885 24.326 206.88 24.332 206.869 24.339C206.858 24.3459 206.858 24.3427 206.881 24.3369C206.907 24.3305 206.963 24.32 207.06 24.32V20.32ZM203.231 22.6656C202.648 23.8318 202.42 25.1932 202.42 26.64H206.42C206.42 25.5801 206.592 24.8882 206.809 24.4544L203.231 22.6656ZM202.42 26.64C202.42 28.4358 202.849 30.1069 203.749 31.5948L207.171 29.5252C206.685 28.7198 206.42 27.7775 206.42 26.64H202.42ZM203.778 31.6415C204.616 32.9451 205.924 34.4395 207.617 36.1057L210.423 33.2543C208.81 31.6672 207.744 30.4149 207.142 29.4785L203.778 31.6415ZM207.624 36.1125C209.63 38.0665 211.453 40.1469 213.096 42.354L216.304 39.966C214.534 37.5864 212.57 35.3469 210.416 33.2475L207.624 36.1125ZM213.104 42.3659C214.594 44.3369 215.3 46.4122 215.3 48.64H219.3C219.3 45.4812 218.273 42.5697 216.296 39.9541L213.104 42.3659ZM215.3 48.64C215.3 50.2179 215.085 51.618 214.679 52.8579L218.481 54.1021C219.035 52.4086 219.3 50.5821 219.3 48.64H215.3ZM214.669 52.8894C214.288 54.1225 213.731 55.1435 213.016 55.9847L216.064 58.5753C217.162 57.2832 217.965 55.7708 218.491 54.0706L214.669 52.8894ZM212.997 56.0072C212.313 56.8365 211.477 57.4787 210.467 57.9419L212.133 61.5781C213.683 60.868 215.007 59.8568 216.083 58.5528L212.997 56.0072ZM210.452 57.9486C209.507 58.3911 208.365 58.64 206.98 58.64V62.64C208.849 62.64 210.587 62.3022 212.148 61.5714L210.452 57.9486ZM222.564 57.28L220.962 58.4769L220.967 58.4831L220.971 58.4892L222.564 57.28ZM222.564 18.92L220.971 17.7108L220.969 17.7138L222.564 18.92ZM238.244 18.92L236.651 20.1292L236.656 20.1352L236.661 20.1413L238.244 18.92ZM240.804 31.6V33.6H242.804V31.6H240.804ZM232.724 31.6H230.724V33.6H232.724V31.6ZM228.604 24.08L230.489 24.7488L230.493 24.7395L230.496 24.7302L228.604 24.08ZM228.604 52.16L226.713 52.8102L226.716 52.8195L226.72 52.8288L228.604 52.16ZM232.724 44.6V42.6H230.724V44.6H232.724ZM240.804 44.6H242.804V42.6H240.804V44.6ZM238.244 57.28L236.661 56.0587L236.656 56.0648L236.651 56.0708L238.244 57.28ZM230.404 58.6C227.293 58.6 225.358 57.6519 224.157 56.0708L220.971 58.4892C223.131 61.3347 226.422 62.6 230.404 62.6V58.6ZM224.167 56.0831C222.861 54.3355 222.084 51.7342 222.084 48.04H218.084C218.084 52.2391 218.961 55.7978 220.962 58.4769L224.167 56.0831ZM222.084 48.04V28.16H218.084V48.04H222.084ZM222.084 28.16C222.084 24.4334 222.864 21.8404 224.16 20.1262L220.969 17.7138C218.958 20.373 218.084 23.9399 218.084 28.16H222.084ZM224.157 20.1292C225.358 18.5481 227.293 17.6 230.404 17.6V13.6C226.422 13.6 223.131 14.8653 220.971 17.7108L224.157 20.1292ZM230.404 17.6C233.516 17.6 235.451 18.5481 236.651 20.1292L239.837 17.7108C237.678 14.8653 234.387 13.6 230.404 13.6V17.6ZM236.661 20.1413C238.006 21.8861 238.804 24.4775 238.804 28.16H242.804C242.804 23.9492 241.896 20.3806 239.828 17.6987L236.661 20.1413ZM238.804 28.16V31.6H242.804V28.16H238.804ZM240.804 29.6H232.724V33.6H240.804V29.6ZM234.724 31.6V27.12H230.724V31.6H234.724ZM234.724 27.12C234.724 25.7345 234.546 24.4449 234.11 23.318L230.379 24.762C230.583 25.2884 230.724 26.0521 230.724 27.12H234.724ZM234.11 23.318C233.832 22.6007 233.37 21.9289 232.662 21.4515C231.957 20.9764 231.165 20.8 230.404 20.8V24.8C230.48 24.8 230.509 24.8087 230.505 24.8074C230.502 24.8067 230.492 24.8039 230.478 24.7972C230.463 24.7905 230.445 24.781 230.427 24.7685C230.408 24.756 230.392 24.7426 230.378 24.7295C230.364 24.7164 230.356 24.7059 230.351 24.7002C230.343 24.6889 230.356 24.7032 230.379 24.762L234.11 23.318ZM230.404 20.8C229.633 20.8 228.825 20.9851 228.115 21.4901C227.404 21.9957 226.964 22.6987 226.713 23.4298L230.496 24.7302C230.518 24.6658 230.532 24.6507 230.522 24.6646C230.51 24.6814 230.481 24.7158 230.433 24.7499C230.386 24.784 230.344 24.7993 230.327 24.8043C230.312 24.8084 230.334 24.8 230.404 24.8V20.8ZM226.72 23.4112C226.328 24.5155 226.164 25.7701 226.164 27.12H230.164C230.164 26.0699 230.294 25.2978 230.489 24.7488L226.72 23.4112ZM226.164 27.12V49.08H230.164V27.12H226.164ZM226.164 49.08C226.164 50.4328 226.328 51.6914 226.713 52.8102L230.496 51.5098C230.294 50.9219 230.164 50.1272 230.164 49.08H226.164ZM226.72 52.8288C226.978 53.5563 227.427 54.246 228.14 54.737C228.847 55.2243 229.646 55.4 230.404 55.4V51.4C230.329 51.4 230.302 51.3913 230.311 51.3938C230.323 51.3971 230.361 51.4102 230.409 51.443C230.457 51.4761 230.489 51.5115 230.505 51.5334C230.518 51.5527 230.508 51.5453 230.489 51.4912L226.72 52.8288ZM230.404 55.4C231.165 55.4 231.957 55.2236 232.662 54.7485C233.37 54.2711 233.832 53.5993 234.11 52.882L230.379 51.438C230.356 51.4968 230.343 51.5111 230.351 51.4998C230.356 51.4941 230.364 51.4836 230.378 51.4705C230.392 51.4574 230.408 51.444 230.427 51.4315C230.445 51.419 230.463 51.4095 230.478 51.4028C230.492 51.3961 230.502 51.3932 230.505 51.3926C230.509 51.3913 230.48 51.4 230.404 51.4V55.4ZM234.11 52.882C234.546 51.7551 234.724 50.4655 234.724 49.08H230.724C230.724 50.1479 230.583 50.9115 230.379 51.438L234.11 52.882ZM234.724 49.08V44.6H230.724V49.08H234.724ZM232.724 46.6H240.804V42.6H232.724V46.6ZM238.804 44.6V48.04H242.804V44.6H238.804ZM238.804 48.04C238.804 51.7225 238.006 54.3139 236.661 56.0587L239.828 58.5013C241.896 55.8194 242.804 52.2508 242.804 48.04H238.804ZM236.651 56.0708C235.451 57.6519 233.516 58.6 230.404 58.6V62.6C234.387 62.6 237.678 61.3347 239.837 58.4892L236.651 56.0708ZM246.751 57.32L245.22 58.6077L245.228 58.6169L246.751 57.32ZM246.751 18.88L248.273 20.177L248.281 20.1677L246.751 18.88ZM261.911 18.88L260.38 20.1677L260.389 20.1778L260.397 20.1877L261.911 18.88ZM261.911 57.32L260.389 56.0215L260.388 56.0231L261.911 57.32ZM256.511 52.28L258.311 53.1511L258.316 53.14L258.322 53.1289L256.511 52.28ZM256.511 23.88L254.71 24.7511L256.511 23.88ZM252.191 23.88L250.39 23.0089V23.0089L252.191 23.88ZM252.191 52.28L250.39 53.1511L252.191 52.28ZM254.351 58.56C251.62 58.56 249.678 57.6729 248.273 56.0231L245.228 58.6169C247.503 61.2871 250.628 62.56 254.351 62.56V58.56ZM248.281 56.0323C246.794 54.2646 245.991 51.9847 245.991 49.04H241.991C241.991 52.7619 243.028 56.002 245.22 58.6077L248.281 56.0323ZM245.991 49.04V27.12H241.991V49.04H245.991ZM245.991 27.12C245.991 24.1746 246.794 21.9137 248.273 20.1769L245.228 17.5831C243.028 20.1663 241.991 23.3988 241.991 27.12H245.991ZM248.281 20.1677C249.689 18.4942 251.629 17.6 254.351 17.6V13.6C250.619 13.6 247.492 14.8925 245.22 17.5923L248.281 20.1677ZM254.351 17.6C257.04 17.6 258.969 18.4901 260.38 20.1677L263.441 17.5923C261.173 14.8965 258.061 13.6 254.351 13.6V17.6ZM260.397 20.1877C261.899 21.9248 262.711 24.1818 262.711 27.12H266.711C266.711 23.3915 265.656 20.1552 263.424 17.5723L260.397 20.1877ZM262.711 27.12V49.04H266.711V27.12H262.711ZM262.711 49.04C262.711 51.9775 261.899 54.2535 260.389 56.0215L263.432 58.6185C265.656 56.0131 266.711 52.7692 266.711 49.04H262.711ZM260.388 56.0231C258.979 57.6769 257.048 58.56 254.351 58.56V62.56C258.053 62.56 261.162 61.2831 263.433 58.6169L260.388 56.0231ZM254.351 55.52C255.133 55.52 255.936 55.3639 256.666 54.9445C257.412 54.5164 257.955 53.8865 258.311 53.1511L254.71 51.4089C254.685 51.4616 254.667 51.4808 254.666 51.4819C254.666 51.4829 254.667 51.4817 254.669 51.4794C254.672 51.4772 254.674 51.4758 254.675 51.4755C254.685 51.4694 254.608 51.52 254.351 51.52V55.52ZM258.322 53.1289C258.884 51.9279 259.111 50.5336 259.111 49.04H255.111C255.111 50.1597 254.937 50.9254 254.7 51.4311L258.322 53.1289ZM259.111 49.04V27.12H255.111V49.04H259.111ZM259.111 27.12C259.111 25.6111 258.888 24.2015 258.311 23.0089L254.71 24.7511C254.933 25.2118 255.111 25.9623 255.111 27.12H259.111ZM258.311 23.0089C257.955 22.2735 257.412 21.6436 256.666 21.2155C255.936 20.7961 255.133 20.64 254.351 20.64V24.64C254.608 24.64 254.685 24.6906 254.675 24.6845C254.674 24.6842 254.672 24.6828 254.669 24.6806C254.667 24.6783 254.666 24.6771 254.666 24.6781C254.667 24.6792 254.685 24.6984 254.71 24.7511L258.311 23.0089ZM254.351 20.64C253.568 20.64 252.765 20.7961 252.035 21.2155C251.289 21.6436 250.746 22.2735 250.39 23.0089L253.991 24.7511C254.016 24.6984 254.034 24.6792 254.035 24.6781C254.036 24.6771 254.035 24.6783 254.032 24.6806C254.029 24.6828 254.027 24.6842 254.026 24.6845C254.016 24.6906 254.093 24.64 254.351 24.64V20.64ZM250.39 23.0089C249.813 24.2015 249.591 25.6111 249.591 27.12H253.591C253.591 25.9623 253.768 25.2118 253.991 24.7511L250.39 23.0089ZM249.591 27.12V49.04H253.591V27.12H249.591ZM249.591 49.04C249.591 50.5489 249.813 51.9585 250.39 53.1511L253.991 51.4089C253.768 50.9482 253.591 50.1977 253.591 49.04H249.591ZM250.39 53.1511C250.746 53.8865 251.289 54.5164 252.035 54.9445C252.765 55.3639 253.568 55.52 254.351 55.52V51.52C254.093 51.52 254.016 51.4694 254.026 51.4755C254.027 51.4758 254.029 51.4772 254.032 51.4794C254.035 51.4817 254.036 51.4829 254.035 51.4819C254.034 51.4808 254.016 51.4616 253.991 51.4089L250.39 53.1511Z" fill="#DE299C" mask="url(#path-1-outside-1_4_660)"/>
</g>
<defs>
<filter id="filter0_d_4_660" x="0.200195" y="0.559937" width="268.511" height="64.0801" filterUnits="userSpaceOnUse" color-interpolation-filters="sRGB">
<feFlood flood-opacity="0" result="BackgroundImageFix"/>
<feColorMatrix in="SourceAlpha" type="matrix" values="0 0 0 0 0 0 0 0 0 0 0 0 0 0 0 0 0 0 127 0" result="hardAlpha"/>
<feOffset dx="4" dy="4"/>
<feComposite in2="hardAlpha" operator="out"/>
<feColorMatrix type="matrix" values="0 0 0 0 0.870588 0 0 0 0 0.160784 0 0 0 0 0.611765 0 0 0 1 0"/>
<feBlend mode="normal" in2="BackgroundImageFix" result="effect1_dropShadow_4_660"/>
<feBlend mode="normal" in="SourceGraphic" in2="effect1_dropShadow_4_660" result="shape"/>
</filter>
</defs>
</svg>
