<svg width="242" height="64" viewBox="0 0 242 64" fill="none" xmlns="http://www.w3.org/2000/svg">
<g filter="url(#filter0_d_4_624)">
<mask id="path-1-outside-1_4_624" maskUnits="userSpaceOnUse" x="-2" y="-2" width="242" height="64" fill="black">
<rect fill="white" x="-2" y="-2" width="242" height="64"/>
<path d="M0.2 59V0.199999H8.84V59H0.2ZM25.5256 59.64C22.9923 59.64 21.059 59.08 19.7256 57.96C18.3923 56.84 17.4723 55.24 16.9656 53.16C16.4856 51.08 16.2456 48.6 16.2456 45.72V22.52H12.1656V15.24H16.2456V4.44H24.3256V15.24H29.8856V22.52H24.3256V46.88C24.3256 48.5867 24.579 49.8533 25.0856 50.68C25.5923 51.48 26.419 51.88 27.5656 51.88C28.0723 51.88 28.5123 51.84 28.8856 51.76C29.2856 51.68 29.6056 51.5867 29.8456 51.48V58.88C29.3123 59.0933 28.7256 59.2667 28.0856 59.4C27.4723 59.56 26.619 59.64 25.5256 59.64ZM42.2813 59.64C39.0546 59.64 36.5079 58.5333 34.6413 56.32C32.8013 54.08 31.8813 51.3467 31.8813 48.12V26.12C31.8813 22.7067 32.8013 19.9333 34.6413 17.8C36.4813 15.6667 39.0546 14.6 42.3613 14.6C44.5213 14.6 46.3746 15.0933 47.9213 16.08C49.4946 17.0667 50.6946 18.4133 51.5213 20.12C52.3479 21.8 52.7613 23.72 52.7613 25.88V38.6H39.4013V48.12C39.4013 49.2133 39.6413 50.2267 40.1213 51.16C40.6279 52.0667 41.3746 52.52 42.3613 52.52C43.4013 52.52 44.1346 52.0933 44.5613 51.24C45.0146 50.3867 45.2413 49.3467 45.2413 48.12V43.32H52.7613V48.36C52.7613 51.7467 51.8413 54.48 50.0013 56.56C48.1879 58.6133 45.6146 59.64 42.2813 59.64ZM39.4013 32.28H45.2413V26.12C45.2413 24.92 45.0279 23.88 44.6013 23C44.2013 22.0933 43.4546 21.64 42.3613 21.64C41.3479 21.64 40.6013 22.1067 40.1213 23.04C39.6413 23.9467 39.4013 24.9733 39.4013 26.12V32.28ZM56.1875 59V15.24H64.2675V18.92C65.2275 17.9867 66.3075 17.04 67.5075 16.08C68.7075 15.0933 69.8142 14.6 70.8275 14.6C72.1608 14.6 73.2808 15.0267 74.1875 15.88C75.0942 16.7333 75.7742 17.8133 76.2275 19.12C76.6808 20.4267 76.9075 21.7733 76.9075 23.16V59H68.8275V24.76C68.8275 23.9067 68.6808 23.3067 68.3875 22.96C68.0942 22.6133 67.6008 22.44 66.9075 22.44C66.3208 22.44 65.8142 22.6533 65.3875 23.08C64.9875 23.48 64.6142 23.96 64.2675 24.52V59H56.1875ZM91.355 59.64C89.4617 59.64 87.8083 59.32 86.395 58.68C84.9817 58.04 83.8083 57.1333 82.875 55.96C81.9417 54.76 81.235 53.3467 80.755 51.72C80.3017 50.0933 80.075 48.28 80.075 46.28H87.595C87.595 48.0667 87.875 49.6267 88.435 50.96C89.0217 52.2667 89.995 52.92 91.355 52.92C92.5283 52.92 93.2883 52.4267 93.635 51.44C93.9817 50.4533 94.155 49.32 94.155 48.04C94.155 46.5467 93.5683 45.0267 92.395 43.48C91.2483 41.9067 90.0483 40.5067 88.795 39.28C86.635 37.1467 84.835 35.04 83.395 32.96C81.9817 30.88 81.275 28.44 81.275 25.64C81.275 22.3333 82.1417 19.6667 83.875 17.64C85.6083 15.6133 88.075 14.6 91.275 14.6C93.195 14.6 94.8083 14.8533 96.115 15.36C97.4483 15.8667 98.515 16.6267 99.315 17.64C100.115 18.6533 100.688 19.8933 101.035 21.36C101.408 22.8267 101.595 24.52 101.595 26.44H94.075C94.075 25.0533 93.9283 23.8533 93.635 22.84C93.3417 21.8267 92.6083 21.32 91.435 21.32C90.475 21.32 89.795 21.7333 89.395 22.56C88.995 23.36 88.795 24.3867 88.795 25.64C88.795 27.1067 89.1417 28.4133 89.835 29.56C90.555 30.68 91.7417 32.0533 93.395 33.68C95.475 35.7067 97.3683 37.8667 99.075 40.16C100.808 42.4533 101.675 44.9467 101.675 47.64C101.675 49.4 101.435 51.0133 100.955 52.48C100.502 53.9467 99.8217 55.2133 98.915 56.28C98.035 57.3467 96.955 58.1733 95.675 58.76C94.4217 59.3467 92.9817 59.64 91.355 59.64ZM123.043 59.64C121.71 59.64 120.576 59.2267 119.643 58.4C118.71 57.5733 118.003 56.5067 117.523 55.2C117.043 53.8667 116.803 52.4933 116.803 51.08V23.16C116.803 21.7467 117.03 20.3867 117.483 19.08C117.963 17.7733 118.67 16.7067 119.603 15.88C120.536 15.0267 121.683 14.6 123.043 14.6C124.056 14.6 125.123 14.9467 126.243 15.64C127.363 16.3333 128.43 17.16 129.443 18.12V0.199999H137.523V59H129.443V56.12C128.376 57.0533 127.323 57.88 126.283 58.6C125.243 59.2933 124.163 59.64 123.043 59.64ZM126.883 52.04C127.496 52.04 128.07 51.7867 128.603 51.28C129.163 50.7733 129.443 50.1467 129.443 49.4V24.84C129.443 24.2 129.163 23.6 128.603 23.04C128.07 22.48 127.496 22.2 126.883 22.2C126.296 22.2 125.816 22.4533 125.443 22.96C125.07 23.44 124.883 24.0667 124.883 24.84V49.4C124.883 50.1467 125.07 50.7733 125.443 51.28C125.816 51.7867 126.296 52.04 126.883 52.04ZM152.788 59.56C149.561 59.56 147.028 58.48 145.188 56.32C143.348 54.1333 142.428 51.3733 142.428 48.04V26.12C142.428 22.7867 143.348 20.04 145.188 17.88C147.028 15.6933 149.561 14.6 152.788 14.6C155.988 14.6 158.508 15.6933 160.348 17.88C162.215 20.04 163.148 22.7867 163.148 26.12V48.04C163.148 51.3733 162.215 54.1333 160.348 56.32C158.508 58.48 155.988 59.56 152.788 59.56ZM152.788 52.52C153.828 52.52 154.548 52.1067 154.948 51.28C155.348 50.4267 155.548 49.3467 155.548 48.04V26.12C155.548 24.7867 155.348 23.7067 154.948 22.88C154.548 22.0533 153.828 21.64 152.788 21.64C151.748 21.64 151.028 22.0533 150.628 22.88C150.228 23.7067 150.028 24.7867 150.028 26.12V48.04C150.028 49.3733 150.228 50.4533 150.628 51.28C151.028 52.1067 151.748 52.52 152.788 52.52ZM180.278 59V0.199999H188.918V19.8V20.76H189.238L189.638 19.8L196.358 0.199999H205.238L197.318 19.56L206.278 59H197.398L191.638 32.2H191.398L188.918 38.2V59H180.278ZM209.478 59V15.24H217.558V59H209.478ZM209.478 8.28V0.199999H217.558V8.28H209.478ZM233.416 59.64C230.883 59.64 228.95 59.08 227.616 57.96C226.283 56.84 225.363 55.24 224.856 53.16C224.376 51.08 224.136 48.6 224.136 45.72V22.52H220.056V15.24H224.136V4.44H232.216V15.24H237.776V22.52H232.216V46.88C232.216 48.5867 232.47 49.8533 232.976 50.68C233.483 51.48 234.31 51.88 235.456 51.88C235.963 51.88 236.403 51.84 236.776 51.76C237.176 51.68 237.496 51.5867 237.736 51.48V58.88C237.203 59.0933 236.616 59.2667 235.976 59.4C235.363 59.56 234.51 59.64 233.416 59.64Z"/>
</mask>
<path d="M0.2 59V0.199999H8.84V59H0.2ZM25.5256 59.64C22.9923 59.64 21.059 59.08 19.7256 57.96C18.3923 56.84 17.4723 55.24 16.9656 53.16C16.4856 51.08 16.2456 48.6 16.2456 45.72V22.52H12.1656V15.24H16.2456V4.44H24.3256V15.24H29.8856V22.52H24.3256V46.88C24.3256 48.5867 24.579 49.8533 25.0856 50.68C25.5923 51.48 26.419 51.88 27.5656 51.88C28.0723 51.88 28.5123 51.84 28.8856 51.76C29.2856 51.68 29.6056 51.5867 29.8456 51.48V58.88C29.3123 59.0933 28.7256 59.2667 28.0856 59.4C27.4723 59.56 26.619 59.64 25.5256 59.64ZM42.2813 59.64C39.0546 59.64 36.5079 58.5333 34.6413 56.32C32.8013 54.08 31.8813 51.3467 31.8813 48.12V26.12C31.8813 22.7067 32.8013 19.9333 34.6413 17.8C36.4813 15.6667 39.0546 14.6 42.3613 14.6C44.5213 14.6 46.3746 15.0933 47.9213 16.08C49.4946 17.0667 50.6946 18.4133 51.5213 20.12C52.3479 21.8 52.7613 23.72 52.7613 25.88V38.6H39.4013V48.12C39.4013 49.2133 39.6413 50.2267 40.1213 51.16C40.6279 52.0667 41.3746 52.52 42.3613 52.52C43.4013 52.52 44.1346 52.0933 44.5613 51.24C45.0146 50.3867 45.2413 49.3467 45.2413 48.12V43.32H52.7613V48.36C52.7613 51.7467 51.8413 54.48 50.0013 56.56C48.1879 58.6133 45.6146 59.64 42.2813 59.64ZM39.4013 32.28H45.2413V26.12C45.2413 24.92 45.0279 23.88 44.6013 23C44.2013 22.0933 43.4546 21.64 42.3613 21.64C41.3479 21.64 40.6013 22.1067 40.1213 23.04C39.6413 23.9467 39.4013 24.9733 39.4013 26.12V32.28ZM56.1875 59V15.24H64.2675V18.92C65.2275 17.9867 66.3075 17.04 67.5075 16.08C68.7075 15.0933 69.8142 14.6 70.8275 14.6C72.1608 14.6 73.2808 15.0267 74.1875 15.88C75.0942 16.7333 75.7742 17.8133 76.2275 19.12C76.6808 20.4267 76.9075 21.7733 76.9075 23.16V59H68.8275V24.76C68.8275 23.9067 68.6808 23.3067 68.3875 22.96C68.0942 22.6133 67.6008 22.44 66.9075 22.44C66.3208 22.44 65.8142 22.6533 65.3875 23.08C64.9875 23.48 64.6142 23.96 64.2675 24.52V59H56.1875ZM91.355 59.64C89.4617 59.64 87.8083 59.32 86.395 58.68C84.9817 58.04 83.8083 57.1333 82.875 55.96C81.9417 54.76 81.235 53.3467 80.755 51.72C80.3017 50.0933 80.075 48.28 80.075 46.28H87.595C87.595 48.0667 87.875 49.6267 88.435 50.96C89.0217 52.2667 89.995 52.92 91.355 52.92C92.5283 52.92 93.2883 52.4267 93.635 51.44C93.9817 50.4533 94.155 49.32 94.155 48.04C94.155 46.5467 93.5683 45.0267 92.395 43.48C91.2483 41.9067 90.0483 40.5067 88.795 39.28C86.635 37.1467 84.835 35.04 83.395 32.96C81.9817 30.88 81.275 28.44 81.275 25.64C81.275 22.3333 82.1417 19.6667 83.875 17.64C85.6083 15.6133 88.075 14.6 91.275 14.6C93.195 14.6 94.8083 14.8533 96.115 15.36C97.4483 15.8667 98.515 16.6267 99.315 17.64C100.115 18.6533 100.688 19.8933 101.035 21.36C101.408 22.8267 101.595 24.52 101.595 26.44H94.075C94.075 25.0533 93.9283 23.8533 93.635 22.84C93.3417 21.8267 92.6083 21.32 91.435 21.32C90.475 21.32 89.795 21.7333 89.395 22.56C88.995 23.36 88.795 24.3867 88.795 25.64C88.795 27.1067 89.1417 28.4133 89.835 29.56C90.555 30.68 91.7417 32.0533 93.395 33.68C95.475 35.7067 97.3683 37.8667 99.075 40.16C100.808 42.4533 101.675 44.9467 101.675 47.64C101.675 49.4 101.435 51.0133 100.955 52.48C100.502 53.9467 99.8217 55.2133 98.915 56.28C98.035 57.3467 96.955 58.1733 95.675 58.76C94.4217 59.3467 92.9817 59.64 91.355 59.64ZM123.043 59.64C121.71 59.64 120.576 59.2267 119.643 58.4C118.71 57.5733 118.003 56.5067 117.523 55.2C117.043 53.8667 116.803 52.4933 116.803 51.08V23.16C116.803 21.7467 117.03 20.3867 117.483 19.08C117.963 17.7733 118.67 16.7067 119.603 15.88C120.536 15.0267 121.683 14.6 123.043 14.6C124.056 14.6 125.123 14.9467 126.243 15.64C127.363 16.3333 128.43 17.16 129.443 18.12V0.199999H137.523V59H129.443V56.12C128.376 57.0533 127.323 57.88 126.283 58.6C125.243 59.2933 124.163 59.64 123.043 59.64ZM126.883 52.04C127.496 52.04 128.07 51.7867 128.603 51.28C129.163 50.7733 129.443 50.1467 129.443 49.4V24.84C129.443 24.2 129.163 23.6 128.603 23.04C128.07 22.48 127.496 22.2 126.883 22.2C126.296 22.2 125.816 22.4533 125.443 22.96C125.07 23.44 124.883 24.0667 124.883 24.84V49.4C124.883 50.1467 125.07 50.7733 125.443 51.28C125.816 51.7867 126.296 52.04 126.883 52.04ZM152.788 59.56C149.561 59.56 147.028 58.48 145.188 56.32C143.348 54.1333 142.428 51.3733 142.428 48.04V26.12C142.428 22.7867 143.348 20.04 145.188 17.88C147.028 15.6933 149.561 14.6 152.788 14.6C155.988 14.6 158.508 15.6933 160.348 17.88C162.215 20.04 163.148 22.7867 163.148 26.12V48.04C163.148 51.3733 162.215 54.1333 160.348 56.32C158.508 58.48 155.988 59.56 152.788 59.56ZM152.788 52.52C153.828 52.52 154.548 52.1067 154.948 51.28C155.348 50.4267 155.548 49.3467 155.548 48.04V26.12C155.548 24.7867 155.348 23.7067 154.948 22.88C154.548 22.0533 153.828 21.64 152.788 21.64C151.748 21.64 151.028 22.0533 150.628 22.88C150.228 23.7067 150.028 24.7867 150.028 26.12V48.04C150.028 49.3733 150.228 50.4533 150.628 51.28C151.028 52.1067 151.748 52.52 152.788 52.52ZM180.278 59V0.199999H188.918V19.8V20.76H189.238L189.638 19.8L196.358 0.199999H205.238L197.318 19.56L206.278 59H197.398L191.638 32.2H191.398L188.918 38.2V59H180.278ZM209.478 59V15.24H217.558V59H209.478ZM209.478 8.28V0.199999H217.558V8.28H209.478ZM233.416 59.64C230.883 59.64 228.95 59.08 227.616 57.96C226.283 56.84 225.363 55.24 224.856 53.16C224.376 51.08 224.136 48.6 224.136 45.72V22.52H220.056V15.24H224.136V4.44H232.216V15.24H237.776V22.52H232.216V46.88C232.216 48.5867 232.47 49.8533 232.976 50.68C233.483 51.48 234.31 51.88 235.456 51.88C235.963 51.88 236.403 51.84 236.776 51.76C237.176 51.68 237.496 51.5867 237.736 51.48V58.88C237.203 59.0933 236.616 59.2667 235.976 59.4C235.363 59.56 234.51 59.64 233.416 59.64Z" fill="white"/>
<path d="M0.2 59H-1.8V61H0.2V59ZM0.2 0.199999V-1.8H-1.8V0.199999H0.2ZM8.84 0.199999H10.84V-1.8H8.84V0.199999ZM8.84 59V61H10.84V59H8.84ZM2.2 59V0.199999H-1.8V59H2.2ZM0.2 2.2H8.84V-1.8H0.2V2.2ZM6.84 0.199999V59H10.84V0.199999H6.84ZM8.84 57H0.2V61H8.84V57ZM19.7256 57.96L21.012 56.4286L19.7256 57.96ZM16.9656 53.16L15.0168 53.6097L15.0196 53.6215L15.0224 53.6333L16.9656 53.16ZM16.2456 22.52H18.2456V20.52H16.2456V22.52ZM12.1656 22.52H10.1656V24.52H12.1656V22.52ZM12.1656 15.24V13.24H10.1656V15.24H12.1656ZM16.2456 15.24V17.24H18.2456V15.24H16.2456ZM16.2456 4.44V2.44H14.2456V4.44H16.2456ZM24.3256 4.44H26.3256V2.44H24.3256V4.44ZM24.3256 15.24H22.3256V17.24H24.3256V15.24ZM29.8856 15.24H31.8856V13.24H29.8856V15.24ZM29.8856 22.52V24.52H31.8856V22.52H29.8856ZM24.3256 22.52V20.52H22.3256V22.52H24.3256ZM25.0856 50.68L23.3804 51.7251L23.3881 51.7377L23.396 51.7501L25.0856 50.68ZM28.8856 51.76L28.4934 49.7988L28.48 49.8015L28.4666 49.8044L28.8856 51.76ZM29.8456 51.48H31.8456V48.4025L29.0334 49.6524L29.8456 51.48ZM29.8456 58.88L30.5884 60.737L31.8456 60.2341V58.88H29.8456ZM28.0856 59.4L27.6777 57.442L27.629 57.4522L27.5808 57.4648L28.0856 59.4ZM25.5256 57.64C23.2541 57.64 21.8522 57.1344 21.012 56.4286L18.4392 59.4914C20.2657 61.0256 22.7305 61.64 25.5256 61.64V57.64ZM21.012 56.4286C20.0733 55.6401 19.3383 54.4497 18.9088 52.6867L15.0224 53.6333C15.6063 56.0303 16.7113 58.0399 18.4392 59.4914L21.012 56.4286ZM18.9144 52.7103C18.4779 50.8187 18.2456 48.4974 18.2456 45.72H14.2456C14.2456 48.7026 14.4934 51.3413 15.0168 53.6097L18.9144 52.7103ZM18.2456 45.72V22.52H14.2456V45.72H18.2456ZM16.2456 20.52H12.1656V24.52H16.2456V20.52ZM14.1656 22.52V15.24H10.1656V22.52H14.1656ZM12.1656 17.24H16.2456V13.24H12.1656V17.24ZM18.2456 15.24V4.44H14.2456V15.24H18.2456ZM16.2456 6.44H24.3256V2.44H16.2456V6.44ZM22.3256 4.44V15.24H26.3256V4.44H22.3256ZM24.3256 17.24H29.8856V13.24H24.3256V17.24ZM27.8856 15.24V22.52H31.8856V15.24H27.8856ZM29.8856 20.52H24.3256V24.52H29.8856V20.52ZM22.3256 22.52V46.88H26.3256V22.52H22.3256ZM22.3256 46.88C22.3256 48.7115 22.5843 50.4261 23.3804 51.7251L26.7908 49.6349C26.5737 49.2805 26.3256 48.4619 26.3256 46.88H22.3256ZM23.396 51.7501C24.3507 53.2575 25.9008 53.88 27.5656 53.88V49.88C26.9371 49.88 26.8339 49.7025 26.7753 49.6099L23.396 51.7501ZM27.5656 53.88C28.1704 53.88 28.7573 53.8329 29.3047 53.7156L28.4666 49.8044C28.2673 49.8471 27.9742 49.88 27.5656 49.88V53.88ZM29.2779 53.7212C29.7523 53.6263 30.2307 53.4975 30.6579 53.3076L29.0334 49.6524C28.9805 49.6759 28.8189 49.7337 28.4934 49.7988L29.2779 53.7212ZM27.8456 51.48V58.88H31.8456V51.48H27.8456ZM29.1028 57.023C28.6916 57.1875 28.2187 57.3293 27.6777 57.442L28.4935 61.358C29.2326 61.204 29.933 60.9991 30.5884 60.737L29.1028 57.023ZM27.5808 57.4648C27.2092 57.5617 26.5525 57.64 25.5256 57.64V61.64C26.6854 61.64 27.7354 61.5583 28.5905 61.3352L27.5808 57.4648ZM34.6413 56.32L33.0958 57.5895L33.104 57.5995L33.1124 57.6094L34.6413 56.32ZM34.6413 17.8L33.1268 16.4937L33.1268 16.4937L34.6413 17.8ZM47.9212 16.08L46.8456 17.7661L46.8521 17.7703L46.8587 17.7744L47.9212 16.08ZM51.5213 20.12L49.7213 20.9919L49.7267 21.003L51.5213 20.12ZM52.7613 38.6V40.6H54.7613V38.6H52.7613ZM39.4012 38.6V36.6H37.4012V38.6H39.4012ZM40.1213 51.16L38.3427 52.0747L38.3585 52.1054L38.3754 52.1356L40.1213 51.16ZM44.5613 51.24L42.795 50.3017L42.7834 50.3235L42.7724 50.3456L44.5613 51.24ZM45.2412 43.32V41.32H43.2412V43.32H45.2412ZM52.7613 43.32H54.7613V41.32H52.7613V43.32ZM50.0013 56.56L48.5033 55.2348L48.5021 55.2361L50.0013 56.56ZM39.4012 32.28H37.4012V34.28H39.4012V32.28ZM45.2412 32.28V34.28H47.2412V32.28H45.2412ZM44.6012 23L42.7714 23.8073L42.7859 23.8402L42.8016 23.8725L44.6012 23ZM40.1213 23.04L41.8888 23.9758L41.8944 23.9653L41.8998 23.9547L40.1213 23.04ZM42.2812 57.64C39.5681 57.64 37.6104 56.7384 36.1701 55.0306L33.1124 57.6094C35.4054 60.3283 38.5411 61.64 42.2812 61.64V57.64ZM36.1867 55.0505C34.6741 53.2091 33.8812 50.9394 33.8812 48.12H29.8812C29.8812 51.754 30.9284 54.9509 33.0958 57.5895L36.1867 55.0505ZM33.8812 48.12V26.12H29.8812V48.12H33.8812ZM33.8812 26.12C33.8812 23.0803 34.6918 20.8036 36.1557 19.1062L33.1268 16.4937C30.9107 19.0631 29.8812 22.3331 29.8812 26.12H33.8812ZM36.1557 19.1063C37.5485 17.4914 39.5247 16.6 42.3613 16.6V12.6C38.5845 12.6 35.414 13.8419 33.1268 16.4937L36.1557 19.1063ZM42.3613 16.6C44.2088 16.6 45.6737 17.0185 46.8456 17.7661L48.9969 14.3939C47.0755 13.1682 44.8337 12.6 42.3613 12.6V16.6ZM46.8587 17.7744C48.1068 18.5571 49.0547 19.6156 49.7213 20.9919L53.3212 19.2481C52.3345 17.211 50.8823 15.5762 48.9838 14.3856L46.8587 17.7744ZM49.7267 21.003C50.3989 22.369 50.7613 23.9791 50.7613 25.88H54.7613C54.7613 23.4609 54.297 21.231 53.3158 19.237L49.7267 21.003ZM50.7613 25.88V38.6H54.7613V25.88H50.7613ZM52.7613 36.6H39.4012V40.6H52.7613V36.6ZM37.4012 38.6V48.12H41.4012V38.6H37.4012ZM37.4012 48.12C37.4012 49.5178 37.711 50.8465 38.3427 52.0747L41.8998 50.2453C41.5715 49.6069 41.4012 48.9089 41.4012 48.12H37.4012ZM38.3754 52.1356C39.2125 53.6337 40.6041 54.52 42.3613 54.52V50.52C42.1854 50.52 42.1206 50.4834 42.0992 50.4704C42.0726 50.4543 41.9838 50.3931 41.8671 50.1844L38.3754 52.1356ZM42.3613 54.52C43.1552 54.52 43.963 54.3558 44.697 53.9287C45.4412 53.4957 45.985 52.8647 46.3501 52.1344L42.7724 50.3456C42.7387 50.4129 42.7125 50.4451 42.7018 50.457C42.6922 50.4675 42.688 50.4698 42.6855 50.4713C42.6821 50.4733 42.6628 50.4842 42.6159 50.4955C42.5671 50.5072 42.4852 50.52 42.3613 50.52V54.52ZM46.3275 52.1783C46.9702 50.9685 47.2412 49.5878 47.2412 48.12H43.2412C43.2412 49.1056 43.059 49.8048 42.795 50.3017L46.3275 52.1783ZM47.2412 48.12V43.32H43.2412V48.12H47.2412ZM45.2412 45.32H52.7613V41.32H45.2412V45.32ZM50.7613 43.32V48.36H54.7613V43.32H50.7613ZM50.7613 48.36C50.7613 51.3705 49.9526 53.5965 48.5033 55.2349L51.4992 57.8851C53.7299 55.3635 54.7613 52.1228 54.7613 48.36H50.7613ZM48.5021 55.2361C47.1496 56.7677 45.1763 57.64 42.2812 57.64V61.64C46.0529 61.64 49.2262 60.459 51.5004 57.8839L48.5021 55.2361ZM39.4012 34.28H45.2412V30.28H39.4012V34.28ZM47.2412 32.28V26.12H43.2412V32.28H47.2412ZM47.2412 26.12C47.2412 24.685 46.9859 23.3341 46.4009 22.1275L42.8016 23.8725C43.0699 24.4259 43.2412 25.155 43.2412 26.12H47.2412ZM46.4311 22.1927C46.0888 21.4169 45.5485 20.7375 44.7792 20.2704C44.0231 19.8114 43.1826 19.64 42.3613 19.64V23.64C42.4975 23.64 42.5862 23.6542 42.6378 23.6669C42.6633 23.6732 42.6799 23.6792 42.6895 23.6831C42.6988 23.6869 42.7029 23.6893 42.7033 23.6896C42.7036 23.6898 42.7029 23.6893 42.7022 23.6887C42.7015 23.6881 42.7031 23.6894 42.7072 23.6942C42.7148 23.7032 42.7396 23.7351 42.7714 23.8073L46.4311 22.1927ZM42.3613 19.64C41.5375 19.64 40.7181 19.8335 39.9813 20.294C39.2483 20.7521 38.7156 21.4001 38.3427 22.1253L41.8998 23.9547C42.0069 23.7466 42.0875 23.6946 42.1012 23.686C42.1111 23.6799 42.1717 23.64 42.3613 23.64V19.64ZM38.3537 22.1042C37.7038 23.3318 37.4012 24.6861 37.4012 26.12H41.4012C41.4012 25.2606 41.5787 24.5615 41.8888 23.9758L38.3537 22.1042ZM37.4012 26.12V32.28H41.4012V26.12H37.4012ZM56.1875 59H54.1875V61H56.1875V59ZM56.1875 15.24V13.24H54.1875V15.24H56.1875ZM64.2675 15.24H66.2675V13.24H64.2675V15.24ZM64.2675 18.92H62.2675V23.6539L65.6617 20.354L64.2675 18.92ZM67.5075 16.08L68.7569 17.6417L68.7674 17.6334L68.7777 17.6248L67.5075 16.08ZM74.1875 15.88L75.5582 14.4236L74.1875 15.88ZM76.2275 19.12L74.338 19.7755V19.7755L76.2275 19.12ZM76.9075 59V61H78.9075V59H76.9075ZM68.8275 59H66.8275V61H68.8275V59ZM68.3875 22.96L66.8607 24.2519L66.8607 24.2519L68.3875 22.96ZM65.3875 23.08L63.9733 21.6658L63.9733 21.6658L65.3875 23.08ZM64.2675 24.52L62.567 23.4673L62.2675 23.951V24.52H64.2675ZM64.2675 59V61H66.2675V59H64.2675ZM58.1875 59V15.24H54.1875V59H58.1875ZM56.1875 17.24H64.2675V13.24H56.1875V17.24ZM62.2675 15.24V18.92H66.2675V15.24H62.2675ZM65.6617 20.354C66.5693 19.4715 67.6 18.5672 68.7569 17.6417L66.2581 14.5183C65.015 15.5128 63.8857 16.5018 62.8733 17.486L65.6617 20.354ZM68.7777 17.6248C69.8016 16.783 70.4681 16.6 70.8275 16.6V12.6C69.1602 12.6 67.6134 13.4037 66.2373 14.5351L68.7777 17.6248ZM70.8275 16.6C71.691 16.6 72.309 16.8585 72.8168 17.3364L75.5582 14.4236C74.2527 13.1949 72.6307 12.6 70.8275 12.6V16.6ZM72.8168 17.3364C73.4633 17.9449 73.9785 18.7394 74.338 19.7755L78.117 18.4645C77.5698 16.8872 76.725 15.5218 75.5582 14.4236L72.8168 17.3364ZM74.338 19.7755C74.718 20.8708 74.9075 21.9959 74.9075 23.16H78.9075C78.9075 21.5508 78.6437 19.9825 78.117 18.4645L74.338 19.7755ZM74.9075 23.16V59H78.9075V23.16H74.9075ZM76.9075 57H68.8275V61H76.9075V57ZM70.8275 59V24.76H66.8275V59H70.8275ZM70.8275 24.76C70.8275 23.7973 70.686 22.5802 69.9143 21.6681L66.8607 24.2519C66.7486 24.1194 66.7498 24.0429 66.7747 24.1449C66.7987 24.2432 66.8275 24.4374 66.8275 24.76H70.8275ZM69.9143 21.6681C69.0772 20.6788 67.8768 20.44 66.9075 20.44V24.44C66.9987 24.44 67.0617 24.4458 67.1009 24.4515C67.1401 24.4572 67.1487 24.4619 67.1345 24.4569C67.1194 24.4516 67.0799 24.4358 67.0271 24.4009C66.9731 24.3652 66.9147 24.3157 66.8607 24.2519L69.9143 21.6681ZM66.9075 20.44C65.7737 20.44 64.7631 20.876 63.9733 21.6658L66.8017 24.4942C66.8271 24.4688 66.8448 24.4555 66.8536 24.4495C66.862 24.4436 66.8651 24.4426 66.8636 24.4433C66.862 24.4439 66.8619 24.4437 66.8655 24.443C66.8695 24.4422 66.8826 24.44 66.9075 24.44V20.44ZM63.9733 21.6658C63.4481 22.1909 62.9819 22.797 62.567 23.4673L65.968 25.5727C66.2464 25.123 66.5269 24.7691 66.8017 24.4942L63.9733 21.6658ZM62.2675 24.52V59H66.2675V24.52H62.2675ZM64.2675 57H56.1875V61H64.2675V57ZM82.875 55.96L81.2963 57.1879L81.303 57.1965L81.3098 57.205L82.875 55.96ZM80.755 51.72L78.8284 52.2569L78.8325 52.2715L78.8368 52.286L80.755 51.72ZM80.075 46.28V44.28H78.075V46.28H80.075ZM87.595 46.28H89.595V44.28H87.595V46.28ZM88.435 50.96L86.591 51.7345L86.6005 51.7569L86.6105 51.7792L88.435 50.96ZM92.395 43.48L90.7787 44.658L90.79 44.6735L90.8016 44.6888L92.395 43.48ZM88.795 39.28L87.3896 40.703L87.3961 40.7093L88.795 39.28ZM83.395 32.96L81.7408 34.084L81.7457 34.0913L81.7506 34.0984L83.395 32.96ZM83.875 17.64L82.3551 16.3401L83.875 17.64ZM96.115 15.36L95.3919 17.2248L95.4046 17.2296L96.115 15.36ZM99.315 17.64L100.885 16.4007V16.4007L99.315 17.64ZM101.035 21.36L99.0886 21.82L99.0926 21.8367L99.0968 21.8534L101.035 21.36ZM101.595 26.44V28.44H103.595V26.44H101.595ZM94.075 26.44H92.075V28.44H94.075V26.44ZM89.395 22.56L91.1839 23.4544L91.1897 23.4428L91.1953 23.4311L89.395 22.56ZM89.835 29.56L88.1235 30.5948L88.1378 30.6184L88.1526 30.6415L89.835 29.56ZM93.395 33.68L91.9923 35.1057L91.9993 35.1125L93.395 33.68ZM99.075 40.16L97.4705 41.354L97.475 41.36L97.4795 41.3659L99.075 40.16ZM100.955 52.48L99.0542 51.8579L99.0491 51.8736L99.0442 51.8894L100.955 52.48ZM98.915 56.28L97.3911 54.9847L97.3816 54.9959L97.3723 55.0072L98.915 56.28ZM95.675 58.76L94.8417 56.9419L94.8344 56.9452L94.8271 56.9486L95.675 58.76ZM91.355 57.64C89.6849 57.64 88.3236 57.3578 87.22 56.8581L85.57 60.5019C87.2931 61.2822 89.2384 61.64 91.355 61.64V57.64ZM87.22 56.8581C86.0853 56.3442 85.1691 55.6312 84.4402 54.715L81.3098 57.205C82.4476 58.6354 83.8781 59.7358 85.57 60.5019L87.22 56.8581ZM84.4537 54.7321C83.6907 53.7511 83.0906 52.5684 82.6732 51.154L78.8368 52.286C79.3794 54.1249 80.1926 55.7689 81.2963 57.1879L84.4537 54.7321ZM82.6816 51.1831C82.285 49.7599 82.075 48.1309 82.075 46.28H78.075C78.075 48.4291 78.3184 50.4268 78.8284 52.2569L82.6816 51.1831ZM80.075 48.28H87.595V44.28H80.075V48.28ZM85.595 46.28C85.595 48.2719 85.9069 50.1055 86.591 51.7345L90.279 50.1855C89.8431 49.1478 89.595 47.8615 89.595 46.28H85.595ZM86.6105 51.7792C87.023 52.698 87.6305 53.5134 88.4904 54.0906C89.3569 54.6723 90.3432 54.92 91.355 54.92V50.92C91.0068 50.92 90.8264 50.8411 90.7196 50.7694C90.6062 50.6932 90.4337 50.5287 90.2595 50.1408L86.6105 51.7792ZM91.355 54.92C92.2156 54.92 93.1067 54.7386 93.8939 54.2276C94.7004 53.7041 95.2256 52.9462 95.5219 52.103L91.7481 50.777C91.72 50.8569 91.6976 50.8874 91.6958 50.8898C91.6946 50.8914 91.6965 50.8887 91.7015 50.884C91.7066 50.8792 91.7119 50.8751 91.7161 50.8724C91.7433 50.8548 91.6677 50.92 91.355 50.92V54.92ZM95.5219 52.103C95.9581 50.8617 96.155 49.497 96.155 48.04H92.155C92.155 49.143 92.0053 50.045 91.7481 50.777L95.5219 52.103ZM96.155 48.04C96.155 45.9949 95.3461 44.061 93.9884 42.2712L90.8016 44.6888C91.7905 45.9923 92.155 47.0985 92.155 48.04H96.155ZM94.0113 42.302C92.8063 40.6487 91.5347 39.1629 90.1939 37.8507L87.3961 40.7093C88.562 41.8505 89.6904 43.1647 90.7787 44.658L94.0113 42.302ZM90.2004 37.857C88.1118 35.7942 86.3964 33.7817 85.0394 31.8216L81.7506 34.0984C83.2736 36.2983 85.1582 38.4991 87.3896 40.703L90.2004 37.857ZM85.0492 31.836C83.8864 30.1246 83.275 28.0864 83.275 25.64H79.275C79.275 28.7936 80.0769 31.6354 81.7408 34.084L85.0492 31.836ZM83.275 25.64C83.275 22.6916 84.0405 20.5235 85.3949 18.9399L82.3551 16.3401C80.2428 18.8098 79.275 21.975 79.275 25.64H83.275ZM85.3949 18.9399C86.6721 17.4466 88.5312 16.6 91.275 16.6V12.6C87.6188 12.6 84.5446 13.78 82.3551 16.3401L85.3949 18.9399ZM91.275 16.6C93.0331 16.6 94.3839 16.8339 95.3919 17.2247L96.8381 13.4953C95.2327 12.8728 93.3569 12.6 91.275 12.6V16.6ZM95.4046 17.2296C96.4362 17.6216 97.1924 18.179 97.7452 18.8793L100.885 16.4007C99.8376 15.0743 98.4605 14.1117 96.8254 13.4904L95.4046 17.2296ZM97.7452 18.8793C98.3365 19.6282 98.798 20.5903 99.0886 21.82L102.981 20.8999C102.579 19.1964 101.894 17.6784 100.885 16.4007L97.7452 18.8793ZM99.0968 21.8534C99.4198 23.1224 99.595 24.6442 99.595 26.44H103.595C103.595 24.3958 103.397 22.5309 102.973 20.8666L99.0968 21.8534ZM101.595 24.44H94.075V28.44H101.595V24.44ZM96.075 26.44C96.075 24.9206 95.9152 23.5244 95.5561 22.2839L91.7139 23.3961C91.9414 24.1823 92.075 25.1861 92.075 26.44H96.075ZM95.5561 22.2839C95.3059 21.4194 94.8144 20.6159 94.0019 20.0545C93.2099 19.5074 92.3008 19.32 91.435 19.32V23.32C91.7425 23.32 91.7868 23.386 91.7281 23.3455C91.7008 23.3266 91.682 23.3046 91.6751 23.2944C91.6707 23.2878 91.69 23.3136 91.7139 23.3961L95.5561 22.2839ZM91.435 19.32C90.6645 19.32 89.8783 19.4881 89.1662 19.921C88.4486 20.3571 87.936 20.9834 87.5947 21.6889L91.1953 23.4311C91.2269 23.3659 91.2499 23.3376 91.2557 23.3311C91.26 23.326 91.2555 23.332 91.2438 23.339C91.2326 23.3459 91.2329 23.3427 91.2563 23.3369C91.2816 23.3305 91.338 23.32 91.435 23.32V19.32ZM87.6061 21.6656C87.023 22.8318 86.795 24.1932 86.795 25.64H90.795C90.795 24.5801 90.967 23.8882 91.1839 23.4544L87.6061 21.6656ZM86.795 25.64C86.795 27.4358 87.2238 29.1069 88.1235 30.5948L91.5465 28.5252C91.0595 27.7198 90.795 26.7775 90.795 25.64H86.795ZM88.1526 30.6415C88.9907 31.9451 90.2988 33.4395 91.9923 35.1057L94.7977 32.2543C93.1845 30.6672 92.1193 29.4149 91.5174 28.4785L88.1526 30.6415ZM91.9993 35.1125C94.0047 37.0665 95.828 39.1469 97.4705 41.354L100.679 38.966C98.9086 36.5864 96.9453 34.3469 94.7907 32.2475L91.9993 35.1125ZM97.4795 41.3659C98.9692 43.3369 99.675 45.4122 99.675 47.64H103.675C103.675 44.4812 102.647 41.5697 100.671 38.9541L97.4795 41.3659ZM99.675 47.64C99.675 49.2179 99.46 50.618 99.0542 51.8579L102.856 53.1021C103.41 51.4086 103.675 49.5821 103.675 47.64H99.675ZM99.0442 51.8894C98.663 53.1225 98.1062 54.1435 97.3911 54.9847L100.439 57.5753C101.537 56.2832 102.34 54.7708 102.866 53.0706L99.0442 51.8894ZM97.3723 55.0072C96.6881 55.8365 95.8522 56.4787 94.8417 56.9419L96.5083 60.5781C98.0578 59.868 99.3819 58.8568 100.458 57.5528L97.3723 55.0072ZM94.8271 56.9486C93.8818 57.3911 92.7396 57.64 91.355 57.64V61.64C93.2237 61.64 94.9616 61.3022 96.5229 60.5714L94.8271 56.9486ZM119.643 58.4L118.317 59.8972L119.643 58.4ZM117.523 55.2L115.641 55.8775L115.646 55.8896L117.523 55.2ZM117.483 19.08L115.606 18.3904L115.6 18.4074L115.594 18.4245L117.483 19.08ZM119.603 15.88L120.929 17.3772L120.941 17.3667L120.953 17.3561L119.603 15.88ZM126.243 15.64L127.296 13.9395V13.9395L126.243 15.64ZM129.443 18.12L128.068 19.5719L131.443 22.7697V18.12H129.443ZM129.443 0.199999V-1.8H127.443V0.199999H129.443ZM137.523 0.199999H139.523V-1.8H137.523V0.199999ZM137.523 59V61H139.523V59H137.523ZM129.443 59H127.443V61H129.443V59ZM129.443 56.12H131.443V51.7125L128.126 54.6148L129.443 56.12ZM126.283 58.6L127.393 60.2641L127.407 60.2544L127.422 60.2444L126.283 58.6ZM128.603 51.28L127.261 49.7969L127.243 49.8132L127.226 49.83L128.603 51.28ZM128.603 23.04L127.155 24.4193L127.172 24.437L127.189 24.4542L128.603 23.04ZM125.443 22.96L127.022 24.1879L127.038 24.1673L127.053 24.1464L125.443 22.96ZM125.443 51.28L123.833 52.4664L125.443 51.28ZM123.043 57.64C122.162 57.64 121.51 57.3819 120.969 56.9028L118.317 59.8972C119.643 61.0714 121.258 61.64 123.043 61.64V57.64ZM120.969 56.9028C120.311 56.3202 119.78 55.5432 119.4 54.5104L115.646 55.8896C116.226 57.4701 117.108 58.8265 118.317 59.8972L120.969 56.9028ZM119.405 54.5226C119.003 53.4059 118.803 52.2618 118.803 51.08H114.803C114.803 52.7249 115.083 54.3274 115.641 55.8774L119.405 54.5226ZM118.803 51.08V23.16H114.803V51.08H118.803ZM118.803 23.16C118.803 21.9649 118.994 20.8268 119.373 19.7355L115.594 18.4245C115.066 19.9466 114.803 21.5285 114.803 23.16H118.803ZM119.36 19.7696C119.74 18.7368 120.271 17.9598 120.929 17.3772L118.277 14.3828C117.068 15.4535 116.186 16.8099 115.606 18.3904L119.36 19.7696ZM120.953 17.3561C121.488 16.8665 122.142 16.6 123.043 16.6V12.6C121.225 12.6 119.585 13.1868 118.254 14.4039L120.953 17.3561ZM123.043 16.6C123.588 16.6 124.294 16.7853 125.19 17.3405L127.296 13.9395C125.953 13.108 124.524 12.6 123.043 12.6V16.6ZM125.19 17.3405C126.188 17.9581 127.147 18.7 128.068 19.5719L130.819 16.6681C129.712 15.62 128.538 14.7086 127.296 13.9395L125.19 17.3405ZM131.443 18.12V0.199999H127.443V18.12H131.443ZM129.443 2.2H137.523V-1.8H129.443V2.2ZM135.523 0.199999V59H139.523V0.199999H135.523ZM137.523 57H129.443V61H137.523V57ZM131.443 59V56.12H127.443V59H131.443ZM128.126 54.6148C127.11 55.5043 126.116 56.2834 125.145 56.9556L127.422 60.2444C128.531 59.4766 129.643 58.6024 130.76 57.6252L128.126 54.6148ZM125.174 56.9359C124.423 57.4366 123.723 57.64 123.043 57.64V61.64C124.603 61.64 126.064 61.1501 127.393 60.2641L125.174 56.9359ZM126.883 54.04C128.108 54.04 129.154 53.515 129.981 52.73L127.226 49.83C126.985 50.0583 126.885 50.04 126.883 50.04V54.04ZM129.945 52.7631C130.919 51.8822 131.443 50.7191 131.443 49.4H127.443C127.443 49.5742 127.408 49.6645 127.261 49.7969L129.945 52.7631ZM131.443 49.4V24.84H127.443V49.4H131.443ZM131.443 24.84C131.443 23.5495 130.858 22.4665 130.017 21.6258L127.189 24.4542C127.336 24.6008 127.397 24.7039 127.421 24.7558C127.442 24.8003 127.443 24.8225 127.443 24.84H131.443ZM130.051 21.6607C129.245 20.8141 128.179 20.2 126.883 20.2V24.2C126.884 24.2 126.883 24.2 126.881 24.1998C126.879 24.1996 126.877 24.1993 126.876 24.199C126.874 24.1984 126.879 24.1993 126.895 24.2071C126.929 24.2234 127.018 24.276 127.155 24.4193L130.051 21.6607ZM126.883 20.2C125.609 20.2 124.551 20.7987 123.833 21.7736L127.053 24.1464C127.09 24.0971 127.083 24.124 127.017 24.1588C126.986 24.1749 126.954 24.1865 126.925 24.1934C126.897 24.2001 126.881 24.2 126.883 24.2V20.2ZM123.864 21.7321C123.151 22.649 122.883 23.7444 122.883 24.84H126.883C126.883 24.3889 126.988 24.231 127.022 24.1879L123.864 21.7321ZM122.883 24.84V49.4H126.883V24.84H122.883ZM122.883 49.4C122.883 50.4916 123.162 51.5554 123.833 52.4664L127.053 50.0936C126.978 49.9912 126.883 49.8017 126.883 49.4H122.883ZM123.833 52.4664C124.551 53.4413 125.609 54.04 126.883 54.04V50.04C126.881 50.04 126.897 50.0399 126.925 50.0466C126.954 50.0535 126.986 50.0651 127.017 50.0812C127.083 50.116 127.09 50.1429 127.053 50.0936L123.833 52.4664ZM145.188 56.32L143.658 57.6077L143.666 57.6169L145.188 56.32ZM145.188 17.88L146.711 19.177L146.718 19.1677L145.188 17.88ZM160.348 17.88L158.818 19.1677L158.826 19.1778L158.835 19.1877L160.348 17.88ZM160.348 56.32L158.827 55.0215L158.826 55.0231L160.348 56.32ZM154.948 51.28L156.748 52.1511L156.754 52.14L156.759 52.1289L154.948 51.28ZM154.948 22.88L153.148 23.7511L154.948 22.88ZM150.628 22.88L148.828 22.0089V22.0089L150.628 22.88ZM150.628 51.28L148.828 52.1511L150.628 51.28ZM152.788 57.56C150.058 57.56 148.116 56.6729 146.711 55.0231L143.666 57.6169C145.94 60.2871 149.065 61.56 152.788 61.56V57.56ZM146.718 55.0323C145.231 53.2646 144.428 50.9847 144.428 48.04H140.428C140.428 51.7619 141.465 55.002 143.658 57.6077L146.718 55.0323ZM144.428 48.04V26.12H140.428V48.04H144.428ZM144.428 26.12C144.428 23.1746 145.231 20.9137 146.711 19.1769L143.666 16.5831C141.465 19.1663 140.428 22.3988 140.428 26.12H144.428ZM146.718 19.1677C148.127 17.4942 150.066 16.6 152.788 16.6V12.6C149.057 12.6 145.93 13.8925 143.658 16.5923L146.718 19.1677ZM152.788 16.6C155.477 16.6 157.406 17.4901 158.818 19.1677L161.878 16.5923C159.61 13.8965 156.499 12.6 152.788 12.6V16.6ZM158.835 19.1877C160.336 20.9248 161.148 23.1818 161.148 26.12H165.148C165.148 22.3915 164.093 19.1552 161.861 16.5723L158.835 19.1877ZM161.148 26.12V48.04H165.148V26.12H161.148ZM161.148 48.04C161.148 50.9775 160.336 53.2535 158.827 55.0215L161.869 57.6185C164.093 55.0131 165.148 51.7692 165.148 48.04H161.148ZM158.826 55.0231C157.417 56.6769 155.486 57.56 152.788 57.56V61.56C156.49 61.56 159.599 60.2831 161.871 57.6169L158.826 55.0231ZM152.788 54.52C153.57 54.52 154.373 54.3639 155.104 53.9445C155.85 53.5164 156.393 52.8865 156.748 52.1511L153.148 50.4089C153.122 50.4616 153.105 50.4808 153.104 50.4819C153.103 50.4829 153.104 50.4817 153.107 50.4794C153.11 50.4772 153.112 50.4758 153.112 50.4755C153.123 50.4694 153.046 50.52 152.788 50.52V54.52ZM156.759 52.1289C157.322 50.9279 157.548 49.5336 157.548 48.04H153.548C153.548 49.1597 153.374 49.9254 153.137 50.4311L156.759 52.1289ZM157.548 48.04V26.12H153.548V48.04H157.548ZM157.548 26.12C157.548 24.6111 157.326 23.2015 156.748 22.0089L153.148 23.7511C153.371 24.2118 153.548 24.9623 153.548 26.12H157.548ZM156.748 22.0089C156.393 21.2735 155.85 20.6436 155.104 20.2155C154.373 19.7961 153.57 19.64 152.788 19.64V23.64C153.046 23.64 153.123 23.6906 153.112 23.6845C153.112 23.6842 153.11 23.6828 153.107 23.6806C153.104 23.6783 153.103 23.6771 153.104 23.6781C153.105 23.6792 153.122 23.6984 153.148 23.7511L156.748 22.0089ZM152.788 19.64C152.006 19.64 151.203 19.7961 150.472 20.2155C149.727 20.6436 149.184 21.2735 148.828 22.0089L152.428 23.7511C152.454 23.6984 152.471 23.6792 152.472 23.6781C152.473 23.6771 152.472 23.6783 152.469 23.6806C152.467 23.6828 152.464 23.6842 152.464 23.6845C152.453 23.6906 152.53 23.64 152.788 23.64V19.64ZM148.828 22.0089C148.251 23.2015 148.028 24.6111 148.028 26.12H152.028C152.028 24.9623 152.206 24.2118 152.428 23.7511L148.828 22.0089ZM148.028 26.12V48.04H152.028V26.12H148.028ZM148.028 48.04C148.028 49.5489 148.251 50.9585 148.828 52.1511L152.428 50.4089C152.206 49.9482 152.028 49.1977 152.028 48.04H148.028ZM148.828 52.1511C149.184 52.8865 149.727 53.5164 150.472 53.9445C151.203 54.3639 152.006 54.52 152.788 54.52V50.52C152.53 50.52 152.453 50.4694 152.464 50.4755C152.464 50.4758 152.467 50.4772 152.469 50.4794C152.472 50.4817 152.473 50.4829 152.472 50.4819C152.471 50.4808 152.454 50.4616 152.428 50.4089L148.828 52.1511ZM180.278 59H178.278V61H180.278V59ZM180.278 0.199999V-1.8H178.278V0.199999H180.278ZM188.918 0.199999H190.918V-1.8H188.918V0.199999ZM188.918 20.76H186.918V22.76H188.918V20.76ZM189.238 20.76V22.76H190.571L191.084 21.5292L189.238 20.76ZM189.638 19.8L191.484 20.5692L191.509 20.5097L191.53 20.4486L189.638 19.8ZM196.358 0.199999V-1.8H194.93L194.466 -0.448649L196.358 0.199999ZM205.238 0.199999L207.089 0.957265L208.217 -1.8H205.238V0.199999ZM197.318 19.56L195.467 18.8027L195.228 19.3872L195.368 20.0031L197.318 19.56ZM206.278 59V61H208.783L208.228 58.5569L206.278 59ZM197.398 59L195.443 59.4203L195.782 61H197.398V59ZM191.638 32.2L193.593 31.7797L193.254 30.2H191.638V32.2ZM191.398 32.2V30.2H190.061L189.55 31.436L191.398 32.2ZM188.918 38.2L187.07 37.436L186.918 37.803V38.2H188.918ZM188.918 59V61H190.918V59H188.918ZM182.278 59V0.199999H178.278V59H182.278ZM180.278 2.2H188.918V-1.8H180.278V2.2ZM186.918 0.199999V19.8H190.918V0.199999H186.918ZM186.918 19.8V20.76H190.918V19.8H186.918ZM188.918 22.76H189.238V18.76H188.918V22.76ZM191.084 21.5292L191.484 20.5692L187.792 19.0308L187.392 19.9908L191.084 21.5292ZM191.53 20.4486L198.25 0.848647L194.466 -0.448649L187.746 19.1514L191.53 20.4486ZM196.358 2.2H205.238V-1.8H196.358V2.2ZM203.387 -0.557267L195.467 18.8027L199.169 20.3173L207.089 0.957265L203.387 -0.557267ZM195.368 20.0031L204.328 59.4431L208.228 58.5569L199.268 19.1169L195.368 20.0031ZM206.278 57H197.398V61H206.278V57ZM199.353 58.5797L193.593 31.7797L189.683 32.6203L195.443 59.4203L199.353 58.5797ZM191.638 30.2H191.398V34.2H191.638V30.2ZM189.55 31.436L187.07 37.436L190.766 38.964L193.246 32.964L189.55 31.436ZM186.918 38.2V59H190.918V38.2H186.918ZM188.918 57H180.278V61H188.918V57ZM209.478 59H207.478V61H209.478V59ZM209.478 15.24V13.24H207.478V15.24H209.478ZM217.558 15.24H219.558V13.24H217.558V15.24ZM217.558 59V61H219.558V59H217.558ZM209.478 8.28H207.478V10.28H209.478V8.28ZM209.478 0.199999V-1.8H207.478V0.199999H209.478ZM217.558 0.199999H219.558V-1.8H217.558V0.199999ZM217.558 8.28V10.28H219.558V8.28H217.558ZM211.478 59V15.24H207.478V59H211.478ZM209.478 17.24H217.558V13.24H209.478V17.24ZM215.558 15.24V59H219.558V15.24H215.558ZM217.558 57H209.478V61H217.558V57ZM211.478 8.28V0.199999H207.478V8.28H211.478ZM209.478 2.2H217.558V-1.8H209.478V2.2ZM215.558 0.199999V8.28H219.558V0.199999H215.558ZM217.558 6.28H209.478V10.28H217.558V6.28ZM227.616 57.96L228.903 56.4286L227.616 57.96ZM224.856 53.16L222.907 53.6097L222.91 53.6215L222.913 53.6333L224.856 53.16ZM224.136 22.52H226.136V20.52H224.136V22.52ZM220.056 22.52H218.056V24.52H220.056V22.52ZM220.056 15.24V13.24H218.056V15.24H220.056ZM224.136 15.24V17.24H226.136V15.24H224.136ZM224.136 4.44V2.44H222.136V4.44H224.136ZM232.216 4.44H234.216V2.44H232.216V4.44ZM232.216 15.24H230.216V17.24H232.216V15.24ZM237.776 15.24H239.776V13.24H237.776V15.24ZM237.776 22.52V24.52H239.776V22.52H237.776ZM232.216 22.52V20.52H230.216V22.52H232.216ZM232.976 50.68L231.271 51.7251L231.279 51.7377L231.287 51.7501L232.976 50.68ZM236.776 51.76L236.384 49.7988L236.371 49.8015L236.357 49.8044L236.776 51.76ZM237.736 51.48H239.736V48.4025L236.924 49.6524L237.736 51.48ZM237.736 58.88L238.479 60.737L239.736 60.2341V58.88H237.736ZM235.976 59.4L235.568 57.442L235.52 57.4522L235.471 57.4648L235.976 59.4ZM233.416 57.64C231.145 57.64 229.743 57.1344 228.903 56.4286L226.33 59.4914C228.156 61.0256 230.621 61.64 233.416 61.64V57.64ZM228.903 56.4286C227.964 55.6401 227.229 54.4497 226.799 52.6867L222.913 53.6333C223.497 56.0303 224.602 58.0399 226.33 59.4914L228.903 56.4286ZM226.805 52.7103C226.369 50.8187 226.136 48.4974 226.136 45.72H222.136C222.136 48.7026 222.384 51.3413 222.907 53.6097L226.805 52.7103ZM226.136 45.72V22.52H222.136V45.72H226.136ZM224.136 20.52H220.056V24.52H224.136V20.52ZM222.056 22.52V15.24H218.056V22.52H222.056ZM220.056 17.24H224.136V13.24H220.056V17.24ZM226.136 15.24V4.44H222.136V15.24H226.136ZM224.136 6.44H232.216V2.44H224.136V6.44ZM230.216 4.44V15.24H234.216V4.44H230.216ZM232.216 17.24H237.776V13.24H232.216V17.24ZM235.776 15.24V22.52H239.776V15.24H235.776ZM237.776 20.52H232.216V24.52H237.776V20.52ZM230.216 22.52V46.88H234.216V22.52H230.216ZM230.216 46.88C230.216 48.7115 230.475 50.4261 231.271 51.7251L234.681 49.6349C234.464 49.2805 234.216 48.4619 234.216 46.88H230.216ZM231.287 51.7501C232.241 53.2575 233.791 53.88 235.456 53.88V49.88C234.828 49.88 234.725 49.7025 234.666 49.6099L231.287 51.7501ZM235.456 53.88C236.061 53.88 236.648 53.8329 237.195 53.7156L236.357 49.8044C236.158 49.8471 235.865 49.88 235.456 49.88V53.88ZM237.168 53.7212C237.643 53.6263 238.121 53.4975 238.549 53.3076L236.924 49.6524C236.871 49.6759 236.71 49.7337 236.384 49.7988L237.168 53.7212ZM235.736 51.48V58.88H239.736V51.48H235.736ZM236.993 57.023C236.582 57.1875 236.109 57.3293 235.568 57.442L236.384 61.358C237.123 61.204 237.824 60.9991 238.479 60.737L236.993 57.023ZM235.471 57.4648C235.1 57.5617 234.443 57.64 233.416 57.64V61.64C234.576 61.64 235.626 61.5583 236.481 61.3352L235.471 57.4648Z" fill="#DE299C" mask="url(#path-1-outside-1_4_624)"/>
</g>
<defs>
<filter id="filter0_d_4_624" x="0.200195" y="0.200012" width="241.576" height="63.44" filterUnits="userSpaceOnUse" color-interpolation-filters="sRGB">
<feFlood flood-opacity="0" result="BackgroundImageFix"/>
<feColorMatrix in="SourceAlpha" type="matrix" values="0 0 0 0 0 0 0 0 0 0 0 0 0 0 0 0 0 0 127 0" result="hardAlpha"/>
<feOffset dx="4" dy="4"/>
<feComposite in2="hardAlpha" operator="out"/>
<feColorMatrix type="matrix" values="0 0 0 0 0.870588 0 0 0 0 0.160784 0 0 0 0 0.611765 0 0 0 1 0"/>
<feBlend mode="normal" in2="BackgroundImageFix" result="effect1_dropShadow_4_624"/>
<feBlend mode="normal" in="SourceGraphic" in2="effect1_dropShadow_4_624" result="shape"/>
</filter>
</defs>
</svg>
