<svg width="341" height="65" viewBox="0 0 341 65" fill="none" xmlns="http://www.w3.org/2000/svg">
<g filter="url(#filter0_d_5_681)">
<mask id="path-1-outside-1_5_681" maskUnits="userSpaceOnUse" x="-2" y="-2" width="341" height="65" fill="black">
<rect fill="white" x="-2" y="-2" width="341" height="65"/>
<path d="M12.32 60.64C9.92 60.64 7.85333 60.08 6.12 58.96C4.41333 57.84 3.09333 56.32 2.16 54.4C1.25333 52.48 0.8 50.32 0.8 47.92V13.28C0.8 10.8533 1.25333 8.69333 2.16 6.8C3.09333 4.88 4.41333 3.36 6.12 2.24C7.85333 1.12 9.92 0.559998 12.32 0.559998C14.72 0.559998 16.7733 1.12 18.48 2.24C20.2133 3.36 21.5333 4.88 22.44 6.8C23.3733 8.72 23.84 10.88 23.84 13.28V47.92C23.84 50.32 23.3733 52.48 22.44 54.4C21.5333 56.32 20.2133 57.84 18.48 58.96C16.7733 60.08 14.72 60.64 12.32 60.64ZM12.32 52.24C13.3867 52.24 14.1333 51.8 14.56 50.92C14.9867 50.0133 15.2 49.0133 15.2 47.92V13.28C15.2 12.1867 14.9733 11.2 14.52 10.32C14.0667 9.41333 13.3333 8.96 12.32 8.96C11.3333 8.96 10.6 9.41333 10.12 10.32C9.66667 11.2 9.44 12.1867 9.44 13.28V47.92C9.44 49.0133 9.66667 50.0133 10.12 50.92C10.5733 51.8 11.3067 52.24 12.32 52.24ZM34.7519 60.64C33.4185 60.64 32.2985 60.2133 31.3919 59.36C30.4852 58.5067 29.8052 57.4267 29.3519 56.12C28.8985 54.7867 28.6719 53.44 28.6719 52.08V16.24H36.7519V50.48C36.7519 51.3067 36.8985 51.9067 37.1919 52.28C37.5119 52.6267 38.0052 52.8 38.6719 52.8C39.2585 52.8 39.7519 52.6 40.1519 52.2C40.5785 51.7733 40.9652 51.28 41.3119 50.72V16.24H49.3919V60H41.3119V56.32C40.3519 57.2267 39.2719 58.1733 38.0719 59.16C36.8719 60.1467 35.7652 60.64 34.7519 60.64ZM64.7288 60.64C62.1954 60.64 60.2621 60.08 58.9288 58.96C57.5954 57.84 56.6754 56.24 56.1688 54.16C55.6888 52.08 55.4488 49.6 55.4488 46.72V23.52H51.3688V16.24H55.4488V5.44H63.5288V16.24H69.0888V23.52H63.5288V47.88C63.5288 49.5867 63.7821 50.8533 64.2888 51.68C64.7954 52.48 65.6221 52.88 66.7688 52.88C67.2754 52.88 67.7154 52.84 68.0888 52.76C68.4888 52.68 68.8088 52.5867 69.0488 52.48V59.88C68.5154 60.0933 67.9288 60.2667 67.2888 60.4C66.6754 60.56 65.8221 60.64 64.7288 60.64ZM71.4844 60V16.24H79.5644V21.12C79.7244 20.0533 80.2177 19.1067 81.0444 18.28C81.871 17.4533 82.871 16.8 84.0444 16.32C85.2444 15.84 86.4444 15.6 87.6444 15.6V24.56C87.2977 24.4267 86.9244 24.3467 86.5244 24.32C86.151 24.2667 85.7777 24.24 85.4044 24.24C83.6444 24.24 82.231 24.72 81.1644 25.68C80.0977 26.64 79.5644 27.9467 79.5644 29.6V60H71.4844ZM96.1238 60.64C94.2571 60.64 92.6438 59.6933 91.2838 57.8C89.9238 55.9067 89.2438 53.0133 89.2438 49.12C89.2438 45.36 90.0438 42.3333 91.6438 40.04C93.2704 37.7467 95.6971 35.76 98.9238 34.08C99.9371 33.5467 100.79 33.0667 101.484 32.64C102.177 32.2133 102.604 31.8133 102.764 31.44V26.64C102.764 25.5467 102.63 24.6133 102.364 23.84C102.124 23.04 101.51 22.64 100.524 22.64C99.6171 22.64 99.0038 23.0667 98.6838 23.92C98.3638 24.7467 98.2038 25.7867 98.2038 27.04V29.12H90.1238V27.28C90.1238 24.88 90.5904 22.8133 91.5238 21.08C92.4838 19.32 93.7771 17.9733 95.4038 17.04C97.0571 16.08 98.9238 15.6 101.004 15.6C103.004 15.6 104.737 16.0667 106.204 17C107.67 17.9067 108.804 19.1733 109.604 20.8C110.43 22.4 110.844 24.24 110.844 26.32V52.4C110.844 54.3467 110.897 55.8667 111.004 56.96C111.11 58.0267 111.244 59.04 111.404 60H103.484C103.137 59.5733 102.924 58.9467 102.844 58.12C102.79 57.2933 102.764 56.7467 102.764 56.48H102.204C101.537 57.7067 100.684 58.7067 99.6438 59.48C98.6304 60.2533 97.4571 60.64 96.1238 60.64ZM99.4038 52.72C100.337 52.72 101.124 52.4 101.764 51.76C102.43 51.12 102.764 50.4267 102.764 49.68V39.28C100.817 40.1067 99.3904 41.36 98.4838 43.04C97.6038 44.6933 97.1638 46.56 97.1638 48.64C97.1638 49.5467 97.3371 50.4533 97.6838 51.36C98.0304 52.2667 98.6038 52.72 99.4038 52.72ZM125.871 60.64C123.977 60.64 122.324 60.32 120.911 59.68C119.497 59.04 118.324 58.1333 117.391 56.96C116.457 55.76 115.751 54.3467 115.271 52.72C114.817 51.0933 114.591 49.28 114.591 47.28H122.111C122.111 49.0667 122.391 50.6267 122.951 51.96C123.537 53.2667 124.511 53.92 125.871 53.92C127.044 53.92 127.804 53.4267 128.151 52.44C128.497 51.4533 128.671 50.32 128.671 49.04C128.671 47.5467 128.084 46.0267 126.911 44.48C125.764 42.9067 124.564 41.5067 123.311 40.28C121.151 38.1467 119.351 36.04 117.911 33.96C116.497 31.88 115.791 29.44 115.791 26.64C115.791 23.3333 116.657 20.6667 118.391 18.64C120.124 16.6133 122.591 15.6 125.791 15.6C127.711 15.6 129.324 15.8533 130.631 16.36C131.964 16.8667 133.031 17.6267 133.831 18.64C134.631 19.6533 135.204 20.8933 135.551 22.36C135.924 23.8267 136.111 25.52 136.111 27.44H128.591C128.591 26.0533 128.444 24.8533 128.151 23.84C127.857 22.8267 127.124 22.32 125.951 22.32C124.991 22.32 124.311 22.7333 123.911 23.56C123.511 24.36 123.311 25.3867 123.311 26.64C123.311 28.1067 123.657 29.4133 124.351 30.56C125.071 31.68 126.257 33.0533 127.911 34.68C129.991 36.7067 131.884 38.8667 133.591 41.16C135.324 43.4533 136.191 45.9467 136.191 48.64C136.191 50.4 135.951 52.0133 135.471 53.48C135.017 54.9467 134.337 56.2133 133.431 57.28C132.551 58.3467 131.471 59.1733 130.191 59.76C128.937 60.3467 127.497 60.64 125.871 60.64ZM157.559 60.64C156.225 60.64 155.092 60.2267 154.159 59.4C153.225 58.5733 152.519 57.5067 152.039 56.2C151.559 54.8667 151.319 53.4933 151.319 52.08V24.16C151.319 22.7467 151.545 21.3867 151.999 20.08C152.479 18.7733 153.185 17.7067 154.119 16.88C155.052 16.0267 156.199 15.6 157.559 15.6C158.572 15.6 159.639 15.9467 160.759 16.64C161.879 17.3333 162.945 18.16 163.959 19.12V1.2H172.039V60H163.959V57.12C162.892 58.0533 161.839 58.88 160.799 59.6C159.759 60.2933 158.679 60.64 157.559 60.64ZM161.399 53.04C162.012 53.04 162.585 52.7867 163.119 52.28C163.679 51.7733 163.959 51.1467 163.959 50.4V25.84C163.959 25.2 163.679 24.6 163.119 24.04C162.585 23.48 162.012 23.2 161.399 23.2C160.812 23.2 160.332 23.4533 159.959 23.96C159.585 24.44 159.399 25.0667 159.399 25.84V50.4C159.399 51.1467 159.585 51.7733 159.959 52.28C160.332 52.7867 160.812 53.04 161.399 53.04ZM183.424 60.64C182.09 60.64 180.97 60.2133 180.064 59.36C179.157 58.5067 178.477 57.4267 178.024 56.12C177.57 54.7867 177.344 53.44 177.344 52.08V16.24H185.424V50.48C185.424 51.3067 185.57 51.9067 185.864 52.28C186.184 52.6267 186.677 52.8 187.344 52.8C187.93 52.8 188.424 52.6 188.824 52.2C189.25 51.7733 189.637 51.28 189.984 50.72V16.24H198.064V60H189.984V56.32C189.024 57.2267 187.944 58.1733 186.744 59.16C185.544 60.1467 184.437 60.64 183.424 60.64ZM183.904 11.04L189.264 3.84H197.664L190.144 11.04H183.904ZM207.751 60L200.631 16.24H208.471L211.191 41.6L211.431 46H212.071L212.311 41.6L215.031 16.24H222.871L215.751 60H207.751ZM225.869 60V16.24H233.949V60H225.869ZM225.869 9.28V1.2H233.949V9.28H225.869ZM244.199 60.64C242.866 60.64 241.733 60.2267 240.799 59.4C239.866 58.5733 239.159 57.5067 238.679 56.2C238.199 54.8667 237.959 53.4933 237.959 52.08V24.16C237.959 22.7467 238.186 21.3867 238.639 20.08C239.119 18.7733 239.826 17.7067 240.759 16.88C241.693 16.0267 242.839 15.6 244.199 15.6C245.213 15.6 246.279 15.9467 247.399 16.64C248.519 17.3333 249.586 18.16 250.599 19.12V1.2H258.679V60H250.599V57.12C249.533 58.0533 248.479 58.88 247.439 59.6C246.399 60.2933 245.319 60.64 244.199 60.64ZM248.039 53.04C248.653 53.04 249.226 52.7867 249.759 52.28C250.319 51.7733 250.599 51.1467 250.599 50.4V25.84C250.599 25.2 250.319 24.6 249.759 24.04C249.226 23.48 248.653 23.2 248.039 23.2C247.453 23.2 246.973 23.4533 246.599 23.96C246.226 24.44 246.039 25.0667 246.039 25.84V50.4C246.039 51.1467 246.226 51.7733 246.599 52.28C246.973 52.7867 247.453 53.04 248.039 53.04ZM270.264 60.64C268.398 60.64 266.784 59.6933 265.424 57.8C264.064 55.9067 263.384 53.0133 263.384 49.12C263.384 45.36 264.184 42.3333 265.784 40.04C267.411 37.7467 269.838 35.76 273.064 34.08C274.078 33.5467 274.931 33.0667 275.624 32.64C276.318 32.2133 276.744 31.8133 276.904 31.44V26.64C276.904 25.5467 276.771 24.6133 276.504 23.84C276.264 23.04 275.651 22.64 274.664 22.64C273.758 22.64 273.144 23.0667 272.824 23.92C272.504 24.7467 272.344 25.7867 272.344 27.04V29.12H264.264V27.28C264.264 24.88 264.731 22.8133 265.664 21.08C266.624 19.32 267.918 17.9733 269.544 17.04C271.198 16.08 273.064 15.6 275.144 15.6C277.144 15.6 278.878 16.0667 280.344 17C281.811 17.9067 282.944 19.1733 283.744 20.8C284.571 22.4 284.984 24.24 284.984 26.32V52.4C284.984 54.3467 285.038 55.8667 285.144 56.96C285.251 58.0267 285.384 59.04 285.544 60H277.624C277.278 59.5733 277.064 58.9467 276.984 58.12C276.931 57.2933 276.904 56.7467 276.904 56.48H276.344C275.678 57.7067 274.824 58.7067 273.784 59.48C272.771 60.2533 271.598 60.64 270.264 60.64ZM273.544 52.72C274.478 52.72 275.264 52.4 275.904 51.76C276.571 51.12 276.904 50.4267 276.904 49.68V39.28C274.958 40.1067 273.531 41.36 272.624 43.04C271.744 44.6933 271.304 46.56 271.304 48.64C271.304 49.5467 271.478 50.4533 271.824 51.36C272.171 52.2667 272.744 52.72 273.544 52.72ZM300.011 60.64C298.118 60.64 296.465 60.32 295.051 59.68C293.638 59.04 292.465 58.1333 291.531 56.96C290.598 55.76 289.891 54.3467 289.411 52.72C288.958 51.0933 288.731 49.28 288.731 47.28H296.251C296.251 49.0667 296.531 50.6267 297.091 51.96C297.678 53.2667 298.651 53.92 300.011 53.92C301.185 53.92 301.945 53.4267 302.291 52.44C302.638 51.4533 302.811 50.32 302.811 49.04C302.811 47.5467 302.225 46.0267 301.051 44.48C299.905 42.9067 298.705 41.5067 297.451 40.28C295.291 38.1467 293.491 36.04 292.051 33.96C290.638 31.88 289.931 29.44 289.931 26.64C289.931 23.3333 290.798 20.6667 292.531 18.64C294.265 16.6133 296.731 15.6 299.931 15.6C301.851 15.6 303.465 15.8533 304.771 16.36C306.105 16.8667 307.171 17.6267 307.971 18.64C308.771 19.6533 309.345 20.8933 309.691 22.36C310.065 23.8267 310.251 25.52 310.251 27.44H302.731C302.731 26.0533 302.585 24.8533 302.291 23.84C301.998 22.8267 301.265 22.32 300.091 22.32C299.131 22.32 298.451 22.7333 298.051 23.56C297.651 24.36 297.451 25.3867 297.451 26.64C297.451 28.1067 297.798 29.4133 298.491 30.56C299.211 31.68 300.398 33.0533 302.051 34.68C304.131 36.7067 306.025 38.8667 307.731 41.16C309.465 43.4533 310.331 45.9467 310.331 48.64C310.331 50.4 310.091 52.0133 309.611 53.48C309.158 54.9467 308.478 56.2133 307.571 57.28C306.691 58.3467 305.611 59.1733 304.331 59.76C303.078 60.3467 301.638 60.64 300.011 60.64ZM321.196 44.16V34.16C321.196 31.7333 321.569 29.4667 322.316 27.36C323.062 25.2267 323.929 23.2267 324.916 21.36C325.929 19.4933 326.809 17.7467 327.556 16.12C328.302 14.4667 328.676 12.92 328.676 11.48C328.676 10.6533 328.436 9.93333 327.956 9.32C327.502 8.70666 326.849 8.4 325.996 8.4C324.689 8.4 323.622 8.96 322.796 10.08C321.969 11.2 321.329 12.5333 320.876 14.08L313.916 10.8C314.449 8.96 315.329 7.29333 316.556 5.8C317.782 4.30667 319.209 3.12 320.836 2.24C322.489 1.33333 324.196 0.879998 325.956 0.879998C328.249 0.879998 330.182 1.36 331.756 2.32C333.329 3.28 334.516 4.6 335.316 6.28C336.142 7.96 336.556 9.89333 336.556 12.08C336.556 14 336.156 15.8133 335.356 17.52C334.556 19.2267 333.636 20.9333 332.596 22.64C331.556 24.32 330.636 26.1067 329.836 28C329.036 29.8667 328.636 31.92 328.636 34.16V44.16H321.196ZM320.716 60V51.12H329.116V60H320.716Z"/>
</mask>
<path d="M12.32 60.64C9.92 60.64 7.85333 60.08 6.12 58.96C4.41333 57.84 3.09333 56.32 2.16 54.4C1.25333 52.48 0.8 50.32 0.8 47.92V13.28C0.8 10.8533 1.25333 8.69333 2.16 6.8C3.09333 4.88 4.41333 3.36 6.12 2.24C7.85333 1.12 9.92 0.559998 12.32 0.559998C14.72 0.559998 16.7733 1.12 18.48 2.24C20.2133 3.36 21.5333 4.88 22.44 6.8C23.3733 8.72 23.84 10.88 23.84 13.28V47.92C23.84 50.32 23.3733 52.48 22.44 54.4C21.5333 56.32 20.2133 57.84 18.48 58.96C16.7733 60.08 14.72 60.64 12.32 60.64ZM12.32 52.24C13.3867 52.24 14.1333 51.8 14.56 50.92C14.9867 50.0133 15.2 49.0133 15.2 47.92V13.28C15.2 12.1867 14.9733 11.2 14.52 10.32C14.0667 9.41333 13.3333 8.96 12.32 8.96C11.3333 8.96 10.6 9.41333 10.12 10.32C9.66667 11.2 9.44 12.1867 9.44 13.28V47.92C9.44 49.0133 9.66667 50.0133 10.12 50.92C10.5733 51.8 11.3067 52.24 12.32 52.24ZM34.7519 60.64C33.4185 60.64 32.2985 60.2133 31.3919 59.36C30.4852 58.5067 29.8052 57.4267 29.3519 56.12C28.8985 54.7867 28.6719 53.44 28.6719 52.08V16.24H36.7519V50.48C36.7519 51.3067 36.8985 51.9067 37.1919 52.28C37.5119 52.6267 38.0052 52.8 38.6719 52.8C39.2585 52.8 39.7519 52.6 40.1519 52.2C40.5785 51.7733 40.9652 51.28 41.3119 50.72V16.24H49.3919V60H41.3119V56.32C40.3519 57.2267 39.2719 58.1733 38.0719 59.16C36.8719 60.1467 35.7652 60.64 34.7519 60.64ZM64.7288 60.64C62.1954 60.64 60.2621 60.08 58.9288 58.96C57.5954 57.84 56.6754 56.24 56.1688 54.16C55.6888 52.08 55.4488 49.6 55.4488 46.72V23.52H51.3688V16.24H55.4488V5.44H63.5288V16.24H69.0888V23.52H63.5288V47.88C63.5288 49.5867 63.7821 50.8533 64.2888 51.68C64.7954 52.48 65.6221 52.88 66.7688 52.88C67.2754 52.88 67.7154 52.84 68.0888 52.76C68.4888 52.68 68.8088 52.5867 69.0488 52.48V59.88C68.5154 60.0933 67.9288 60.2667 67.2888 60.4C66.6754 60.56 65.8221 60.64 64.7288 60.64ZM71.4844 60V16.24H79.5644V21.12C79.7244 20.0533 80.2177 19.1067 81.0444 18.28C81.871 17.4533 82.871 16.8 84.0444 16.32C85.2444 15.84 86.4444 15.6 87.6444 15.6V24.56C87.2977 24.4267 86.9244 24.3467 86.5244 24.32C86.151 24.2667 85.7777 24.24 85.4044 24.24C83.6444 24.24 82.231 24.72 81.1644 25.68C80.0977 26.64 79.5644 27.9467 79.5644 29.6V60H71.4844ZM96.1238 60.64C94.2571 60.64 92.6438 59.6933 91.2838 57.8C89.9238 55.9067 89.2438 53.0133 89.2438 49.12C89.2438 45.36 90.0438 42.3333 91.6438 40.04C93.2704 37.7467 95.6971 35.76 98.9238 34.08C99.9371 33.5467 100.79 33.0667 101.484 32.64C102.177 32.2133 102.604 31.8133 102.764 31.44V26.64C102.764 25.5467 102.63 24.6133 102.364 23.84C102.124 23.04 101.51 22.64 100.524 22.64C99.6171 22.64 99.0038 23.0667 98.6838 23.92C98.3638 24.7467 98.2038 25.7867 98.2038 27.04V29.12H90.1238V27.28C90.1238 24.88 90.5904 22.8133 91.5238 21.08C92.4838 19.32 93.7771 17.9733 95.4038 17.04C97.0571 16.08 98.9238 15.6 101.004 15.6C103.004 15.6 104.737 16.0667 106.204 17C107.67 17.9067 108.804 19.1733 109.604 20.8C110.43 22.4 110.844 24.24 110.844 26.32V52.4C110.844 54.3467 110.897 55.8667 111.004 56.96C111.11 58.0267 111.244 59.04 111.404 60H103.484C103.137 59.5733 102.924 58.9467 102.844 58.12C102.79 57.2933 102.764 56.7467 102.764 56.48H102.204C101.537 57.7067 100.684 58.7067 99.6438 59.48C98.6304 60.2533 97.4571 60.64 96.1238 60.64ZM99.4038 52.72C100.337 52.72 101.124 52.4 101.764 51.76C102.43 51.12 102.764 50.4267 102.764 49.68V39.28C100.817 40.1067 99.3904 41.36 98.4838 43.04C97.6038 44.6933 97.1638 46.56 97.1638 48.64C97.1638 49.5467 97.3371 50.4533 97.6838 51.36C98.0304 52.2667 98.6038 52.72 99.4038 52.72ZM125.871 60.64C123.977 60.64 122.324 60.32 120.911 59.68C119.497 59.04 118.324 58.1333 117.391 56.96C116.457 55.76 115.751 54.3467 115.271 52.72C114.817 51.0933 114.591 49.28 114.591 47.28H122.111C122.111 49.0667 122.391 50.6267 122.951 51.96C123.537 53.2667 124.511 53.92 125.871 53.92C127.044 53.92 127.804 53.4267 128.151 52.44C128.497 51.4533 128.671 50.32 128.671 49.04C128.671 47.5467 128.084 46.0267 126.911 44.48C125.764 42.9067 124.564 41.5067 123.311 40.28C121.151 38.1467 119.351 36.04 117.911 33.96C116.497 31.88 115.791 29.44 115.791 26.64C115.791 23.3333 116.657 20.6667 118.391 18.64C120.124 16.6133 122.591 15.6 125.791 15.6C127.711 15.6 129.324 15.8533 130.631 16.36C131.964 16.8667 133.031 17.6267 133.831 18.64C134.631 19.6533 135.204 20.8933 135.551 22.36C135.924 23.8267 136.111 25.52 136.111 27.44H128.591C128.591 26.0533 128.444 24.8533 128.151 23.84C127.857 22.8267 127.124 22.32 125.951 22.32C124.991 22.32 124.311 22.7333 123.911 23.56C123.511 24.36 123.311 25.3867 123.311 26.64C123.311 28.1067 123.657 29.4133 124.351 30.56C125.071 31.68 126.257 33.0533 127.911 34.68C129.991 36.7067 131.884 38.8667 133.591 41.16C135.324 43.4533 136.191 45.9467 136.191 48.64C136.191 50.4 135.951 52.0133 135.471 53.48C135.017 54.9467 134.337 56.2133 133.431 57.28C132.551 58.3467 131.471 59.1733 130.191 59.76C128.937 60.3467 127.497 60.64 125.871 60.64ZM157.559 60.64C156.225 60.64 155.092 60.2267 154.159 59.4C153.225 58.5733 152.519 57.5067 152.039 56.2C151.559 54.8667 151.319 53.4933 151.319 52.08V24.16C151.319 22.7467 151.545 21.3867 151.999 20.08C152.479 18.7733 153.185 17.7067 154.119 16.88C155.052 16.0267 156.199 15.6 157.559 15.6C158.572 15.6 159.639 15.9467 160.759 16.64C161.879 17.3333 162.945 18.16 163.959 19.12V1.2H172.039V60H163.959V57.12C162.892 58.0533 161.839 58.88 160.799 59.6C159.759 60.2933 158.679 60.64 157.559 60.64ZM161.399 53.04C162.012 53.04 162.585 52.7867 163.119 52.28C163.679 51.7733 163.959 51.1467 163.959 50.4V25.84C163.959 25.2 163.679 24.6 163.119 24.04C162.585 23.48 162.012 23.2 161.399 23.2C160.812 23.2 160.332 23.4533 159.959 23.96C159.585 24.44 159.399 25.0667 159.399 25.84V50.4C159.399 51.1467 159.585 51.7733 159.959 52.28C160.332 52.7867 160.812 53.04 161.399 53.04ZM183.424 60.64C182.09 60.64 180.97 60.2133 180.064 59.36C179.157 58.5067 178.477 57.4267 178.024 56.12C177.57 54.7867 177.344 53.44 177.344 52.08V16.24H185.424V50.48C185.424 51.3067 185.57 51.9067 185.864 52.28C186.184 52.6267 186.677 52.8 187.344 52.8C187.93 52.8 188.424 52.6 188.824 52.2C189.25 51.7733 189.637 51.28 189.984 50.72V16.24H198.064V60H189.984V56.32C189.024 57.2267 187.944 58.1733 186.744 59.16C185.544 60.1467 184.437 60.64 183.424 60.64ZM183.904 11.04L189.264 3.84H197.664L190.144 11.04H183.904ZM207.751 60L200.631 16.24H208.471L211.191 41.6L211.431 46H212.071L212.311 41.6L215.031 16.24H222.871L215.751 60H207.751ZM225.869 60V16.24H233.949V60H225.869ZM225.869 9.28V1.2H233.949V9.28H225.869ZM244.199 60.64C242.866 60.64 241.733 60.2267 240.799 59.4C239.866 58.5733 239.159 57.5067 238.679 56.2C238.199 54.8667 237.959 53.4933 237.959 52.08V24.16C237.959 22.7467 238.186 21.3867 238.639 20.08C239.119 18.7733 239.826 17.7067 240.759 16.88C241.693 16.0267 242.839 15.6 244.199 15.6C245.213 15.6 246.279 15.9467 247.399 16.64C248.519 17.3333 249.586 18.16 250.599 19.12V1.2H258.679V60H250.599V57.12C249.533 58.0533 248.479 58.88 247.439 59.6C246.399 60.2933 245.319 60.64 244.199 60.64ZM248.039 53.04C248.653 53.04 249.226 52.7867 249.759 52.28C250.319 51.7733 250.599 51.1467 250.599 50.4V25.84C250.599 25.2 250.319 24.6 249.759 24.04C249.226 23.48 248.653 23.2 248.039 23.2C247.453 23.2 246.973 23.4533 246.599 23.96C246.226 24.44 246.039 25.0667 246.039 25.84V50.4C246.039 51.1467 246.226 51.7733 246.599 52.28C246.973 52.7867 247.453 53.04 248.039 53.04ZM270.264 60.64C268.398 60.64 266.784 59.6933 265.424 57.8C264.064 55.9067 263.384 53.0133 263.384 49.12C263.384 45.36 264.184 42.3333 265.784 40.04C267.411 37.7467 269.838 35.76 273.064 34.08C274.078 33.5467 274.931 33.0667 275.624 32.64C276.318 32.2133 276.744 31.8133 276.904 31.44V26.64C276.904 25.5467 276.771 24.6133 276.504 23.84C276.264 23.04 275.651 22.64 274.664 22.64C273.758 22.64 273.144 23.0667 272.824 23.92C272.504 24.7467 272.344 25.7867 272.344 27.04V29.12H264.264V27.28C264.264 24.88 264.731 22.8133 265.664 21.08C266.624 19.32 267.918 17.9733 269.544 17.04C271.198 16.08 273.064 15.6 275.144 15.6C277.144 15.6 278.878 16.0667 280.344 17C281.811 17.9067 282.944 19.1733 283.744 20.8C284.571 22.4 284.984 24.24 284.984 26.32V52.4C284.984 54.3467 285.038 55.8667 285.144 56.96C285.251 58.0267 285.384 59.04 285.544 60H277.624C277.278 59.5733 277.064 58.9467 276.984 58.12C276.931 57.2933 276.904 56.7467 276.904 56.48H276.344C275.678 57.7067 274.824 58.7067 273.784 59.48C272.771 60.2533 271.598 60.64 270.264 60.64ZM273.544 52.72C274.478 52.72 275.264 52.4 275.904 51.76C276.571 51.12 276.904 50.4267 276.904 49.68V39.28C274.958 40.1067 273.531 41.36 272.624 43.04C271.744 44.6933 271.304 46.56 271.304 48.64C271.304 49.5467 271.478 50.4533 271.824 51.36C272.171 52.2667 272.744 52.72 273.544 52.72ZM300.011 60.64C298.118 60.64 296.465 60.32 295.051 59.68C293.638 59.04 292.465 58.1333 291.531 56.96C290.598 55.76 289.891 54.3467 289.411 52.72C288.958 51.0933 288.731 49.28 288.731 47.28H296.251C296.251 49.0667 296.531 50.6267 297.091 51.96C297.678 53.2667 298.651 53.92 300.011 53.92C301.185 53.92 301.945 53.4267 302.291 52.44C302.638 51.4533 302.811 50.32 302.811 49.04C302.811 47.5467 302.225 46.0267 301.051 44.48C299.905 42.9067 298.705 41.5067 297.451 40.28C295.291 38.1467 293.491 36.04 292.051 33.96C290.638 31.88 289.931 29.44 289.931 26.64C289.931 23.3333 290.798 20.6667 292.531 18.64C294.265 16.6133 296.731 15.6 299.931 15.6C301.851 15.6 303.465 15.8533 304.771 16.36C306.105 16.8667 307.171 17.6267 307.971 18.64C308.771 19.6533 309.345 20.8933 309.691 22.36C310.065 23.8267 310.251 25.52 310.251 27.44H302.731C302.731 26.0533 302.585 24.8533 302.291 23.84C301.998 22.8267 301.265 22.32 300.091 22.32C299.131 22.32 298.451 22.7333 298.051 23.56C297.651 24.36 297.451 25.3867 297.451 26.64C297.451 28.1067 297.798 29.4133 298.491 30.56C299.211 31.68 300.398 33.0533 302.051 34.68C304.131 36.7067 306.025 38.8667 307.731 41.16C309.465 43.4533 310.331 45.9467 310.331 48.64C310.331 50.4 310.091 52.0133 309.611 53.48C309.158 54.9467 308.478 56.2133 307.571 57.28C306.691 58.3467 305.611 59.1733 304.331 59.76C303.078 60.3467 301.638 60.64 300.011 60.64ZM321.196 44.16V34.16C321.196 31.7333 321.569 29.4667 322.316 27.36C323.062 25.2267 323.929 23.2267 324.916 21.36C325.929 19.4933 326.809 17.7467 327.556 16.12C328.302 14.4667 328.676 12.92 328.676 11.48C328.676 10.6533 328.436 9.93333 327.956 9.32C327.502 8.70666 326.849 8.4 325.996 8.4C324.689 8.4 323.622 8.96 322.796 10.08C321.969 11.2 321.329 12.5333 320.876 14.08L313.916 10.8C314.449 8.96 315.329 7.29333 316.556 5.8C317.782 4.30667 319.209 3.12 320.836 2.24C322.489 1.33333 324.196 0.879998 325.956 0.879998C328.249 0.879998 330.182 1.36 331.756 2.32C333.329 3.28 334.516 4.6 335.316 6.28C336.142 7.96 336.556 9.89333 336.556 12.08C336.556 14 336.156 15.8133 335.356 17.52C334.556 19.2267 333.636 20.9333 332.596 22.64C331.556 24.32 330.636 26.1067 329.836 28C329.036 29.8667 328.636 31.92 328.636 34.16V44.16H321.196ZM320.716 60V51.12H329.116V60H320.716Z" fill="white"/>
<path d="M6.12 58.96L5.02269 60.6321L5.02861 60.636L5.03457 60.6398L6.12 58.96ZM2.16 54.4L0.351503 55.254L0.356326 55.2642L0.361264 55.2744L2.16 54.4ZM2.16 6.8L0.361233 5.9256L0.356162 5.93619L2.16 6.8ZM6.12 2.24L5.03457 0.560161L5.02861 0.56401L5.02269 0.5679L6.12 2.24ZM18.48 2.24L17.3827 3.91209L17.3886 3.91598L17.3946 3.91983L18.48 2.24ZM22.44 6.8L20.6315 7.65401L20.6363 7.66422L20.6413 7.67438L22.44 6.8ZM22.44 54.4L20.6413 53.5256L20.6363 53.5358L20.6315 53.546L22.44 54.4ZM18.48 58.96L17.3946 57.2802L17.3886 57.284L17.3827 57.2879L18.48 58.96ZM14.56 50.92L16.3596 51.7925L16.3647 51.7821L16.3696 51.7716L14.56 50.92ZM14.52 10.32L12.7311 11.2144L12.7365 11.2252L12.7421 11.2359L14.52 10.32ZM10.12 10.32L8.35243 9.38422L8.34718 9.39412L8.34205 9.40408L10.12 10.32ZM10.12 50.92L8.33115 51.8144L8.33653 51.8252L8.34205 51.8359L10.12 50.92ZM12.32 58.64C10.241 58.64 8.56539 58.1589 7.20543 57.2802L5.03457 60.6398C7.14127 62.0011 9.59901 62.64 12.32 62.64V58.64ZM7.21731 57.2879C5.82618 56.375 4.74198 55.1369 3.95874 53.5256L0.361264 55.2744C1.44469 57.5031 3.00049 59.305 5.02269 60.6321L7.21731 57.2879ZM3.9685 53.546C3.20345 51.9259 2.8 50.0633 2.8 47.92H-1.2C-1.2 50.5767 -0.696782 53.0341 0.351503 55.254L3.9685 53.546ZM2.8 47.92V13.28H-1.2V47.92H2.8ZM2.8 13.28C2.8 11.1058 3.205 9.24844 3.96384 7.66381L0.356162 5.93619C-0.698335 8.13823 -1.2 10.6009 -1.2 13.28H2.8ZM3.95874 7.67438C4.74198 6.06314 5.82618 4.82502 7.21731 3.91209L5.02269 0.5679C3.00048 1.89497 1.44469 3.69686 0.361264 5.92561L3.95874 7.67438ZM7.20543 3.91983C8.56539 3.04109 10.241 2.56 12.32 2.56V-1.44C9.59901 -1.44 7.14127 -0.801092 5.03457 0.560161L7.20543 3.91983ZM12.32 2.56C14.3999 2.56 16.0559 3.04137 17.3827 3.91209L19.5773 0.567899C17.4908 -0.801378 15.0401 -1.44 12.32 -1.44V2.56ZM17.3946 3.91983C18.8052 4.8313 19.8793 6.06107 20.6315 7.65401L24.2485 5.94599C23.1874 3.69893 21.6215 1.88869 19.5654 0.560163L17.3946 3.91983ZM20.6413 7.67438C21.4265 9.28978 21.84 11.145 21.84 13.28H25.84C25.84 10.615 25.3201 8.15022 24.2387 5.92561L20.6413 7.67438ZM21.84 13.28V47.92H25.84V13.28H21.84ZM21.84 47.92C21.84 50.055 21.4265 51.9102 20.6413 53.5256L24.2387 55.2744C25.3201 53.0498 25.84 50.585 25.84 47.92H21.84ZM20.6315 53.546C19.8793 55.1389 18.8052 56.3687 17.3946 57.2802L19.5654 60.6398C21.6215 59.3113 23.1874 57.5011 24.2485 55.254L20.6315 53.546ZM17.3827 57.2879C16.0559 58.1586 14.3999 58.64 12.32 58.64V62.64C15.0401 62.64 17.4908 62.0014 19.5773 60.6321L17.3827 57.2879ZM12.32 54.24C13.1285 54.24 13.9507 54.0719 14.6954 53.6331C15.4506 53.188 15.9972 52.5401 16.3596 51.7925L12.7604 50.0475C12.7254 50.1197 12.6975 50.155 12.6852 50.1688C12.6742 50.1812 12.6685 50.1846 12.6646 50.1869C12.6626 50.1881 12.5782 50.24 12.32 50.24V54.24ZM16.3696 51.7716C16.9328 50.575 17.2 49.2806 17.2 47.92H13.2C13.2 48.7461 13.0406 49.4517 12.7504 50.0684L16.3696 51.7716ZM17.2 47.92V13.28H13.2V47.92H17.2ZM17.2 13.28C17.2 11.9019 16.912 10.596 16.298 9.40408L12.7421 11.2359C13.0347 11.804 13.2 12.4715 13.2 13.28H17.2ZM16.3089 9.42557C15.9457 8.69926 15.4161 8.05283 14.6816 7.59881C13.9472 7.14477 13.1321 6.96 12.32 6.96V10.96C12.4243 10.96 12.4895 10.9716 12.5251 10.9809C12.5587 10.9896 12.5731 10.9979 12.5784 11.0012C12.5836 11.0044 12.5976 11.0136 12.6205 11.0399C12.6448 11.0677 12.6844 11.121 12.7311 11.2144L16.3089 9.42557ZM12.32 6.96C11.51 6.96 10.7046 7.14985 9.97836 7.59881C9.25632 8.04515 8.72704 8.67662 8.35243 9.38422L11.8876 11.2558C11.993 11.0567 12.0703 11.0082 12.0816 11.0012C12.0887 10.9968 12.1433 10.96 12.32 10.96V6.96ZM8.34205 9.40408C7.72805 10.596 7.44 11.9019 7.44 13.28H11.44C11.44 12.4715 11.6053 11.804 11.8979 11.2359L8.34205 9.40408ZM7.44 13.28V47.92H11.44V13.28H7.44ZM7.44 47.92C7.44 49.2989 7.72823 50.6086 8.33115 51.8144L11.9089 50.0256C11.6051 49.4181 11.44 48.7278 11.44 47.92H7.44ZM8.34205 51.8359C8.71181 52.5537 9.24761 53.1849 9.98101 53.625C10.7118 54.0634 11.5184 54.24 12.32 54.24V50.24C12.1082 50.24 12.0416 50.1966 12.039 50.195C12.0328 50.1913 12.0201 50.183 11.9998 50.1604C11.9783 50.1365 11.9417 50.0891 11.8979 50.0041L8.34205 51.8359ZM31.3919 59.36L32.7626 57.9036L31.3919 59.36ZM29.3519 56.12L27.4583 56.7638L27.4624 56.7755L29.3519 56.12ZM28.6719 16.24V14.24H26.6719V16.24H28.6719ZM36.7519 16.24H38.7519V14.24H36.7519V16.24ZM37.1919 52.28L35.6192 53.5156L35.6684 53.5781L35.7223 53.6366L37.1919 52.28ZM40.1519 52.2L38.7377 50.7858H38.7377L40.1519 52.2ZM41.3119 50.72L43.0124 51.7727L43.3119 51.289V50.72H41.3119ZM41.3119 16.24V14.24H39.3119V16.24H41.3119ZM49.3919 16.24H51.3919V14.24H49.3919V16.24ZM49.3919 60V62H51.3919V60H49.3919ZM41.3119 60H39.3119V62H41.3119V60ZM41.3119 56.32H43.3119V51.6801L39.9386 54.866L41.3119 56.32ZM38.0719 59.16L39.3421 60.7048L38.0719 59.16ZM34.7519 58.64C33.8884 58.64 33.2704 58.3815 32.7626 57.9036L30.0211 60.8164C31.3267 62.0451 32.9487 62.64 34.7519 62.64V58.64ZM32.7626 57.9036C32.1161 57.2951 31.6009 56.5006 31.2414 55.4645L27.4624 56.7755C28.0096 58.3528 28.8544 59.7182 30.0211 60.8164L32.7626 57.9036ZM31.2454 55.4762C30.86 54.3427 30.6719 53.2133 30.6719 52.08H26.6719C26.6719 53.6667 26.937 55.2306 27.4583 56.7638L31.2454 55.4762ZM30.6719 52.08V16.24H26.6719V52.08H30.6719ZM28.6719 18.24H36.7519V14.24H28.6719V18.24ZM34.7519 16.24V50.48H38.7519V16.24H34.7519ZM34.7519 50.48C34.7519 51.4566 34.9086 52.6112 35.6192 53.5156L38.7645 51.0444C38.8386 51.1387 38.8298 51.1779 38.8047 51.0751C38.7796 50.9727 38.7519 50.7835 38.7519 50.48H34.7519ZM35.7223 53.6366C36.5558 54.5396 37.6832 54.8 38.6719 54.8V50.8C38.591 50.8 38.5349 50.7947 38.4999 50.7895C38.4652 50.7843 38.4555 50.7798 38.4648 50.7831C38.475 50.7866 38.5032 50.7978 38.5417 50.8225C38.581 50.8476 38.6227 50.8814 38.6615 50.9234L35.7223 53.6366ZM38.6719 54.8C39.767 54.8 40.7758 54.4045 41.5661 53.6142L38.7377 50.7858C38.7245 50.799 38.7182 50.803 38.7193 50.8022C38.7206 50.8013 38.7249 50.7988 38.7305 50.7965C38.736 50.7943 38.7368 50.7947 38.7302 50.7959C38.7232 50.7972 38.7046 50.8 38.6719 50.8V54.8ZM41.5661 53.6142C42.1112 53.0691 42.5919 52.452 43.0124 51.7727L39.6113 49.6673C39.3385 50.108 39.0458 50.4776 38.7377 50.7858L41.5661 53.6142ZM43.3119 50.72V16.24H39.3119V50.72H43.3119ZM41.3119 18.24H49.3919V14.24H41.3119V18.24ZM47.3919 16.24V60H51.3919V16.24H47.3919ZM49.3919 58H41.3119V62H49.3919V58ZM43.3119 60V56.32H39.3119V60H43.3119ZM39.9386 54.866C39.0171 55.7363 37.9723 56.6527 36.8017 57.6152L39.3421 60.7048C40.5715 59.694 41.6866 58.717 42.6851 57.774L39.9386 54.866ZM36.8017 57.6152C35.7777 58.457 35.1112 58.64 34.7519 58.64V62.64C36.4192 62.64 37.966 61.8363 39.3421 60.7048L36.8017 57.6152ZM58.9287 58.96L60.2151 57.4286L58.9287 58.96ZM56.1688 54.16L54.22 54.6097L54.2227 54.6215L54.2256 54.6333L56.1688 54.16ZM55.4487 23.52H57.4487V21.52H55.4487V23.52ZM51.3688 23.52H49.3688V25.52H51.3688V23.52ZM51.3688 16.24V14.24H49.3688V16.24H51.3688ZM55.4487 16.24V18.24H57.4487V16.24H55.4487ZM55.4487 5.44V3.44H53.4487V5.44H55.4487ZM63.5287 5.44H65.5287V3.44H63.5287V5.44ZM63.5287 16.24H61.5288V18.24H63.5287V16.24ZM69.0888 16.24H71.0888V14.24H69.0888V16.24ZM69.0888 23.52V25.52H71.0888V23.52H69.0888ZM63.5287 23.52V21.52H61.5288V23.52H63.5287ZM64.2887 51.68L62.5835 52.7251L62.5912 52.7377L62.5991 52.7501L64.2887 51.68ZM68.0888 52.76L67.6965 50.7988L67.6831 50.8015L67.6697 50.8044L68.0888 52.76ZM69.0488 52.48H71.0488V49.4025L68.2365 50.6524L69.0488 52.48ZM69.0488 59.88L69.7915 61.737L71.0488 61.2341V59.88H69.0488ZM67.2887 60.4L66.8808 58.442L66.8321 58.4522L66.7839 58.4648L67.2887 60.4ZM64.7288 58.64C62.4572 58.64 61.0554 58.1344 60.2151 57.4286L57.6424 60.4914C59.4688 62.0256 61.9337 62.64 64.7288 62.64V58.64ZM60.2151 57.4286C59.2764 56.6401 58.5414 55.4497 58.1119 53.6867L54.2256 54.6333C54.8095 57.0303 55.9144 59.0399 57.6424 60.4914L60.2151 57.4286ZM58.1175 53.7103C57.681 51.8187 57.4487 49.4974 57.4487 46.72H53.4487C53.4487 49.7026 53.6965 52.3413 54.22 54.6097L58.1175 53.7103ZM57.4487 46.72V23.52H53.4487V46.72H57.4487ZM55.4487 21.52H51.3688V25.52H55.4487V21.52ZM53.3688 23.52V16.24H49.3688V23.52H53.3688ZM51.3688 18.24H55.4487V14.24H51.3688V18.24ZM57.4487 16.24V5.44H53.4487V16.24H57.4487ZM55.4487 7.44H63.5287V3.44H55.4487V7.44ZM61.5288 5.44V16.24H65.5287V5.44H61.5288ZM63.5287 18.24H69.0888V14.24H63.5287V18.24ZM67.0888 16.24V23.52H71.0888V16.24H67.0888ZM69.0888 21.52H63.5287V25.52H69.0888V21.52ZM61.5288 23.52V47.88H65.5287V23.52H61.5288ZM61.5288 47.88C61.5288 49.7115 61.7874 51.4261 62.5835 52.7251L65.9939 50.6349C65.7768 50.2805 65.5287 49.4619 65.5287 47.88H61.5288ZM62.5991 52.7501C63.5538 54.2575 65.1039 54.88 66.7688 54.88V50.88C66.1402 50.88 66.037 50.7025 65.9784 50.6099L62.5991 52.7501ZM66.7688 54.88C67.3736 54.88 67.9605 54.8329 68.5078 54.7156L67.6697 50.8044C67.4704 50.8471 67.1773 50.88 66.7688 50.88V54.88ZM68.481 54.7212C68.9555 54.6263 69.4339 54.4975 69.861 54.3076L68.2365 50.6524C68.1836 50.6759 68.022 50.7337 67.6965 50.7988L68.481 54.7212ZM67.0488 52.48V59.88H71.0488V52.48H67.0488ZM68.306 58.023C67.8947 58.1875 67.4218 58.3293 66.8808 58.442L67.6967 62.358C68.4357 62.204 69.1361 61.9991 69.7915 61.737L68.306 58.023ZM66.7839 58.4648C66.4123 58.5617 65.7556 58.64 64.7288 58.64V62.64C65.8885 62.64 66.9385 62.5583 67.7936 62.3352L66.7839 58.4648ZM71.4844 60H69.4844V62H71.4844V60ZM71.4844 16.24V14.24H69.4844V16.24H71.4844ZM79.5644 16.24H81.5644V14.24H79.5644V16.24ZM79.5644 21.12H77.5644L81.5423 21.4167L79.5644 21.12ZM81.0444 18.28L79.6302 16.8658L79.6302 16.8658L81.0444 18.28ZM84.0444 16.32L83.3016 14.463L83.2943 14.4659L83.2871 14.4689L84.0444 16.32ZM87.6444 15.6H89.6444V13.6H87.6444V15.6ZM87.6444 24.56L86.9264 26.4267L89.6444 27.4721V24.56H87.6444ZM86.5244 24.32L86.2415 26.2999L86.3161 26.3106L86.3913 26.3156L86.5244 24.32ZM81.1644 25.68L82.5023 27.1666L81.1644 25.68ZM79.5644 60V62H81.5644V60H79.5644ZM73.4844 60V16.24H69.4844V60H73.4844ZM71.4844 18.24H79.5644V14.24H71.4844V18.24ZM77.5644 16.24V21.12H81.5644V16.24H77.5644ZM81.5423 21.4167C81.6334 20.8093 81.9077 20.2451 82.4586 19.6942L79.6302 16.8658C78.5277 17.9682 77.8154 19.2973 77.5865 20.8233L81.5423 21.4167ZM82.4586 19.6942C83.0821 19.0707 83.8532 18.5591 84.8016 18.1711L83.2871 14.4689C81.8889 15.0409 80.66 15.836 79.6302 16.8658L82.4586 19.6942ZM84.7872 18.177C85.7693 17.7841 86.7178 17.6 87.6444 17.6V13.6C86.1709 13.6 84.7195 13.8959 83.3016 14.463L84.7872 18.177ZM85.6444 15.6V24.56H89.6444V15.6H85.6444ZM88.3623 22.6933C87.814 22.4824 87.2419 22.3634 86.6574 22.3244L86.3913 26.3156C86.6068 26.3299 86.7814 26.3709 86.9264 26.4267L88.3623 22.6933ZM86.8072 22.3401C86.3412 22.2735 85.8733 22.24 85.4044 22.24V26.24C85.6821 26.24 85.9609 26.2598 86.2415 26.2999L86.8072 22.3401ZM85.4044 22.24C83.2673 22.24 81.3389 22.8322 79.8264 24.1934L82.5023 27.1666C83.1231 26.6078 84.0214 26.24 85.4044 26.24V22.24ZM79.8264 24.1934C78.2725 25.592 77.5644 27.4748 77.5644 29.6H81.5644C81.5644 28.4186 81.9229 27.688 82.5023 27.1666L79.8264 24.1934ZM77.5644 29.6V60H81.5644V29.6H77.5644ZM79.5644 58H71.4844V62H79.5644V58ZM91.2838 57.8L92.9081 56.6332L91.2838 57.8ZM91.6438 40.04L90.0124 38.8829L90.0079 38.8893L90.0035 38.8956L91.6438 40.04ZM98.9238 34.08L99.8474 35.854L99.8552 35.8498L98.9238 34.08ZM101.484 32.64L102.532 34.3433L101.484 32.64ZM102.764 31.44L104.602 32.2278L104.764 31.8505V31.44H102.764ZM102.364 23.84L100.448 24.4147L100.46 24.4536L100.473 24.492L102.364 23.84ZM98.6838 23.92L100.549 24.642L100.553 24.6321L100.556 24.6222L98.6838 23.92ZM98.2038 29.12V31.12H100.204V29.12H98.2038ZM90.1237 29.12H88.1237V31.12H90.1237V29.12ZM91.5238 21.08L89.7679 20.1223L89.7628 20.1318L91.5238 21.08ZM95.4037 17.04L96.3991 18.7748L96.408 18.7696L95.4037 17.04ZM106.204 17L105.13 18.6873L105.141 18.6943L105.152 18.7012L106.204 17ZM109.604 20.8L107.809 21.6826L107.818 21.7004L107.827 21.718L109.604 20.8ZM111.004 56.96L109.013 57.1542L109.014 57.159L111.004 56.96ZM111.404 60V62H113.765L113.377 59.6712L111.404 60ZM103.484 60L101.932 61.2612L102.532 62H103.484V60ZM102.844 58.12L100.848 58.2488L100.85 58.2807L100.853 58.3126L102.844 58.12ZM102.764 56.48H104.764V54.48H102.764V56.48ZM102.204 56.48V54.48H101.014L100.447 55.525L102.204 56.48ZM99.6438 59.48L98.4503 57.8751L98.4403 57.8825L98.4304 57.8901L99.6438 59.48ZM101.764 51.76L100.379 50.3172L100.364 50.3314L100.35 50.3458L101.764 51.76ZM102.764 39.28H104.764V36.2578L101.982 37.4391L102.764 39.28ZM98.4837 43.04L96.7237 42.0901L96.7183 42.1003L98.4837 43.04ZM96.1237 58.64C95.0615 58.64 93.9969 58.149 92.9081 56.6332L89.6594 58.9668C91.2906 61.2376 93.4526 62.64 96.1237 62.64V58.64ZM92.9081 56.6332C91.9075 55.2402 91.2438 52.8485 91.2438 49.12H87.2438C87.2438 53.1781 87.94 56.5732 89.6594 58.9668L92.9081 56.6332ZM91.2438 49.12C91.2438 45.6308 91.9866 43.044 93.284 41.1844L90.0035 38.8956C88.1009 41.6227 87.2438 45.0892 87.2438 49.12H91.2438ZM93.2751 41.1971C94.6722 39.2274 96.8222 37.4291 99.8474 35.854L98.0001 32.306C94.572 34.0909 91.8686 36.266 90.0124 38.8829L93.2751 41.1971ZM99.8552 35.8498C100.894 35.3033 101.789 34.8007 102.532 34.3433L100.436 30.9367C99.7922 31.3326 98.9805 31.79 97.9923 32.3102L99.8552 35.8498ZM102.532 34.3433C103.284 33.8807 104.183 33.2065 104.602 32.2278L100.925 30.6522C100.991 30.4991 101.049 30.4732 100.956 30.5609C100.87 30.6411 100.709 30.7686 100.436 30.9367L102.532 34.3433ZM104.764 31.44V26.64H100.764V31.44H104.764ZM104.764 26.64C104.764 25.3947 104.613 24.2284 104.254 23.188L100.473 24.492C100.648 24.9983 100.764 25.6986 100.764 26.64H104.764ZM104.279 23.2653C104.044 22.4802 103.574 21.7589 102.816 21.2648C102.09 20.791 101.274 20.64 100.524 20.64V24.64C100.76 24.64 100.744 24.689 100.631 24.6152C100.574 24.5776 100.522 24.5271 100.484 24.474C100.448 24.424 100.443 24.396 100.448 24.4147L104.279 23.2653ZM100.524 20.64C99.7506 20.64 98.9495 20.8257 98.2416 21.3182C97.5345 21.8101 97.0819 22.4957 96.8111 23.2178L100.556 24.6222C100.582 24.5536 100.599 24.5319 100.595 24.5383C100.592 24.5417 100.585 24.5507 100.573 24.563C100.56 24.5754 100.545 24.5888 100.526 24.6018C100.507 24.6148 100.489 24.6251 100.472 24.6328C100.456 24.6405 100.444 24.6442 100.439 24.6456C100.43 24.6483 100.453 24.64 100.524 24.64V20.64ZM96.8186 23.198C96.3808 24.329 96.2038 25.634 96.2038 27.04H100.204C100.204 25.9393 100.347 25.1643 100.549 24.642L96.8186 23.198ZM96.2038 27.04V29.12H100.204V27.04H96.2038ZM98.2038 27.12H90.1237V31.12H98.2038V27.12ZM92.1237 29.12V27.28H88.1237V29.12H92.1237ZM92.1237 27.28C92.1237 25.1392 92.5391 23.4128 93.2847 22.0282L89.7628 20.1318C88.6417 22.2138 88.1237 24.6208 88.1237 27.28H92.1237ZM93.2795 22.0377C94.0754 20.5787 95.1151 19.5115 96.3991 18.7747L94.4084 15.3053C92.4391 16.4352 90.8921 18.0613 89.768 20.1223L93.2795 22.0377ZM96.408 18.7696C97.7298 18.0021 99.2445 17.6 101.004 17.6V13.6C98.603 13.6 96.3844 14.1579 94.3995 15.3104L96.408 18.7696ZM101.004 17.6C102.682 17.6 104.03 17.9875 105.13 18.6873L107.278 15.3127C105.444 14.1458 103.326 13.6 101.004 13.6V17.6ZM105.152 18.7012C106.282 19.3999 107.166 20.3751 107.809 21.6826L111.398 19.9174C110.442 17.9716 109.058 16.4135 107.255 15.2988L105.152 18.7012ZM107.827 21.718C108.486 22.9932 108.844 24.5098 108.844 26.32H112.844C112.844 23.9702 112.375 21.8068 111.381 19.882L107.827 21.718ZM108.844 26.32V52.4H112.844V26.32H108.844ZM108.844 52.4C108.844 54.3703 108.897 55.9653 109.013 57.1542L112.994 56.7658C112.897 55.768 112.844 54.323 112.844 52.4H108.844ZM109.014 57.159C109.124 58.2648 109.263 59.3217 109.431 60.3288L113.377 59.6712C113.224 58.7583 113.097 57.7885 112.994 56.761L109.014 57.159ZM111.404 58H103.484V62H111.404V58ZM105.036 58.7388C105.039 58.7425 105.003 58.6992 104.957 58.5655C104.911 58.43 104.863 58.2239 104.834 57.9274L100.853 58.3126C100.953 59.3438 101.24 60.4103 101.932 61.2612L105.036 58.7388ZM104.84 57.9912C104.785 57.1521 104.764 56.6709 104.764 56.48H100.764C100.764 56.8224 100.795 57.4345 100.848 58.2488L104.84 57.9912ZM102.764 54.48H102.204V58.48H102.764V54.48ZM100.447 55.525C99.9075 56.5167 99.2399 57.288 98.4503 57.8751L100.837 61.0849C102.128 60.1253 103.167 58.8967 103.961 57.435L100.447 55.525ZM98.4304 57.8901C97.7824 58.3846 97.0402 58.64 96.1237 58.64V62.64C97.8739 62.64 99.4784 62.1221 100.857 61.0699L98.4304 57.8901ZM99.4037 54.72C100.849 54.72 102.15 54.2022 103.178 53.1742L100.35 50.3458C100.097 50.5978 99.8252 50.72 99.4037 50.72V54.72ZM103.149 53.2028C104.109 52.2812 104.764 51.0954 104.764 49.68H100.764C100.764 49.7579 100.752 49.9588 100.379 50.3172L103.149 53.2028ZM104.764 49.68V39.28H100.764V49.68H104.764ZM101.982 37.4391C99.6654 38.4229 97.8694 39.9673 96.7237 42.0901L100.244 43.9899C100.911 42.7527 101.969 41.7905 103.546 41.1209L101.982 37.4391ZM96.7183 42.1003C95.6678 44.0738 95.1637 46.2691 95.1637 48.64H99.1637C99.1637 46.8508 99.5397 45.3129 100.249 43.9797L96.7183 42.1003ZM95.1637 48.64C95.1637 49.8076 95.388 50.9558 95.8156 52.0743L99.5519 50.6457C99.2862 49.9509 99.1637 49.2857 99.1637 48.64H95.1637ZM95.8156 52.0743C96.0766 52.7567 96.4863 53.4372 97.1333 53.9488C97.8071 54.4816 98.5988 54.72 99.4037 54.72V50.72C99.3943 50.72 99.4223 50.719 99.4732 50.7358C99.5262 50.7533 99.576 50.7809 99.6142 50.8112C99.6879 50.8694 99.6376 50.87 99.5519 50.6457L95.8156 52.0743ZM117.391 56.96L115.812 58.1879L115.819 58.1965L115.825 58.205L117.391 56.96ZM115.271 52.72L113.344 53.2569L113.348 53.2715L113.352 53.286L115.271 52.72ZM114.591 47.28V45.28H112.591V47.28H114.591ZM122.111 47.28H124.111V45.28H122.111V47.28ZM122.951 51.96L121.107 52.7345L121.116 52.7569L121.126 52.7792L122.951 51.96ZM126.911 44.48L125.294 45.658L125.306 45.6735L125.317 45.6888L126.911 44.48ZM123.311 40.28L121.905 41.703L121.912 41.7093L123.311 40.28ZM117.911 33.96L116.256 35.084L116.261 35.0913L116.266 35.0984L117.911 33.96ZM118.391 18.64L116.871 17.3401L118.391 18.64ZM130.631 16.36L129.908 18.2248L129.92 18.2296L130.631 16.36ZM133.831 18.64L135.4 17.4007V17.4007L133.831 18.64ZM135.551 22.36L133.604 22.82L133.608 22.8367L133.612 22.8534L135.551 22.36ZM136.111 27.44V29.44H138.111V27.44H136.111ZM128.591 27.44H126.591V29.44H128.591V27.44ZM123.911 23.56L125.699 24.4544L125.705 24.4428L125.711 24.4311L123.911 23.56ZM124.351 30.56L122.639 31.5948L122.653 31.6184L122.668 31.6415L124.351 30.56ZM127.911 34.68L126.508 36.1057L126.515 36.1125L127.911 34.68ZM133.591 41.16L131.986 42.354L131.991 42.36L131.995 42.3659L133.591 41.16ZM135.471 53.48L133.57 52.8579L133.565 52.8736L133.56 52.8894L135.471 53.48ZM133.431 57.28L131.907 55.9847L131.897 55.9959L131.888 56.0072L133.431 57.28ZM130.191 59.76L129.357 57.9419L129.35 57.9452L129.343 57.9486L130.191 59.76ZM125.871 58.64C124.201 58.64 122.839 58.3578 121.736 57.8581L120.086 61.5019C121.809 62.2822 123.754 62.64 125.871 62.64V58.64ZM121.736 57.8581C120.601 57.3442 119.685 56.6312 118.956 55.715L115.825 58.205C116.963 59.6354 118.394 60.7358 120.086 61.5019L121.736 57.8581ZM118.969 55.7321C118.206 54.7511 117.606 53.5684 117.189 52.154L113.352 53.286C113.895 55.1249 114.708 56.7689 115.812 58.1879L118.969 55.7321ZM117.197 52.1831C116.801 50.7599 116.591 49.1309 116.591 47.28H112.591C112.591 49.4291 112.834 51.4268 113.344 53.2569L117.197 52.1831ZM114.591 49.28H122.111V45.28H114.591V49.28ZM120.111 47.28C120.111 49.2719 120.423 51.1055 121.107 52.7345L124.795 51.1855C124.359 50.1478 124.111 48.8615 124.111 47.28H120.111ZM121.126 52.7792C121.539 53.698 122.146 54.5134 123.006 55.0906C123.873 55.6723 124.859 55.92 125.871 55.92V51.92C125.522 51.92 125.342 51.8411 125.235 51.7694C125.122 51.6932 124.949 51.5287 124.775 51.1408L121.126 52.7792ZM125.871 55.92C126.731 55.92 127.622 55.7386 128.41 55.2276C129.216 54.7041 129.741 53.9462 130.038 53.103L126.264 51.777C126.236 51.8569 126.213 51.8874 126.211 51.8898C126.21 51.8914 126.212 51.8887 126.217 51.884C126.222 51.8792 126.228 51.8751 126.232 51.8724C126.259 51.8548 126.183 51.92 125.871 51.92V55.92ZM130.038 53.103C130.474 51.8617 130.671 50.497 130.671 49.04H126.671C126.671 50.143 126.521 51.045 126.264 51.777L130.038 53.103ZM130.671 49.04C130.671 46.9949 129.862 45.061 128.504 43.2712L125.317 45.6888C126.306 46.9923 126.671 48.0985 126.671 49.04H130.671ZM128.527 43.302C127.322 41.6487 126.05 40.1629 124.71 38.8507L121.912 41.7093C123.078 42.8505 124.206 44.1647 125.294 45.658L128.527 43.302ZM124.716 38.857C122.627 36.7942 120.912 34.7817 119.555 32.8216L116.266 35.0984C117.789 37.2983 119.674 39.4991 121.905 41.703L124.716 38.857ZM119.565 32.836C118.402 31.1246 117.791 29.0864 117.791 26.64H113.791C113.791 29.7936 114.593 32.6354 116.256 35.084L119.565 32.836ZM117.791 26.64C117.791 23.6916 118.556 21.5235 119.911 19.9399L116.871 17.3401C114.758 19.8098 113.791 22.975 113.791 26.64H117.791ZM119.911 19.9399C121.188 18.4466 123.047 17.6 125.791 17.6V13.6C122.134 13.6 119.06 14.78 116.871 17.3401L119.911 19.9399ZM125.791 17.6C127.549 17.6 128.9 17.8339 129.908 18.2247L131.354 14.4953C129.748 13.8728 127.873 13.6 125.791 13.6V17.6ZM129.92 18.2296C130.952 18.6216 131.708 19.179 132.261 19.8793L135.4 17.4007C134.353 16.0743 132.976 15.1117 131.341 14.4904L129.92 18.2296ZM132.261 19.8793C132.852 20.6282 133.314 21.5903 133.604 22.82L137.497 21.8999C137.094 20.1964 136.409 18.6784 135.4 17.4007L132.261 19.8793ZM133.612 22.8534C133.935 24.1224 134.111 25.6442 134.111 27.44H138.111C138.111 25.3958 137.912 23.5309 137.489 21.8666L133.612 22.8534ZM136.111 25.44H128.591V29.44H136.111V25.44ZM130.591 27.44C130.591 25.9206 130.431 24.5244 130.072 23.2839L126.229 24.3961C126.457 25.1823 126.591 26.1861 126.591 27.44H130.591ZM130.072 23.2839C129.822 22.4194 129.33 21.6159 128.517 21.0545C127.726 20.5074 126.816 20.32 125.951 20.32V24.32C126.258 24.32 126.302 24.386 126.244 24.3455C126.216 24.3266 126.198 24.3046 126.191 24.2944C126.186 24.2878 126.206 24.3136 126.229 24.3961L130.072 23.2839ZM125.951 20.32C125.18 20.32 124.394 20.4881 123.682 20.921C122.964 21.3571 122.452 21.9834 122.11 22.6889L125.711 24.4311C125.743 24.3659 125.766 24.3376 125.771 24.3311C125.776 24.326 125.771 24.332 125.759 24.339C125.748 24.3459 125.749 24.3427 125.772 24.3369C125.797 24.3305 125.854 24.32 125.951 24.32V20.32ZM122.122 22.6656C121.539 23.8318 121.311 25.1932 121.311 26.64H125.311C125.311 25.5801 125.483 24.8882 125.699 24.4544L122.122 22.6656ZM121.311 26.64C121.311 28.4358 121.739 30.1069 122.639 31.5948L126.062 29.5252C125.575 28.7198 125.311 27.7775 125.311 26.64H121.311ZM122.668 31.6415C123.506 32.9451 124.814 34.4395 126.508 36.1057L129.313 33.2543C127.7 31.6672 126.635 30.4149 126.033 29.4785L122.668 31.6415ZM126.515 36.1125C128.52 38.0665 130.344 40.1469 131.986 42.354L135.195 39.966C133.424 37.5864 131.461 35.3469 129.306 33.2475L126.515 36.1125ZM131.995 42.3659C133.485 44.3369 134.191 46.4122 134.191 48.64H138.191C138.191 45.4812 137.163 42.5697 135.186 39.9541L131.995 42.3659ZM134.191 48.64C134.191 50.2179 133.976 51.618 133.57 52.8579L137.371 54.1021C137.926 52.4086 138.191 50.5821 138.191 48.64H134.191ZM133.56 52.8894C133.179 54.1225 132.622 55.1435 131.907 55.9847L134.954 58.5753C136.053 57.2832 136.856 55.7708 137.381 54.0706L133.56 52.8894ZM131.888 56.0072C131.204 56.8365 130.368 57.4787 129.357 57.9419L131.024 61.5781C132.573 60.868 133.898 59.8568 134.973 58.5528L131.888 56.0072ZM129.343 57.9486C128.397 58.3911 127.255 58.64 125.871 58.64V62.64C127.739 62.64 129.477 62.3022 131.039 61.5714L129.343 57.9486ZM154.159 59.4L152.833 60.8972L154.159 59.4ZM152.039 56.2L150.157 56.8775L150.161 56.8896L152.039 56.2ZM151.999 20.08L150.121 19.3904L150.115 19.4074L150.109 19.4245L151.999 20.08ZM154.119 16.88L155.445 18.3772L155.457 18.3667L155.468 18.3561L154.119 16.88ZM160.759 16.64L161.811 14.9395V14.9395L160.759 16.64ZM163.959 19.12L162.583 20.5719L165.959 23.7697V19.12H163.959ZM163.959 1.2V-0.800001H161.959V1.2H163.959ZM172.039 1.2H174.039V-0.800001H172.039V1.2ZM172.039 60V62H174.039V60H172.039ZM163.959 60H161.959V62H163.959V60ZM163.959 57.12H165.959V52.7125L162.642 55.6148L163.959 57.12ZM160.799 59.6L161.908 61.2641L161.923 61.2544L161.937 61.2444L160.799 59.6ZM163.119 52.28L161.777 50.7969L161.759 50.8132L161.741 50.83L163.119 52.28ZM163.119 24.04L161.67 25.4193L161.687 25.437L161.705 25.4542L163.119 24.04ZM159.959 23.96L161.537 25.1879L161.553 25.1673L161.569 25.1464L159.959 23.96ZM159.959 52.28L158.349 53.4664L159.959 52.28ZM157.559 58.64C156.677 58.64 156.026 58.3819 155.485 57.9028L152.833 60.8972C154.158 62.0714 155.774 62.64 157.559 62.64V58.64ZM155.485 57.9028C154.827 57.3202 154.296 56.5432 153.916 55.5104L150.161 56.8896C150.742 58.4701 151.624 59.8265 152.833 60.8972L155.485 57.9028ZM153.921 55.5226C153.519 54.4059 153.319 53.2618 153.319 52.08H149.319C149.319 53.7249 149.599 55.3274 150.157 56.8774L153.921 55.5226ZM153.319 52.08V24.16H149.319V52.08H153.319ZM153.319 24.16C153.319 22.9649 153.51 21.8268 153.888 20.7355L150.109 19.4245C149.581 20.9466 149.319 22.5285 149.319 24.16H153.319ZM153.876 20.7696C154.255 19.7368 154.787 18.9598 155.445 18.3772L152.793 15.3828C151.584 16.4535 150.702 17.8099 150.121 19.3904L153.876 20.7696ZM155.468 18.3561C156.004 17.8665 156.657 17.6 157.559 17.6V13.6C155.74 13.6 154.1 14.1868 152.769 15.4039L155.468 18.3561ZM157.559 17.6C158.104 17.6 158.809 17.7853 159.706 18.3405L161.811 14.9395C160.468 14.108 159.04 13.6 157.559 13.6V17.6ZM159.706 18.3405C160.704 18.9581 161.663 19.7 162.583 20.5719L165.334 17.6681C164.228 16.62 163.054 15.7086 161.811 14.9395L159.706 18.3405ZM165.959 19.12V1.2H161.959V19.12H165.959ZM163.959 3.2H172.039V-0.800001H163.959V3.2ZM170.039 1.2V60H174.039V1.2H170.039ZM172.039 58H163.959V62H172.039V58ZM165.959 60V57.12H161.959V60H165.959ZM162.642 55.6148C161.625 56.5043 160.631 57.2834 159.66 57.9556L161.937 61.2444C163.046 60.4766 164.159 59.6024 165.276 58.6252L162.642 55.6148ZM159.689 57.9359C158.938 58.4366 158.239 58.64 157.559 58.64V62.64C159.119 62.64 160.579 62.1501 161.908 61.2641L159.689 57.9359ZM161.399 55.04C162.624 55.04 163.67 54.515 164.496 53.73L161.741 50.83C161.501 51.0583 161.4 51.04 161.399 51.04V55.04ZM164.461 53.7631C165.434 52.8822 165.959 51.7191 165.959 50.4H161.959C161.959 50.5742 161.923 50.6645 161.777 50.7969L164.461 53.7631ZM165.959 50.4V25.84H161.959V50.4H165.959ZM165.959 25.84C165.959 24.5495 165.374 23.4665 164.533 22.6258L161.705 25.4542C161.851 25.6008 161.912 25.7039 161.936 25.7558C161.957 25.8003 161.959 25.8225 161.959 25.84H165.959ZM164.567 22.6607C163.761 21.8141 162.694 21.2 161.399 21.2V25.2C161.399 25.2 161.398 25.2 161.396 25.1998C161.395 25.1996 161.393 25.1993 161.392 25.199C161.389 25.1984 161.395 25.1993 161.411 25.2071C161.444 25.2234 161.534 25.276 161.67 25.4193L164.567 22.6607ZM161.399 21.2C160.125 21.2 159.067 21.7987 158.349 22.7736L161.569 25.1464C161.605 25.0971 161.598 25.124 161.532 25.1588C161.502 25.1749 161.47 25.1865 161.441 25.1934C161.413 25.2001 161.397 25.2 161.399 25.2V21.2ZM158.38 22.7321C157.667 23.649 157.399 24.7444 157.399 25.84H161.399C161.399 25.3889 161.504 25.231 161.537 25.1879L158.38 22.7321ZM157.399 25.84V50.4H161.399V25.84H157.399ZM157.399 50.4C157.399 51.4916 157.677 52.5554 158.349 53.4664L161.569 51.0936C161.493 50.9912 161.399 50.8017 161.399 50.4H157.399ZM158.349 53.4664C159.067 54.4413 160.125 55.04 161.399 55.04V51.04C161.397 51.04 161.413 51.0399 161.441 51.0466C161.47 51.0535 161.502 51.0651 161.532 51.0812C161.598 51.116 161.605 51.1429 161.569 51.0936L158.349 53.4664ZM180.064 59.36L181.434 57.9036L180.064 59.36ZM178.024 56.12L176.13 56.7638L176.134 56.7755L178.024 56.12ZM177.344 16.24V14.24H175.344V16.24H177.344ZM185.424 16.24H187.424V14.24H185.424V16.24ZM185.864 52.28L184.291 53.5156L184.34 53.5781L184.394 53.6366L185.864 52.28ZM188.824 52.2L187.41 50.7858L188.824 52.2ZM189.984 50.72L191.684 51.7727L191.984 51.289V50.72H189.984ZM189.984 16.24V14.24H187.984V16.24H189.984ZM198.064 16.24H200.064V14.24H198.064V16.24ZM198.064 60V62H200.064V60H198.064ZM189.984 60H187.984V62H189.984V60ZM189.984 56.32H191.984V51.6801L188.611 54.866L189.984 56.32ZM186.744 59.16L188.014 60.7048L186.744 59.16ZM183.904 11.04L182.299 9.84571L179.922 13.04H183.904V11.04ZM189.264 3.84V1.84H188.259L187.659 2.64571L189.264 3.84ZM197.664 3.84L199.047 5.28461L202.645 1.84H197.664V3.84ZM190.144 11.04V13.04H190.947L191.527 12.4846L190.144 11.04ZM183.424 58.64C182.56 58.64 181.942 58.3815 181.434 57.9036L178.693 60.8164C179.999 62.0451 181.621 62.64 183.424 62.64V58.64ZM181.434 57.9036C180.788 57.2951 180.273 56.5006 179.913 55.4645L176.134 56.7755C176.681 58.3528 177.526 59.7182 178.693 60.8164L181.434 57.9036ZM179.917 55.4762C179.532 54.3427 179.344 53.2133 179.344 52.08H175.344C175.344 53.6667 175.609 55.2306 176.13 56.7638L179.917 55.4762ZM179.344 52.08V16.24H175.344V52.08H179.344ZM177.344 18.24H185.424V14.24H177.344V18.24ZM183.424 16.24V50.48H187.424V16.24H183.424ZM183.424 50.48C183.424 51.4566 183.581 52.6112 184.291 53.5156L187.436 51.0444C187.511 51.1387 187.502 51.1779 187.477 51.0751C187.452 50.9727 187.424 50.7835 187.424 50.48H183.424ZM184.394 53.6366C185.228 54.5396 186.355 54.8 187.344 54.8V50.8C187.263 50.8 187.207 50.7947 187.172 50.7895C187.137 50.7843 187.127 50.7798 187.137 50.7831C187.147 50.7866 187.175 50.7978 187.214 50.8225C187.253 50.8476 187.295 50.8814 187.333 50.9234L184.394 53.6366ZM187.344 54.8C188.439 54.8 189.448 54.4045 190.238 53.6142L187.41 50.7858C187.396 50.799 187.39 50.803 187.391 50.8022C187.393 50.8013 187.397 50.7988 187.402 50.7965C187.408 50.7943 187.409 50.7947 187.402 50.7959C187.395 50.7972 187.377 50.8 187.344 50.8V54.8ZM190.238 53.6142C190.783 53.0691 191.264 52.452 191.684 51.7727L188.283 49.6673C188.01 50.108 187.718 50.4776 187.41 50.7858L190.238 53.6142ZM191.984 50.72V16.24H187.984V50.72H191.984ZM189.984 18.24H198.064V14.24H189.984V18.24ZM196.064 16.24V60H200.064V16.24H196.064ZM198.064 58H189.984V62H198.064V58ZM191.984 60V56.32H187.984V60H191.984ZM188.611 54.866C187.689 55.7363 186.644 56.6527 185.474 57.6152L188.014 60.7048C189.243 59.694 190.359 58.717 191.357 57.774L188.611 54.866ZM185.474 57.6152C184.45 58.457 183.783 58.64 183.424 58.64V62.64C185.091 62.64 186.638 61.8363 188.014 60.7048L185.474 57.6152ZM185.508 12.2343L190.868 5.03429L187.659 2.64571L182.299 9.84571L185.508 12.2343ZM189.264 5.84H197.664V1.84H189.264V5.84ZM196.281 2.39538L188.761 9.59538L191.527 12.4846L199.047 5.28461L196.281 2.39538ZM190.144 9.04H183.904V13.04H190.144V9.04ZM207.751 60L205.777 60.3212L206.05 62H207.751V60ZM200.631 16.24V14.24H198.28L198.657 16.5612L200.631 16.24ZM208.471 16.24L210.46 16.0267L210.268 14.24H208.471V16.24ZM211.191 41.6L213.188 41.4911L213.185 41.4388L213.18 41.3867L211.191 41.6ZM211.431 46L209.434 46.1089L209.537 48H211.431V46ZM212.071 46V48H213.965L214.068 46.1089L212.071 46ZM212.311 41.6L210.323 41.3867L210.317 41.4388L210.314 41.4911L212.311 41.6ZM215.031 16.24V14.24H213.234L213.043 16.0267L215.031 16.24ZM222.871 16.24L224.845 16.5612L225.223 14.24H222.871V16.24ZM215.751 60V62H217.452L217.725 60.3212L215.751 60ZM209.725 59.6788L202.605 15.9188L198.657 16.5612L205.777 60.3212L209.725 59.6788ZM200.631 18.24H208.471V14.24H200.631V18.24ZM206.483 16.4533L209.203 41.8133L213.18 41.3867L210.46 16.0267L206.483 16.4533ZM209.194 41.7089L209.434 46.1089L213.428 45.8911L213.188 41.4911L209.194 41.7089ZM211.431 48H212.071V44H211.431V48ZM214.068 46.1089L214.308 41.7089L210.314 41.4911L210.074 45.8911L214.068 46.1089ZM214.3 41.8133L217.02 16.4533L213.043 16.0267L210.323 41.3867L214.3 41.8133ZM215.031 18.24H222.871V14.24H215.031V18.24ZM220.897 15.9188L213.777 59.6788L217.725 60.3212L224.845 16.5612L220.897 15.9188ZM215.751 58H207.751V62H215.751V58ZM225.869 60H223.869V62H225.869V60ZM225.869 16.24V14.24H223.869V16.24H225.869ZM233.949 16.24H235.949V14.24H233.949V16.24ZM233.949 60V62H235.949V60H233.949ZM225.869 9.28H223.869V11.28H225.869V9.28ZM225.869 1.2V-0.800001H223.869V1.2H225.869ZM233.949 1.2H235.949V-0.800001H233.949V1.2ZM233.949 9.28V11.28H235.949V9.28H233.949ZM227.869 60V16.24H223.869V60H227.869ZM225.869 18.24H233.949V14.24H225.869V18.24ZM231.949 16.24V60H235.949V16.24H231.949ZM233.949 58H225.869V62H233.949V58ZM227.869 9.28V1.2H223.869V9.28H227.869ZM225.869 3.2H233.949V-0.800001H225.869V3.2ZM231.949 1.2V9.28H235.949V1.2H231.949ZM233.949 7.28H225.869V11.28H233.949V7.28ZM240.799 59.4L239.473 60.8972L240.799 59.4ZM238.679 56.2L236.798 56.8775L236.802 56.8896L238.679 56.2ZM238.639 20.08L236.762 19.3904L236.756 19.4074L236.75 19.4245L238.639 20.08ZM240.759 16.88L242.085 18.3772L242.097 18.3667L242.109 18.3561L240.759 16.88ZM247.399 16.64L248.452 14.9395V14.9395L247.399 16.64ZM250.599 19.12L249.224 20.5719L252.599 23.7697V19.12H250.599ZM250.599 1.2V-0.800001H248.599V1.2H250.599ZM258.679 1.2H260.679V-0.800001H258.679V1.2ZM258.679 60V62H260.679V60H258.679ZM250.599 60H248.599V62H250.599V60ZM250.599 57.12H252.599V52.7125L249.282 55.6148L250.599 57.12ZM247.439 59.6L248.549 61.2641L248.563 61.2544L248.578 61.2444L247.439 59.6ZM249.759 52.28L248.418 50.7969L248.4 50.8132L248.382 50.83L249.759 52.28ZM249.759 24.04L248.311 25.4193L248.328 25.437L248.345 25.4542L249.759 24.04ZM246.599 23.96L248.178 25.1879L248.194 25.1673L248.209 25.1464L246.599 23.96ZM246.599 52.28L244.989 53.4664L246.599 52.28ZM244.199 58.64C243.318 58.64 242.666 58.3819 242.125 57.9028L239.473 60.8972C240.799 62.0714 242.414 62.64 244.199 62.64V58.64ZM242.125 57.9028C241.468 57.3202 240.936 56.5432 240.557 55.5104L236.802 56.8896C237.383 58.4701 238.264 59.8265 239.473 60.8972L242.125 57.9028ZM240.561 55.5226C240.159 54.4059 239.959 53.2618 239.959 52.08H235.959C235.959 53.7249 236.24 55.3274 236.798 56.8774L240.561 55.5226ZM239.959 52.08V24.16H235.959V52.08H239.959ZM239.959 24.16C239.959 22.9649 240.15 21.8268 240.529 20.7355L236.75 19.4245C236.222 20.9466 235.959 22.5285 235.959 24.16H239.959ZM240.517 20.7696C240.896 19.7368 241.428 18.9598 242.085 18.3772L239.433 15.3828C238.224 16.4535 237.343 17.8099 236.762 19.3904L240.517 20.7696ZM242.109 18.3561C242.644 17.8665 243.298 17.6 244.199 17.6V13.6C242.381 13.6 240.741 14.1868 239.41 15.4039L242.109 18.3561ZM244.199 17.6C244.745 17.6 245.45 17.7853 246.347 18.3405L248.452 14.9395C247.109 14.108 245.681 13.6 244.199 13.6V17.6ZM246.347 18.3405C247.344 18.9581 248.304 19.7 249.224 20.5719L251.975 17.6681C250.869 16.62 249.695 15.7086 248.452 14.9395L246.347 18.3405ZM252.599 19.12V1.2H248.599V19.12H252.599ZM250.599 3.2H258.679V-0.800001H250.599V3.2ZM256.679 1.2V60H260.679V1.2H256.679ZM258.679 58H250.599V62H258.679V58ZM252.599 60V57.12H248.599V60H252.599ZM249.282 55.6148C248.266 56.5043 247.272 57.2834 246.301 57.9556L248.578 61.2444C249.687 60.4766 250.8 59.6024 251.916 58.6252L249.282 55.6148ZM246.33 57.9359C245.579 58.4366 244.88 58.64 244.199 58.64V62.64C245.759 62.64 247.22 62.1501 248.549 61.2641L246.33 57.9359ZM248.039 55.04C249.265 55.04 250.311 54.515 251.137 53.73L248.382 50.83C248.142 51.0583 248.041 51.04 248.039 51.04V55.04ZM251.101 53.7631C252.075 52.8822 252.599 51.7191 252.599 50.4H248.599C248.599 50.5742 248.564 50.6645 248.418 50.7969L251.101 53.7631ZM252.599 50.4V25.84H248.599V50.4H252.599ZM252.599 25.84C252.599 24.5495 252.014 23.4665 251.174 22.6258L248.345 25.4542C248.492 25.6008 248.553 25.7039 248.577 25.7558C248.598 25.8003 248.599 25.8225 248.599 25.84H252.599ZM251.208 22.6607C250.401 21.8141 249.335 21.2 248.039 21.2V25.2C248.04 25.2 248.039 25.2 248.037 25.1998C248.035 25.1996 248.034 25.1993 248.033 25.199C248.03 25.1984 248.036 25.1993 248.052 25.2071C248.085 25.2234 248.175 25.276 248.311 25.4193L251.208 22.6607ZM248.039 21.2C246.765 21.2 245.708 21.7987 244.989 22.7736L248.209 25.1464C248.246 25.0971 248.239 25.124 248.173 25.1588C248.142 25.1749 248.11 25.1865 248.082 25.1934C248.053 25.2001 248.037 25.2 248.039 25.2V21.2ZM245.021 22.7321C244.308 23.649 244.039 24.7444 244.039 25.84H248.039C248.039 25.3889 248.145 25.231 248.178 25.1879L245.021 22.7321ZM244.039 25.84V50.4H248.039V25.84H244.039ZM244.039 50.4C244.039 51.4916 244.318 52.5554 244.989 53.4664L248.209 51.0936C248.134 50.9912 248.039 50.8017 248.039 50.4H244.039ZM244.989 53.4664C245.708 54.4413 246.765 55.04 248.039 55.04V51.04C248.037 51.04 248.053 51.0399 248.082 51.0466C248.11 51.0535 248.142 51.0651 248.173 51.0812C248.239 51.116 248.246 51.1429 248.209 51.0936L244.989 53.4664ZM265.424 57.8L267.049 56.6332L265.424 57.8ZM265.784 40.04L264.153 38.8829L264.149 38.8893L264.144 38.8956L265.784 40.04ZM273.064 34.08L273.988 35.854L273.996 35.8498L273.064 34.08ZM275.624 32.64L276.673 34.3433L275.624 32.64ZM276.904 31.44L278.743 32.2278L278.904 31.8505V31.44H276.904ZM276.504 23.84L274.589 24.4147L274.6 24.4536L274.614 24.492L276.504 23.84ZM272.824 23.92L274.69 24.642L274.693 24.6321L274.697 24.6222L272.824 23.92ZM272.344 29.12V31.12H274.344V29.12H272.344ZM264.264 29.12H262.264V31.12H264.264V29.12ZM265.664 21.08L263.909 20.1223L263.903 20.1318L265.664 21.08ZM269.544 17.04L270.54 18.7748L270.549 18.7696L269.544 17.04ZM280.344 17L279.271 18.6873L279.282 18.6943L279.293 18.7012L280.344 17ZM283.744 20.8L281.95 21.6826L281.958 21.7004L281.968 21.718L283.744 20.8ZM285.144 56.96L283.154 57.1542L283.154 57.159L285.144 56.96ZM285.544 60V62H287.905L287.517 59.6712L285.544 60ZM277.624 60L276.072 61.2612L276.672 62H277.624V60ZM276.984 58.12L274.989 58.2488L274.991 58.2807L274.994 58.3126L276.984 58.12ZM276.904 56.48H278.904V54.48H276.904V56.48ZM276.344 56.48V54.48H275.155L274.587 55.525L276.344 56.48ZM273.784 59.48L272.591 57.8751L272.581 57.8825L272.571 57.8901L273.784 59.48ZM275.904 51.76L274.519 50.3172L274.505 50.3314L274.49 50.3458L275.904 51.76ZM276.904 39.28H278.904V36.2578L276.123 37.4391L276.904 39.28ZM272.624 43.04L270.864 42.0901L270.859 42.1003L272.624 43.04ZM270.264 58.64C269.202 58.64 268.138 58.149 267.049 56.6332L263.8 58.9668C265.431 61.2376 267.593 62.64 270.264 62.64V58.64ZM267.049 56.6332C266.048 55.2402 265.384 52.8485 265.384 49.12H261.384C261.384 53.1781 262.081 56.5732 263.8 58.9668L267.049 56.6332ZM265.384 49.12C265.384 45.6308 266.127 43.044 267.425 41.1844L264.144 38.8956C262.242 41.6227 261.384 45.0892 261.384 49.12H265.384ZM267.416 41.1971C268.813 39.2274 270.963 37.4291 273.988 35.854L272.141 32.306C268.713 34.0909 266.009 36.266 264.153 38.8829L267.416 41.1971ZM273.996 35.8498C275.034 35.3033 275.929 34.8007 276.673 34.3433L274.576 30.9367C273.933 31.3326 273.121 31.79 272.133 32.3102L273.996 35.8498ZM276.673 34.3433C277.424 33.8807 278.323 33.2065 278.743 32.2278L275.066 30.6522C275.132 30.4991 275.19 30.4732 275.096 30.5609C275.011 30.6411 274.849 30.7686 274.576 30.9367L276.673 34.3433ZM278.904 31.44V26.64H274.904V31.44H278.904ZM278.904 26.64C278.904 25.3947 278.754 24.2284 278.395 23.188L274.614 24.492C274.788 24.9983 274.904 25.6986 274.904 26.64H278.904ZM278.42 23.2653C278.185 22.4802 277.715 21.7589 276.957 21.2648C276.23 20.791 275.414 20.64 274.664 20.64V24.64C274.901 24.64 274.885 24.689 274.772 24.6152C274.714 24.5776 274.662 24.5271 274.624 24.474C274.589 24.424 274.583 24.396 274.589 24.4147L278.42 23.2653ZM274.664 20.64C273.891 20.64 273.09 20.8257 272.382 21.3182C271.675 21.8101 271.223 22.4957 270.952 23.2178L274.697 24.6222C274.723 24.5536 274.74 24.5319 274.735 24.5383C274.733 24.5417 274.726 24.5507 274.714 24.563C274.701 24.5754 274.685 24.5888 274.667 24.6018C274.648 24.6148 274.629 24.6251 274.613 24.6328C274.597 24.6405 274.585 24.6442 274.58 24.6456C274.57 24.6483 274.594 24.64 274.664 24.64V20.64ZM270.959 23.198C270.521 24.329 270.344 25.634 270.344 27.04H274.344C274.344 25.9393 274.487 25.1643 274.69 24.642L270.959 23.198ZM270.344 27.04V29.12H274.344V27.04H270.344ZM272.344 27.12H264.264V31.12H272.344V27.12ZM266.264 29.12V27.28H262.264V29.12H266.264ZM266.264 27.28C266.264 25.1392 266.68 23.4128 267.425 22.0282L263.903 20.1318C262.782 22.2138 262.264 24.6208 262.264 27.28H266.264ZM267.42 22.0377C268.216 20.5787 269.256 19.5115 270.54 18.7747L268.549 15.3053C266.58 16.4352 265.033 18.0613 263.909 20.1223L267.42 22.0377ZM270.549 18.7696C271.87 18.0021 273.385 17.6 275.144 17.6V13.6C272.744 13.6 270.525 14.1579 268.54 15.3104L270.549 18.7696ZM275.144 17.6C276.823 17.6 278.171 17.9875 279.271 18.6873L281.418 15.3127C279.585 14.1458 277.466 13.6 275.144 13.6V17.6ZM279.293 18.7012C280.423 19.3999 281.307 20.3751 281.95 21.6826L285.539 19.9174C284.582 17.9716 283.199 16.4135 281.396 15.2988L279.293 18.7012ZM281.968 21.718C282.626 22.9932 282.984 24.5098 282.984 26.32H286.984C286.984 23.9702 286.516 21.8068 285.521 19.882L281.968 21.718ZM282.984 26.32V52.4H286.984V26.32H282.984ZM282.984 52.4C282.984 54.3703 283.038 55.9653 283.154 57.1542L287.135 56.7658C287.038 55.768 286.984 54.323 286.984 52.4H282.984ZM283.154 57.159C283.265 58.2648 283.404 59.3217 283.572 60.3288L287.517 59.6712C287.365 58.7583 287.237 57.7885 287.134 56.761L283.154 57.159ZM285.544 58H277.624V62H285.544V58ZM279.177 58.7388C279.18 58.7425 279.143 58.6992 279.098 58.5655C279.052 58.43 279.004 58.2239 278.975 57.9274L274.994 58.3126C275.093 59.3438 275.381 60.4103 276.072 61.2612L279.177 58.7388ZM278.98 57.9912C278.926 57.1521 278.904 56.6709 278.904 56.48H274.904C274.904 56.8224 274.936 57.4345 274.989 58.2488L278.98 57.9912ZM276.904 54.48H276.344V58.48H276.904V54.48ZM274.587 55.525C274.048 56.5167 273.38 57.288 272.591 57.8751L274.978 61.0849C276.268 60.1253 277.307 58.8967 278.102 57.435L274.587 55.525ZM272.571 57.8901C271.923 58.3846 271.181 58.64 270.264 58.64V62.64C272.015 62.64 273.619 62.1221 274.998 61.0699L272.571 57.8901ZM273.544 54.72C274.99 54.72 276.291 54.2022 277.319 53.1742L274.49 50.3458C274.238 50.5978 273.966 50.72 273.544 50.72V54.72ZM277.289 53.2028C278.249 52.2812 278.904 51.0954 278.904 49.68H274.904C274.904 49.7579 274.893 49.9588 274.519 50.3172L277.289 53.2028ZM278.904 49.68V39.28H274.904V49.68H278.904ZM276.123 37.4391C273.806 38.4229 272.01 39.9673 270.864 42.0901L274.384 43.9899C275.052 42.7527 276.109 41.7905 277.686 41.1209L276.123 37.4391ZM270.859 42.1003C269.808 44.0738 269.304 46.2691 269.304 48.64H273.304C273.304 46.8508 273.68 45.3129 274.39 43.9797L270.859 42.1003ZM269.304 48.64C269.304 49.8076 269.529 50.9558 269.956 52.0743L273.692 50.6457C273.427 49.9509 273.304 49.2857 273.304 48.64H269.304ZM269.956 52.0743C270.217 52.7567 270.627 53.4372 271.274 53.9488C271.948 54.4816 272.739 54.72 273.544 54.72V50.72C273.535 50.72 273.563 50.719 273.614 50.7358C273.667 50.7533 273.717 50.7809 273.755 50.8112C273.829 50.8694 273.778 50.87 273.692 50.6457L269.956 52.0743ZM291.531 56.96L289.953 58.1879L289.959 58.1965L289.966 58.205L291.531 56.96ZM289.411 52.72L287.485 53.2569L287.489 53.2715L287.493 53.286L289.411 52.72ZM288.731 47.28V45.28H286.731V47.28H288.731ZM296.251 47.28H298.251V45.28H296.251V47.28ZM297.091 51.96L295.247 52.7345L295.257 52.7569L295.267 52.7792L297.091 51.96ZM301.051 44.48L299.435 45.658L299.446 45.6735L299.458 45.6888L301.051 44.48ZM297.451 40.28L296.046 41.703L296.052 41.7093L297.451 40.28ZM292.051 33.96L290.397 35.084L290.402 35.0913L290.407 35.0984L292.051 33.96ZM292.531 18.64L291.011 17.3401L292.531 18.64ZM304.771 16.36L304.048 18.2248L304.061 18.2296L304.771 16.36ZM307.971 18.64L309.541 17.4007V17.4007L307.971 18.64ZM309.691 22.36L307.745 22.82L307.749 22.8367L307.753 22.8534L309.691 22.36ZM310.251 27.44V29.44H312.251V27.44H310.251ZM302.731 27.44H300.731V29.44H302.731V27.44ZM298.051 23.56L299.84 24.4544L299.846 24.4428L299.852 24.4311L298.051 23.56ZM298.491 30.56L296.78 31.5948L296.794 31.6184L296.809 31.6415L298.491 30.56ZM302.051 34.68L300.649 36.1057L300.656 36.1125L302.051 34.68ZM307.731 41.16L306.127 42.354L306.131 42.36L306.136 42.3659L307.731 41.16ZM309.611 53.48L307.71 52.8579L307.705 52.8736L307.7 52.8894L309.611 53.48ZM307.571 57.28L306.047 55.9847L306.038 55.9959L306.029 56.0072L307.571 57.28ZM304.331 59.76L303.498 57.9419L303.491 57.9452L303.483 57.9486L304.331 59.76ZM300.011 58.64C298.341 58.64 296.98 58.3578 295.876 57.8581L294.226 61.5019C295.949 62.2822 297.895 62.64 300.011 62.64V58.64ZM295.876 57.8581C294.742 57.3442 293.825 56.6312 293.096 55.715L289.966 58.205C291.104 59.6354 292.534 60.7358 294.226 61.5019L295.876 57.8581ZM293.11 55.7321C292.347 54.7511 291.747 53.5684 291.329 52.154L287.493 53.286C288.036 55.1249 288.849 56.7689 289.953 58.1879L293.11 55.7321ZM291.338 52.1831C290.941 50.7599 290.731 49.1309 290.731 47.28H286.731C286.731 49.4291 286.975 51.4268 287.485 53.2569L291.338 52.1831ZM288.731 49.28H296.251V45.28H288.731V49.28ZM294.251 47.28C294.251 49.2719 294.563 51.1055 295.247 52.7345L298.935 51.1855C298.499 50.1478 298.251 48.8615 298.251 47.28H294.251ZM295.267 52.7792C295.679 53.698 296.287 54.5134 297.147 55.0906C298.013 55.6723 298.999 55.92 300.011 55.92V51.92C299.663 51.92 299.483 51.8411 299.376 51.7694C299.262 51.6932 299.09 51.5287 298.916 51.1408L295.267 52.7792ZM300.011 55.92C300.872 55.92 301.763 55.7386 302.55 55.2276C303.357 54.7041 303.882 53.9462 304.178 53.103L300.404 51.777C300.376 51.8569 300.354 51.8874 300.352 51.8898C300.351 51.8914 300.353 51.8887 300.358 51.884C300.363 51.8792 300.368 51.8751 300.372 51.8724C300.4 51.8548 300.324 51.92 300.011 51.92V55.92ZM304.178 53.103C304.614 51.8617 304.811 50.497 304.811 49.04H300.811C300.811 50.143 300.662 51.045 300.404 51.777L304.178 53.103ZM304.811 49.04C304.811 46.9949 304.002 45.061 302.645 43.2712L299.458 45.6888C300.447 46.9923 300.811 48.0985 300.811 49.04H304.811ZM302.668 43.302C301.463 41.6487 300.191 40.1629 298.85 38.8507L296.052 41.7093C297.218 42.8505 298.347 44.1647 299.435 45.658L302.668 43.302ZM298.857 38.857C296.768 36.7942 295.053 34.7817 293.696 32.8216L290.407 35.0984C291.93 37.2983 293.814 39.4991 296.046 41.703L298.857 38.857ZM293.706 32.836C292.543 31.1246 291.931 29.0864 291.931 26.64H287.931C287.931 29.7936 288.733 32.6354 290.397 35.084L293.706 32.836ZM291.931 26.64C291.931 23.6916 292.697 21.5235 294.051 19.9399L291.011 17.3401C288.899 19.8098 287.931 22.975 287.931 26.64H291.931ZM294.051 19.9399C295.328 18.4466 297.188 17.6 299.931 17.6V13.6C296.275 13.6 293.201 14.78 291.011 17.3401L294.051 19.9399ZM299.931 17.6C301.689 17.6 303.04 17.8339 304.048 18.2247L305.494 14.4953C303.889 13.8728 302.013 13.6 299.931 13.6V17.6ZM304.061 18.2296C305.092 18.6216 305.849 19.179 306.401 19.8793L309.541 17.4007C308.494 16.0743 307.117 15.1117 305.482 14.4904L304.061 18.2296ZM306.401 19.8793C306.993 20.6282 307.454 21.5903 307.745 22.82L311.638 21.8999C311.235 20.1964 310.55 18.6784 309.541 17.4007L306.401 19.8793ZM307.753 22.8534C308.076 24.1224 308.251 25.6442 308.251 27.44H312.251C312.251 25.3958 312.053 23.5309 311.629 21.8666L307.753 22.8534ZM310.251 25.44H302.731V29.44H310.251V25.44ZM304.731 27.44C304.731 25.9206 304.571 24.5244 304.212 23.2839L300.37 24.3961C300.598 25.1823 300.731 26.1861 300.731 27.44H304.731ZM304.212 23.2839C303.962 22.4194 303.471 21.6159 302.658 21.0545C301.866 20.5074 300.957 20.32 300.091 20.32V24.32C300.399 24.32 300.443 24.386 300.384 24.3455C300.357 24.3266 300.338 24.3046 300.331 24.2944C300.327 24.2878 300.346 24.3136 300.37 24.3961L304.212 23.2839ZM300.091 20.32C299.321 20.32 298.535 20.4881 297.822 20.921C297.105 21.3571 296.592 21.9834 296.251 22.6889L299.852 24.4311C299.883 24.3659 299.906 24.3376 299.912 24.3311C299.916 24.326 299.912 24.332 299.9 24.339C299.889 24.3459 299.889 24.3427 299.913 24.3369C299.938 24.3305 299.994 24.32 300.091 24.32V20.32ZM296.262 22.6656C295.679 23.8318 295.451 25.1932 295.451 26.64H299.451C299.451 25.5801 299.623 24.8882 299.84 24.4544L296.262 22.6656ZM295.451 26.64C295.451 28.4358 295.88 30.1069 296.78 31.5948L300.203 29.5252C299.716 28.7198 299.451 27.7775 299.451 26.64H295.451ZM296.809 31.6415C297.647 32.9451 298.955 34.4395 300.649 36.1057L303.454 33.2543C301.841 31.6672 300.776 30.4149 300.174 29.4785L296.809 31.6415ZM300.656 36.1125C302.661 38.0665 304.484 40.1469 306.127 42.354L309.336 39.966C307.565 37.5864 305.602 35.3469 303.447 33.2475L300.656 36.1125ZM306.136 42.3659C307.625 44.3369 308.331 46.4122 308.331 48.64H312.331C312.331 45.4812 311.304 42.5697 309.327 39.9541L306.136 42.3659ZM308.331 48.64C308.331 50.2179 308.116 51.618 307.71 52.8579L311.512 54.1021C312.066 52.4086 312.331 50.5821 312.331 48.64H308.331ZM307.7 52.8894C307.319 54.1225 306.762 55.1435 306.047 55.9847L309.095 58.5753C310.193 57.2832 310.997 55.7708 311.522 54.0706L307.7 52.8894ZM306.029 56.0072C305.344 56.8365 304.508 57.4787 303.498 57.9419L305.165 61.5781C306.714 60.868 308.038 59.8568 309.114 58.5528L306.029 56.0072ZM303.483 57.9486C302.538 58.3911 301.396 58.64 300.011 58.64V62.64C301.88 62.64 303.618 62.3022 305.179 61.5714L303.483 57.9486ZM321.196 44.16H319.196V46.16H321.196V44.16ZM322.316 27.36L324.201 28.0281L324.203 28.0207L322.316 27.36ZM324.916 21.36L323.158 20.4058L323.153 20.4156L323.147 20.4254L324.916 21.36ZM327.556 16.12L329.373 16.9544L329.378 16.9432L327.556 16.12ZM327.956 9.32L326.347 10.5088L326.364 10.5309L326.381 10.5526L327.956 9.32ZM322.796 10.08L324.405 11.2677V11.2677L322.796 10.08ZM320.876 14.08L320.023 15.8892L322.137 16.8856L322.795 14.6425L320.876 14.08ZM313.916 10.8L311.995 10.2432L311.52 11.8819L313.063 12.6092L313.916 10.8ZM316.556 5.8L315.01 4.53052L316.556 5.8ZM320.836 2.24L321.787 3.99911L321.797 3.99362L320.836 2.24ZM331.756 2.32L332.797 0.61272L331.756 2.32ZM335.316 6.28L333.51 7.13987L333.515 7.15148L333.521 7.16301L335.316 6.28ZM335.356 17.52L333.545 16.6711L335.356 17.52ZM332.596 22.64L334.296 23.6927L334.303 23.6807L332.596 22.64ZM329.836 28L331.674 28.7878L331.678 28.7784L329.836 28ZM328.636 44.16V46.16H330.636V44.16H328.636ZM320.716 60H318.716V62H320.716V60ZM320.716 51.12V49.12H318.716V51.12H320.716ZM329.116 51.12H331.116V49.12H329.116V51.12ZM329.116 60V62H331.116V60H329.116ZM323.196 44.16V34.16H319.196V44.16H323.196ZM323.196 34.16C323.196 31.9414 323.536 29.9026 324.201 28.0281L320.431 26.6919C319.602 29.0307 319.196 31.5252 319.196 34.16H323.196ZM324.203 28.0207C324.919 25.975 325.747 24.0672 326.684 22.2946L323.147 20.4254C322.111 22.3862 321.205 24.4784 320.428 26.6993L324.203 28.0207ZM326.673 22.3142C327.704 20.4152 328.605 18.6283 329.373 16.9543L325.738 15.2857C325.013 16.8651 324.154 18.5714 323.158 20.4058L326.673 22.3142ZM329.378 16.9432C330.212 15.0962 330.676 13.2675 330.676 11.48H326.676C326.676 12.5725 326.392 13.8371 325.733 15.2968L329.378 16.9432ZM330.676 11.48C330.676 10.2359 330.304 9.07506 329.531 8.08738L326.381 10.5526C326.568 10.7916 326.676 11.0707 326.676 11.48H330.676ZM329.564 8.13122C328.685 6.94166 327.397 6.4 325.996 6.4V10.4C326.182 10.4 326.259 10.4327 326.276 10.4405C326.286 10.4451 326.292 10.4495 326.3 10.4555C326.307 10.4618 326.324 10.477 326.347 10.5088L329.564 8.13122ZM325.996 6.4C324.007 6.4 322.361 7.30044 321.186 8.8923L324.405 11.2677C324.883 10.6196 325.371 10.4 325.996 10.4V6.4ZM321.186 8.89229C320.201 10.2281 319.465 11.7807 318.956 13.5175L322.795 14.6425C323.193 13.2859 323.737 12.1719 324.405 11.2677L321.186 8.89229ZM321.728 12.2708L314.768 8.99083L313.063 12.6092L320.023 15.8892L321.728 12.2708ZM315.837 11.3568C316.294 9.77971 317.045 8.35507 318.101 7.06948L315.01 4.53052C313.613 6.2316 312.604 8.14029 311.995 10.2432L315.837 11.3568ZM318.101 7.06948C319.171 5.76711 320.399 4.75035 321.787 3.99908L319.884 0.480909C318.019 1.48964 316.394 2.84623 315.01 4.53052L318.101 7.06948ZM321.797 3.99362C323.178 3.23671 324.556 2.88 325.956 2.88V-1.12C323.836 -1.12 321.8 -0.570049 319.874 0.486369L321.797 3.99362ZM325.956 2.88C327.971 2.88 329.523 3.30043 330.714 4.02728L332.797 0.61272C330.842 -0.580428 328.527 -1.12 325.956 -1.12V2.88ZM330.714 4.02728C331.952 4.78293 332.875 5.80695 333.51 7.13987L337.121 5.42013C336.156 3.39305 334.706 1.77707 332.797 0.61272L330.714 4.02728ZM333.521 7.16301C334.192 8.52574 334.556 10.1483 334.556 12.08H338.556C338.556 9.63838 338.093 7.39425 337.11 5.39698L333.521 7.16301ZM334.556 12.08C334.556 13.7122 334.218 15.2352 333.545 16.6711L337.167 18.3689C338.093 16.3915 338.556 14.2878 338.556 12.08H334.556ZM333.545 16.6711C332.777 18.3082 331.892 19.9509 330.888 21.5993L334.303 23.6807C335.379 21.9157 336.334 20.1451 337.167 18.3689L333.545 16.6711ZM330.895 21.5873C329.799 23.3584 328.832 25.2371 327.993 27.2216L331.678 28.7784C332.439 26.9762 333.313 25.2816 334.296 23.6927L330.895 21.5873ZM327.997 27.2122C327.08 29.3523 326.636 31.6772 326.636 34.16H330.636C330.636 32.1628 330.991 30.381 331.674 28.7878L327.997 27.2122ZM326.636 34.16V44.16H330.636V34.16H326.636ZM328.636 42.16H321.196V46.16H328.636V42.16ZM322.716 60V51.12H318.716V60H322.716ZM320.716 53.12H329.116V49.12H320.716V53.12ZM327.116 51.12V60H331.116V51.12H327.116ZM329.116 58H320.716V62H329.116V58Z" fill="#DE299C" mask="url(#path-1-outside-1_5_681)"/>
</g>
<defs>
<filter id="filter0_d_5_681" x="0.799805" y="0.560059" width="339.756" height="64.0798" filterUnits="userSpaceOnUse" color-interpolation-filters="sRGB">
<feFlood flood-opacity="0" result="BackgroundImageFix"/>
<feColorMatrix in="SourceAlpha" type="matrix" values="0 0 0 0 0 0 0 0 0 0 0 0 0 0 0 0 0 0 127 0" result="hardAlpha"/>
<feOffset dx="4" dy="4"/>
<feComposite in2="hardAlpha" operator="out"/>
<feColorMatrix type="matrix" values="0 0 0 0 0.870588 0 0 0 0 0.160784 0 0 0 0 0.611765 0 0 0 1 0"/>
<feBlend mode="normal" in2="BackgroundImageFix" result="effect1_dropShadow_5_681"/>
<feBlend mode="normal" in="SourceGraphic" in2="effect1_dropShadow_5_681" result="shape"/>
</filter>
</defs>
</svg>
