<svg width="271" height="79" viewBox="0 0 271 79" fill="none" xmlns="http://www.w3.org/2000/svg">
<g filter="url(#filter0_d_4_639)">
<mask id="path-1-outside-1_4_639" maskUnits="userSpaceOnUse" x="-2" y="-2" width="271" height="79" fill="black">
<rect fill="white" x="-2" y="-2" width="271" height="79"/>
<path d="M0.2 59V0.199999H8.84C14.0133 0.199999 17.8267 1.64 20.28 4.52C22.7333 7.37333 23.96 11.5867 23.96 17.16C23.96 20.4667 23.3733 23.3333 22.2 25.76C21.0533 28.16 19.6533 29.92 18 31.04L23.88 59H15.24L10.36 34.2H8.84V59H0.2ZM8.84 26.2C10.44 26.2 11.7067 25.8533 12.64 25.16C13.5733 24.44 14.24 23.4267 14.64 22.12C15.04 20.8133 15.24 19.2667 15.24 17.48C15.24 14.68 14.7733 12.5333 13.84 11.04C12.9333 9.52 11.2667 8.76 8.84 8.76V26.2ZM37.5938 59.64C34.3671 59.64 31.8204 58.5333 29.9538 56.32C28.1138 54.08 27.1938 51.3467 27.1938 48.12V26.12C27.1938 22.7067 28.1138 19.9333 29.9538 17.8C31.7938 15.6667 34.3671 14.6 37.6738 14.6C39.8338 14.6 41.6871 15.0933 43.2338 16.08C44.8071 17.0667 46.0071 18.4133 46.8338 20.12C47.6604 21.8 48.0738 23.72 48.0738 25.88V38.6H34.7138V48.12C34.7138 49.2133 34.9538 50.2267 35.4338 51.16C35.9404 52.0667 36.6871 52.52 37.6738 52.52C38.7138 52.52 39.4471 52.0933 39.8738 51.24C40.3271 50.3867 40.5538 49.3467 40.5538 48.12V43.32H48.0738V48.36C48.0738 51.7467 47.1538 54.48 45.3138 56.56C43.5004 58.6133 40.9271 59.64 37.5938 59.64ZM34.7138 32.28H40.5538V26.12C40.5538 24.92 40.3404 23.88 39.9138 23C39.5138 22.0933 38.7671 21.64 37.6738 21.64C36.6604 21.64 35.9138 22.1067 35.4338 23.04C34.9538 23.9467 34.7138 24.9733 34.7138 26.12V32.28ZM63.2163 74.68C60.9496 74.68 58.8296 74.4267 56.8563 73.92C54.8829 73.4133 53.2829 72.5867 52.0563 71.44C50.8563 70.32 50.2563 68.84 50.2563 67C50.2563 65.5867 50.6429 64.36 51.4163 63.32C52.2163 62.28 53.1229 61.4267 54.1363 60.76C55.1496 60.12 55.9629 59.72 56.5763 59.56C55.2696 59.1867 54.1229 58.5467 53.1363 57.64C52.1763 56.7333 51.6963 55.4267 51.6963 53.72C51.6963 52.0667 52.2296 50.72 53.2963 49.68C54.3629 48.64 55.5096 47.8 56.7363 47.16C55.2696 46.2 54.1229 44.9467 53.2963 43.4C52.4963 41.8267 52.0963 39.9067 52.0963 37.64V25.72C52.0963 22.44 53.0029 19.7733 54.8163 17.72C56.6563 15.64 59.1629 14.6 62.3363 14.6C64.3896 14.6 66.0563 15 67.3363 15.8C68.6429 16.5733 69.6696 17.5067 70.4163 18.6C71.1896 17.2933 72.2296 16.3067 73.5363 15.64C74.8429 14.9467 76.0163 14.6 77.0563 14.6V21.8C75.9896 21.8 75.0563 21.8933 74.2563 22.08C73.4563 22.24 72.8163 22.4667 72.3363 22.76C72.4163 22.9467 72.4963 23.3333 72.5763 23.92C72.6829 24.5067 72.7363 25.0267 72.7363 25.48V37.88C72.7363 40.9733 71.7896 43.5467 69.8963 45.6C68.0029 47.6533 65.4829 48.68 62.3363 48.68C61.5896 48.68 61.0829 48.6533 60.8163 48.6C60.4696 48.92 60.1896 49.24 59.9763 49.56C59.7896 49.88 59.6963 50.2267 59.6963 50.6C59.6963 51.4533 60.1763 52.0667 61.1363 52.44C62.1229 52.7867 63.4296 53.08 65.0563 53.32C68.4963 53.8267 71.2829 54.8267 73.4163 56.32C75.5763 57.8133 76.6563 60.2 76.6563 63.48C76.6563 66.04 76.0029 68.1467 74.6963 69.8C73.4163 71.4533 71.7496 72.68 69.6963 73.48C67.6429 74.28 65.4829 74.68 63.2163 74.68ZM63.3763 67.88C64.7096 67.88 65.8696 67.64 66.8563 67.16C67.8429 66.68 68.3363 65.9333 68.3363 64.92C68.3363 63.9067 68.0296 63.2133 67.4163 62.84C66.8296 62.4933 65.8296 62.1467 64.4163 61.8L61.0563 61C60.2296 61.48 59.5229 62.0267 58.9363 62.64C58.3763 63.2533 58.0963 63.9867 58.0963 64.84C58.0963 65.6667 58.5096 66.3733 59.3363 66.96C60.1629 67.5733 61.5096 67.88 63.3763 67.88ZM62.4163 41.96C63.2696 41.96 63.8829 41.6667 64.2563 41.08C64.6296 40.4933 64.8163 39.6133 64.8163 38.44V25.64C64.8163 24.5733 64.6429 23.7067 64.2963 23.04C63.9496 22.3733 63.3229 22.04 62.4163 22.04C61.5096 22.04 60.8829 22.3867 60.5363 23.08C60.1896 23.7733 60.0163 24.6267 60.0163 25.64V38.44C60.0163 39.6133 60.2029 40.4933 60.5763 41.08C60.9496 41.6667 61.5629 41.96 62.4163 41.96ZM85.3144 59.64C83.981 59.64 82.861 59.2133 81.9544 58.36C81.0477 57.5067 80.3677 56.4267 79.9144 55.12C79.461 53.7867 79.2344 52.44 79.2344 51.08V15.24H87.3144V49.48C87.3144 50.3067 87.461 50.9067 87.7544 51.28C88.0744 51.6267 88.5677 51.8 89.2344 51.8C89.821 51.8 90.3144 51.6 90.7144 51.2C91.141 50.7733 91.5277 50.28 91.8744 49.72V15.24H99.9544V59H91.8744V55.32C90.9144 56.2267 89.8344 57.1733 88.6344 58.16C87.4344 59.1467 86.3277 59.64 85.3144 59.64ZM104.322 59V0.199999H112.402V59H104.322ZM123.093 59.64C121.226 59.64 119.613 58.6933 118.253 56.8C116.893 54.9067 116.213 52.0133 116.213 48.12C116.213 44.36 117.013 41.3333 118.613 39.04C120.239 36.7467 122.666 34.76 125.893 33.08C126.906 32.5467 127.759 32.0667 128.453 31.64C129.146 31.2133 129.573 30.8133 129.733 30.44V25.64C129.733 24.5467 129.599 23.6133 129.333 22.84C129.093 22.04 128.479 21.64 127.493 21.64C126.586 21.64 125.973 22.0667 125.653 22.92C125.333 23.7467 125.173 24.7867 125.173 26.04V28.12H117.093V26.28C117.093 23.88 117.559 21.8133 118.493 20.08C119.453 18.32 120.746 16.9733 122.373 16.04C124.026 15.08 125.893 14.6 127.973 14.6C129.973 14.6 131.706 15.0667 133.173 16C134.639 16.9067 135.773 18.1733 136.573 19.8C137.399 21.4 137.813 23.24 137.813 25.32V51.4C137.813 53.3467 137.866 54.8667 137.973 55.96C138.079 57.0267 138.213 58.04 138.373 59H130.453C130.106 58.5733 129.893 57.9467 129.813 57.12C129.759 56.2933 129.733 55.7467 129.733 55.48H129.173C128.506 56.7067 127.653 57.7067 126.613 58.48C125.599 59.2533 124.426 59.64 123.093 59.64ZM126.373 51.72C127.306 51.72 128.093 51.4 128.733 50.76C129.399 50.12 129.733 49.4267 129.733 48.68V38.28C127.786 39.1067 126.359 40.36 125.453 42.04C124.573 43.6933 124.133 45.56 124.133 47.64C124.133 48.5467 124.306 49.4533 124.653 50.36C124.999 51.2667 125.573 51.72 126.373 51.72ZM142.359 59V15.24H150.439V18.92C151.746 17.72 152.933 16.7067 153.999 15.88C155.093 15.0267 156.146 14.6 157.159 14.6C158.599 14.6 159.759 15.0933 160.639 16.08C161.519 17.0667 162.173 18.2 162.599 19.48C163.746 18.3067 164.933 17.2 166.159 16.16C167.413 15.12 168.679 14.6 169.959 14.6C171.293 14.6 172.413 15.0267 173.319 15.88C174.226 16.7333 174.906 17.8133 175.359 19.12C175.813 20.4267 176.039 21.7733 176.039 23.16V59H168.439V24.76C168.439 23.9067 168.226 23.3067 167.799 22.96C167.399 22.6133 166.893 22.44 166.279 22.44C165.666 22.44 165.079 22.68 164.519 23.16C163.959 23.6133 163.533 24.0667 163.239 24.52V59H155.639V24.76C155.639 23.9067 155.426 23.3067 154.999 22.96C154.599 22.6133 154.093 22.44 153.479 22.44C152.866 22.44 152.279 22.68 151.719 23.16C151.159 23.6133 150.733 24.0667 150.439 24.52V59H142.359ZM190.016 59.64C186.789 59.64 184.242 58.5333 182.376 56.32C180.536 54.08 179.616 51.3467 179.616 48.12V26.12C179.616 22.7067 180.536 19.9333 182.376 17.8C184.216 15.6667 186.789 14.6 190.096 14.6C192.256 14.6 194.109 15.0933 195.656 16.08C197.229 17.0667 198.429 18.4133 199.256 20.12C200.082 21.8 200.496 23.72 200.496 25.88V38.6H187.136V48.12C187.136 49.2133 187.376 50.2267 187.856 51.16C188.362 52.0667 189.109 52.52 190.096 52.52C191.136 52.52 191.869 52.0933 192.296 51.24C192.749 50.3867 192.976 49.3467 192.976 48.12V43.32H200.496V48.36C200.496 51.7467 199.576 54.48 197.736 56.56C195.922 58.6133 193.349 59.64 190.016 59.64ZM187.136 32.28H192.976V26.12C192.976 24.92 192.762 23.88 192.336 23C191.936 22.0933 191.189 21.64 190.096 21.64C189.082 21.64 188.336 22.1067 187.856 23.04C187.376 23.9467 187.136 24.9733 187.136 26.12V32.28ZM203.922 59V15.24H212.002V18.92C212.962 17.9867 214.042 17.04 215.242 16.08C216.442 15.0933 217.549 14.6 218.562 14.6C219.895 14.6 221.015 15.0267 221.922 15.88C222.829 16.7333 223.509 17.8133 223.962 19.12C224.415 20.4267 224.642 21.7733 224.642 23.16V59H216.562V24.76C216.562 23.9067 216.415 23.3067 216.122 22.96C215.829 22.6133 215.335 22.44 214.642 22.44C214.055 22.44 213.549 22.6533 213.122 23.08C212.722 23.48 212.349 23.96 212.002 24.52V59H203.922ZM239.901 59.64C237.367 59.64 235.434 59.08 234.101 57.96C232.767 56.84 231.847 55.24 231.341 53.16C230.861 51.08 230.621 48.6 230.621 45.72V22.52H226.541V15.24H230.621V4.44H238.701V15.24H244.261V22.52H238.701V46.88C238.701 48.5867 238.954 49.8533 239.461 50.68C239.967 51.48 240.794 51.88 241.941 51.88C242.447 51.88 242.887 51.84 243.261 51.76C243.661 51.68 243.981 51.5867 244.221 51.48V58.88C243.687 59.0933 243.101 59.2667 242.461 59.4C241.847 59.56 240.994 59.64 239.901 59.64ZM256.616 59.56C253.39 59.56 250.856 58.48 249.016 56.32C247.176 54.1333 246.256 51.3733 246.256 48.04V26.12C246.256 22.7867 247.176 20.04 249.016 17.88C250.856 15.6933 253.39 14.6 256.616 14.6C259.816 14.6 262.336 15.6933 264.176 17.88C266.043 20.04 266.976 22.7867 266.976 26.12V48.04C266.976 51.3733 266.043 54.1333 264.176 56.32C262.336 58.48 259.816 59.56 256.616 59.56ZM256.616 52.52C257.656 52.52 258.376 52.1067 258.776 51.28C259.176 50.4267 259.376 49.3467 259.376 48.04V26.12C259.376 24.7867 259.176 23.7067 258.776 22.88C258.376 22.0533 257.656 21.64 256.616 21.64C255.576 21.64 254.856 22.0533 254.456 22.88C254.056 23.7067 253.856 24.7867 253.856 26.12V48.04C253.856 49.3733 254.056 50.4533 254.456 51.28C254.856 52.1067 255.576 52.52 256.616 52.52Z"/>
</mask>
<path d="M0.2 59V0.199999H8.84C14.0133 0.199999 17.8267 1.64 20.28 4.52C22.7333 7.37333 23.96 11.5867 23.96 17.16C23.96 20.4667 23.3733 23.3333 22.2 25.76C21.0533 28.16 19.6533 29.92 18 31.04L23.88 59H15.24L10.36 34.2H8.84V59H0.2ZM8.84 26.2C10.44 26.2 11.7067 25.8533 12.64 25.16C13.5733 24.44 14.24 23.4267 14.64 22.12C15.04 20.8133 15.24 19.2667 15.24 17.48C15.24 14.68 14.7733 12.5333 13.84 11.04C12.9333 9.52 11.2667 8.76 8.84 8.76V26.2ZM37.5938 59.64C34.3671 59.64 31.8204 58.5333 29.9538 56.32C28.1138 54.08 27.1938 51.3467 27.1938 48.12V26.12C27.1938 22.7067 28.1138 19.9333 29.9538 17.8C31.7938 15.6667 34.3671 14.6 37.6738 14.6C39.8338 14.6 41.6871 15.0933 43.2338 16.08C44.8071 17.0667 46.0071 18.4133 46.8338 20.12C47.6604 21.8 48.0738 23.72 48.0738 25.88V38.6H34.7138V48.12C34.7138 49.2133 34.9538 50.2267 35.4338 51.16C35.9404 52.0667 36.6871 52.52 37.6738 52.52C38.7138 52.52 39.4471 52.0933 39.8738 51.24C40.3271 50.3867 40.5538 49.3467 40.5538 48.12V43.32H48.0738V48.36C48.0738 51.7467 47.1538 54.48 45.3138 56.56C43.5004 58.6133 40.9271 59.64 37.5938 59.64ZM34.7138 32.28H40.5538V26.12C40.5538 24.92 40.3404 23.88 39.9138 23C39.5138 22.0933 38.7671 21.64 37.6738 21.64C36.6604 21.64 35.9138 22.1067 35.4338 23.04C34.9538 23.9467 34.7138 24.9733 34.7138 26.12V32.28ZM63.2163 74.68C60.9496 74.68 58.8296 74.4267 56.8563 73.92C54.8829 73.4133 53.2829 72.5867 52.0563 71.44C50.8563 70.32 50.2563 68.84 50.2563 67C50.2563 65.5867 50.6429 64.36 51.4163 63.32C52.2163 62.28 53.1229 61.4267 54.1363 60.76C55.1496 60.12 55.9629 59.72 56.5763 59.56C55.2696 59.1867 54.1229 58.5467 53.1363 57.64C52.1763 56.7333 51.6963 55.4267 51.6963 53.72C51.6963 52.0667 52.2296 50.72 53.2963 49.68C54.3629 48.64 55.5096 47.8 56.7363 47.16C55.2696 46.2 54.1229 44.9467 53.2963 43.4C52.4963 41.8267 52.0963 39.9067 52.0963 37.64V25.72C52.0963 22.44 53.0029 19.7733 54.8163 17.72C56.6563 15.64 59.1629 14.6 62.3363 14.6C64.3896 14.6 66.0563 15 67.3363 15.8C68.6429 16.5733 69.6696 17.5067 70.4163 18.6C71.1896 17.2933 72.2296 16.3067 73.5363 15.64C74.8429 14.9467 76.0163 14.6 77.0563 14.6V21.8C75.9896 21.8 75.0563 21.8933 74.2563 22.08C73.4563 22.24 72.8163 22.4667 72.3363 22.76C72.4163 22.9467 72.4963 23.3333 72.5763 23.92C72.6829 24.5067 72.7363 25.0267 72.7363 25.48V37.88C72.7363 40.9733 71.7896 43.5467 69.8963 45.6C68.0029 47.6533 65.4829 48.68 62.3363 48.68C61.5896 48.68 61.0829 48.6533 60.8163 48.6C60.4696 48.92 60.1896 49.24 59.9763 49.56C59.7896 49.88 59.6963 50.2267 59.6963 50.6C59.6963 51.4533 60.1763 52.0667 61.1363 52.44C62.1229 52.7867 63.4296 53.08 65.0563 53.32C68.4963 53.8267 71.2829 54.8267 73.4163 56.32C75.5763 57.8133 76.6563 60.2 76.6563 63.48C76.6563 66.04 76.0029 68.1467 74.6963 69.8C73.4163 71.4533 71.7496 72.68 69.6963 73.48C67.6429 74.28 65.4829 74.68 63.2163 74.68ZM63.3763 67.88C64.7096 67.88 65.8696 67.64 66.8563 67.16C67.8429 66.68 68.3363 65.9333 68.3363 64.92C68.3363 63.9067 68.0296 63.2133 67.4163 62.84C66.8296 62.4933 65.8296 62.1467 64.4163 61.8L61.0563 61C60.2296 61.48 59.5229 62.0267 58.9363 62.64C58.3763 63.2533 58.0963 63.9867 58.0963 64.84C58.0963 65.6667 58.5096 66.3733 59.3363 66.96C60.1629 67.5733 61.5096 67.88 63.3763 67.88ZM62.4163 41.96C63.2696 41.96 63.8829 41.6667 64.2563 41.08C64.6296 40.4933 64.8163 39.6133 64.8163 38.44V25.64C64.8163 24.5733 64.6429 23.7067 64.2963 23.04C63.9496 22.3733 63.3229 22.04 62.4163 22.04C61.5096 22.04 60.8829 22.3867 60.5363 23.08C60.1896 23.7733 60.0163 24.6267 60.0163 25.64V38.44C60.0163 39.6133 60.2029 40.4933 60.5763 41.08C60.9496 41.6667 61.5629 41.96 62.4163 41.96ZM85.3144 59.64C83.981 59.64 82.861 59.2133 81.9544 58.36C81.0477 57.5067 80.3677 56.4267 79.9144 55.12C79.461 53.7867 79.2344 52.44 79.2344 51.08V15.24H87.3144V49.48C87.3144 50.3067 87.461 50.9067 87.7544 51.28C88.0744 51.6267 88.5677 51.8 89.2344 51.8C89.821 51.8 90.3144 51.6 90.7144 51.2C91.141 50.7733 91.5277 50.28 91.8744 49.72V15.24H99.9544V59H91.8744V55.32C90.9144 56.2267 89.8344 57.1733 88.6344 58.16C87.4344 59.1467 86.3277 59.64 85.3144 59.64ZM104.322 59V0.199999H112.402V59H104.322ZM123.093 59.64C121.226 59.64 119.613 58.6933 118.253 56.8C116.893 54.9067 116.213 52.0133 116.213 48.12C116.213 44.36 117.013 41.3333 118.613 39.04C120.239 36.7467 122.666 34.76 125.893 33.08C126.906 32.5467 127.759 32.0667 128.453 31.64C129.146 31.2133 129.573 30.8133 129.733 30.44V25.64C129.733 24.5467 129.599 23.6133 129.333 22.84C129.093 22.04 128.479 21.64 127.493 21.64C126.586 21.64 125.973 22.0667 125.653 22.92C125.333 23.7467 125.173 24.7867 125.173 26.04V28.12H117.093V26.28C117.093 23.88 117.559 21.8133 118.493 20.08C119.453 18.32 120.746 16.9733 122.373 16.04C124.026 15.08 125.893 14.6 127.973 14.6C129.973 14.6 131.706 15.0667 133.173 16C134.639 16.9067 135.773 18.1733 136.573 19.8C137.399 21.4 137.813 23.24 137.813 25.32V51.4C137.813 53.3467 137.866 54.8667 137.973 55.96C138.079 57.0267 138.213 58.04 138.373 59H130.453C130.106 58.5733 129.893 57.9467 129.813 57.12C129.759 56.2933 129.733 55.7467 129.733 55.48H129.173C128.506 56.7067 127.653 57.7067 126.613 58.48C125.599 59.2533 124.426 59.64 123.093 59.64ZM126.373 51.72C127.306 51.72 128.093 51.4 128.733 50.76C129.399 50.12 129.733 49.4267 129.733 48.68V38.28C127.786 39.1067 126.359 40.36 125.453 42.04C124.573 43.6933 124.133 45.56 124.133 47.64C124.133 48.5467 124.306 49.4533 124.653 50.36C124.999 51.2667 125.573 51.72 126.373 51.72ZM142.359 59V15.24H150.439V18.92C151.746 17.72 152.933 16.7067 153.999 15.88C155.093 15.0267 156.146 14.6 157.159 14.6C158.599 14.6 159.759 15.0933 160.639 16.08C161.519 17.0667 162.173 18.2 162.599 19.48C163.746 18.3067 164.933 17.2 166.159 16.16C167.413 15.12 168.679 14.6 169.959 14.6C171.293 14.6 172.413 15.0267 173.319 15.88C174.226 16.7333 174.906 17.8133 175.359 19.12C175.813 20.4267 176.039 21.7733 176.039 23.16V59H168.439V24.76C168.439 23.9067 168.226 23.3067 167.799 22.96C167.399 22.6133 166.893 22.44 166.279 22.44C165.666 22.44 165.079 22.68 164.519 23.16C163.959 23.6133 163.533 24.0667 163.239 24.52V59H155.639V24.76C155.639 23.9067 155.426 23.3067 154.999 22.96C154.599 22.6133 154.093 22.44 153.479 22.44C152.866 22.44 152.279 22.68 151.719 23.16C151.159 23.6133 150.733 24.0667 150.439 24.52V59H142.359ZM190.016 59.64C186.789 59.64 184.242 58.5333 182.376 56.32C180.536 54.08 179.616 51.3467 179.616 48.12V26.12C179.616 22.7067 180.536 19.9333 182.376 17.8C184.216 15.6667 186.789 14.6 190.096 14.6C192.256 14.6 194.109 15.0933 195.656 16.08C197.229 17.0667 198.429 18.4133 199.256 20.12C200.082 21.8 200.496 23.72 200.496 25.88V38.6H187.136V48.12C187.136 49.2133 187.376 50.2267 187.856 51.16C188.362 52.0667 189.109 52.52 190.096 52.52C191.136 52.52 191.869 52.0933 192.296 51.24C192.749 50.3867 192.976 49.3467 192.976 48.12V43.32H200.496V48.36C200.496 51.7467 199.576 54.48 197.736 56.56C195.922 58.6133 193.349 59.64 190.016 59.64ZM187.136 32.28H192.976V26.12C192.976 24.92 192.762 23.88 192.336 23C191.936 22.0933 191.189 21.64 190.096 21.64C189.082 21.64 188.336 22.1067 187.856 23.04C187.376 23.9467 187.136 24.9733 187.136 26.12V32.28ZM203.922 59V15.24H212.002V18.92C212.962 17.9867 214.042 17.04 215.242 16.08C216.442 15.0933 217.549 14.6 218.562 14.6C219.895 14.6 221.015 15.0267 221.922 15.88C222.829 16.7333 223.509 17.8133 223.962 19.12C224.415 20.4267 224.642 21.7733 224.642 23.16V59H216.562V24.76C216.562 23.9067 216.415 23.3067 216.122 22.96C215.829 22.6133 215.335 22.44 214.642 22.44C214.055 22.44 213.549 22.6533 213.122 23.08C212.722 23.48 212.349 23.96 212.002 24.52V59H203.922ZM239.901 59.64C237.367 59.64 235.434 59.08 234.101 57.96C232.767 56.84 231.847 55.24 231.341 53.16C230.861 51.08 230.621 48.6 230.621 45.72V22.52H226.541V15.24H230.621V4.44H238.701V15.24H244.261V22.52H238.701V46.88C238.701 48.5867 238.954 49.8533 239.461 50.68C239.967 51.48 240.794 51.88 241.941 51.88C242.447 51.88 242.887 51.84 243.261 51.76C243.661 51.68 243.981 51.5867 244.221 51.48V58.88C243.687 59.0933 243.101 59.2667 242.461 59.4C241.847 59.56 240.994 59.64 239.901 59.64ZM256.616 59.56C253.39 59.56 250.856 58.48 249.016 56.32C247.176 54.1333 246.256 51.3733 246.256 48.04V26.12C246.256 22.7867 247.176 20.04 249.016 17.88C250.856 15.6933 253.39 14.6 256.616 14.6C259.816 14.6 262.336 15.6933 264.176 17.88C266.043 20.04 266.976 22.7867 266.976 26.12V48.04C266.976 51.3733 266.043 54.1333 264.176 56.32C262.336 58.48 259.816 59.56 256.616 59.56ZM256.616 52.52C257.656 52.52 258.376 52.1067 258.776 51.28C259.176 50.4267 259.376 49.3467 259.376 48.04V26.12C259.376 24.7867 259.176 23.7067 258.776 22.88C258.376 22.0533 257.656 21.64 256.616 21.64C255.576 21.64 254.856 22.0533 254.456 22.88C254.056 23.7067 253.856 24.7867 253.856 26.12V48.04C253.856 49.3733 254.056 50.4533 254.456 51.28C254.856 52.1067 255.576 52.52 256.616 52.52Z" fill="white"/>
<path d="M0.2 59H-1.8V61H0.2V59ZM0.2 0.199999V-1.8H-1.8V0.199999H0.2ZM20.28 4.52L18.7575 5.81694L18.7635 5.82391L20.28 4.52ZM22.2 25.76L20.3994 24.8894L20.3954 24.8978L22.2 25.76ZM18 31.04L16.8783 29.3842L15.7664 30.1374L16.0428 31.4516L18 31.04ZM23.88 59V61H26.3444L25.8372 58.5884L23.88 59ZM15.24 59L13.2776 59.3861L13.5952 61H15.24V59ZM10.36 34.2L12.3224 33.8139L12.0048 32.2H10.36V34.2ZM8.84 34.2V32.2H6.84V34.2H8.84ZM8.84 59V61H10.84V59H8.84ZM8.84 26.2H6.84V28.2H8.84V26.2ZM12.64 25.16L13.8326 26.7655L13.8472 26.7547L13.8616 26.7436L12.64 25.16ZM14.64 22.12L12.7276 21.5346H12.7276L14.64 22.12ZM13.84 11.04L12.1224 12.0646L12.133 12.0824L12.144 12.1L13.84 11.04ZM8.84 8.76V6.76H6.84V8.76H8.84ZM2.2 59V0.199999H-1.8V59H2.2ZM0.2 2.2H8.84V-1.8H0.2V2.2ZM8.84 2.2C13.6536 2.2 16.8098 3.53046 18.7575 5.81693L21.8025 3.22306C18.8436 -0.250465 14.3731 -1.8 8.84 -1.8V2.2ZM18.7635 5.82391C20.7848 8.17476 21.96 11.8414 21.96 17.16H25.96C25.96 11.3319 24.6819 6.5719 21.7965 3.21608L18.7635 5.82391ZM21.96 17.16C21.96 20.2322 21.4152 22.7887 20.3994 24.8894L24.0006 26.6306C25.3315 23.878 25.96 20.7011 25.96 17.16H21.96ZM20.3954 24.8978C19.3526 27.0803 18.1556 28.5189 16.8783 29.3842L19.1217 32.6958C21.1511 31.3211 22.754 29.2397 24.0046 26.6222L20.3954 24.8978ZM16.0428 31.4516L21.9228 59.4116L25.8372 58.5884L19.9572 30.6284L16.0428 31.4516ZM23.88 57H15.24V61H23.88V57ZM17.2024 58.6139L12.3224 33.8139L8.39763 34.5861L13.2776 59.3861L17.2024 58.6139ZM10.36 32.2H8.84V36.2H10.36V32.2ZM6.84 34.2V59H10.84V34.2H6.84ZM8.84 57H0.2V61H8.84V57ZM8.84 28.2C10.7111 28.2 12.4459 27.7957 13.8326 26.7655L11.4474 23.5545C10.9675 23.911 10.1689 24.2 8.84 24.2V28.2ZM13.8616 26.7436C15.1732 25.7318 16.0511 24.3432 16.5524 22.7054L12.7276 21.5346C12.429 22.5102 11.9735 23.1482 11.4184 23.5764L13.8616 26.7436ZM16.5524 22.7054C17.0252 21.1611 17.24 19.4077 17.24 17.48H13.24C13.24 19.1256 13.0548 20.4656 12.7276 21.5346L16.5524 22.7054ZM17.24 17.48C17.24 14.5066 16.7529 11.9271 15.536 9.98L12.144 12.1C12.7937 13.1396 13.24 14.8534 13.24 17.48H17.24ZM15.5576 10.0154C14.1619 7.67556 11.6783 6.76 8.84 6.76V10.76C10.855 10.76 11.7047 11.3644 12.1224 12.0646L15.5576 10.0154ZM6.84 8.76V26.2H10.84V8.76H6.84ZM29.9538 56.32L28.4083 57.5895L28.4165 57.5995L28.4249 57.6094L29.9538 56.32ZM29.9538 17.8L28.4393 16.4937V16.4937L29.9538 17.8ZM43.2337 16.08L42.1581 17.7661L42.1646 17.7703L42.1712 17.7744L43.2337 16.08ZM46.8338 20.12L45.0338 20.9919L45.0392 21.003L46.8338 20.12ZM48.0738 38.6V40.6H50.0738V38.6H48.0738ZM34.7137 38.6V36.6H32.7137V38.6H34.7137ZM35.4338 51.16L33.6552 52.0747L33.671 52.1055L33.6879 52.1356L35.4338 51.16ZM39.8738 51.24L38.1075 50.3017L38.0959 50.3235L38.0849 50.3456L39.8738 51.24ZM40.5537 43.32V41.32H38.5537V43.32H40.5537ZM48.0738 43.32H50.0738V41.32H48.0738V43.32ZM45.3138 56.56L43.8158 55.2348L43.8146 55.2361L45.3138 56.56ZM34.7137 32.28H32.7137V34.28H34.7137V32.28ZM40.5537 32.28V34.28H42.5537V32.28H40.5537ZM39.9137 23L38.0839 23.8073L38.0984 23.8402L38.1141 23.8725L39.9137 23ZM35.4338 23.04L37.2013 23.9758L37.2069 23.9653L37.2123 23.9547L35.4338 23.04ZM37.5938 57.64C34.8806 57.64 32.9229 56.7384 31.4826 55.0306L28.4249 57.6094C30.7179 60.3283 33.8536 61.64 37.5938 61.64V57.64ZM31.4992 55.0505C29.9866 53.2091 29.1937 50.9394 29.1937 48.12H25.1938C25.1938 51.754 26.2409 54.9509 28.4083 57.5895L31.4992 55.0505ZM29.1937 48.12V26.12H25.1938V48.12H29.1937ZM29.1937 26.12C29.1937 23.0803 30.0043 20.8036 31.4682 19.1063L28.4393 16.4937C26.2232 19.0631 25.1938 22.3331 25.1938 26.12H29.1937ZM31.4682 19.1063C32.861 17.4914 34.8372 16.6 37.6738 16.6V12.6C33.897 12.6 30.7265 13.8419 28.4393 16.4937L31.4682 19.1063ZM37.6738 16.6C39.5213 16.6 40.9862 17.0185 42.1581 17.7661L44.3094 14.3939C42.388 13.1682 40.1462 12.6 37.6738 12.6V16.6ZM42.1712 17.7744C43.4193 18.5571 44.3672 19.6156 45.0338 20.9919L48.6337 19.2481C47.647 17.211 46.1948 15.5762 44.2963 14.3856L42.1712 17.7744ZM45.0392 21.003C45.7114 22.369 46.0738 23.9791 46.0738 25.88H50.0738C50.0738 23.4609 49.6095 21.231 48.6283 19.237L45.0392 21.003ZM46.0738 25.88V38.6H50.0738V25.88H46.0738ZM48.0738 36.6H34.7137V40.6H48.0738V36.6ZM32.7137 38.6V48.12H36.7137V38.6H32.7137ZM32.7137 48.12C32.7137 49.5178 33.0235 50.8465 33.6552 52.0747L37.2123 50.2453C36.884 49.6069 36.7137 48.9089 36.7137 48.12H32.7137ZM33.6879 52.1356C34.525 53.6337 35.9166 54.52 37.6738 54.52V50.52C37.4979 50.52 37.4331 50.4834 37.4117 50.4704C37.3851 50.4543 37.2963 50.3931 37.1796 50.1844L33.6879 52.1356ZM37.6738 54.52C38.4677 54.52 39.2755 54.3558 40.0095 53.9287C40.7537 53.4957 41.2975 52.8647 41.6626 52.1344L38.0849 50.3456C38.0512 50.4129 38.025 50.4451 38.0143 50.457C38.0047 50.4675 38.0005 50.4698 37.998 50.4713C37.9946 50.4733 37.9753 50.4842 37.9284 50.4955C37.8796 50.5072 37.7977 50.52 37.6738 50.52V54.52ZM41.64 52.1783C42.2827 50.9685 42.5537 49.5878 42.5537 48.12H38.5537C38.5537 49.1056 38.3715 49.8048 38.1075 50.3017L41.64 52.1783ZM42.5537 48.12V43.32H38.5537V48.12H42.5537ZM40.5537 45.32H48.0738V41.32H40.5537V45.32ZM46.0738 43.32V48.36H50.0738V43.32H46.0738ZM46.0738 48.36C46.0738 51.3705 45.2651 53.5965 43.8158 55.2349L46.8117 57.8851C49.0424 55.3635 50.0738 52.1228 50.0738 48.36H46.0738ZM43.8146 55.2361C42.4621 56.7677 40.4888 57.64 37.5938 57.64V61.64C41.3654 61.64 44.5387 60.459 46.8129 57.8839L43.8146 55.2361ZM34.7137 34.28H40.5537V30.28H34.7137V34.28ZM42.5537 32.28V26.12H38.5537V32.28H42.5537ZM42.5537 26.12C42.5537 24.685 42.2984 23.3341 41.7134 22.1275L38.1141 23.8725C38.3824 24.4259 38.5537 25.155 38.5537 26.12H42.5537ZM41.7436 22.1927C41.4013 21.4169 40.861 20.7375 40.0917 20.2704C39.3356 19.8114 38.4951 19.64 37.6738 19.64V23.64C37.81 23.64 37.8987 23.6542 37.9503 23.6669C37.9758 23.6732 37.9924 23.6792 38.002 23.6831C38.0113 23.6869 38.0154 23.6893 38.0158 23.6896C38.0161 23.6898 38.0154 23.6893 38.0147 23.6887C38.014 23.6881 38.0156 23.6894 38.0197 23.6942C38.0273 23.7032 38.0521 23.7351 38.0839 23.8073L41.7436 22.1927ZM37.6738 19.64C36.85 19.64 36.0306 19.8335 35.2938 20.294C34.5608 20.7521 34.0281 21.4001 33.6552 22.1253L37.2123 23.9547C37.3194 23.7466 37.4 23.6946 37.4137 23.686C37.4236 23.6799 37.4842 23.64 37.6738 23.64V19.64ZM33.6662 22.1042C33.0163 23.3318 32.7137 24.6861 32.7137 26.12H36.7137C36.7137 25.2606 36.8912 24.5615 37.2013 23.9758L33.6662 22.1042ZM32.7137 26.12V32.28H36.7137V26.12H32.7137ZM56.8563 73.92L56.3589 75.8572H56.3589L56.8563 73.92ZM52.0563 71.44L53.422 69.9789L53.4209 69.9779L52.0563 71.44ZM51.4162 63.32L49.831 62.1006L49.8211 62.1135L49.8113 62.1266L51.4162 63.32ZM54.1362 60.76L53.0683 59.069L53.0525 59.0789L53.037 59.0892L54.1362 60.76ZM56.5763 59.56L57.0811 61.4952L64.1633 59.6477L57.1257 57.637L56.5763 59.56ZM53.1362 57.64L51.763 59.094L51.7729 59.1034L51.783 59.1127L53.1362 57.64ZM53.2962 49.68L51.9001 48.248L53.2962 49.68ZM56.7363 47.16L57.6614 48.9332L60.6861 47.355L57.8316 45.4866L56.7363 47.16ZM53.2962 43.4L51.5135 44.3065L51.5227 44.3247L51.5324 44.3428L53.2962 43.4ZM54.8162 17.72L53.3183 16.3948L53.3171 16.3961L54.8162 17.72ZM67.3363 15.8L66.2763 17.496L66.2968 17.5088L66.3176 17.5212L67.3363 15.8ZM70.4163 18.6L68.7646 19.7279L70.5369 22.323L72.1374 19.6186L70.4163 18.6ZM73.5362 15.64L74.4452 17.4215L74.4595 17.4142L74.4737 17.4067L73.5362 15.64ZM77.0563 14.6H79.0563V12.6H77.0563V14.6ZM77.0563 21.8V23.8H79.0563V21.8H77.0563ZM74.2562 22.08L74.6485 24.0412L74.6797 24.0349L74.7107 24.0277L74.2562 22.08ZM72.3363 22.76L71.2934 21.0534L69.8159 21.9563L70.498 23.5478L72.3363 22.76ZM72.5762 23.92L70.5946 24.1902L70.6006 24.2341L70.6085 24.2778L72.5762 23.92ZM69.8963 45.6L71.3666 46.9558L69.8963 45.6ZM60.8162 48.6L61.2085 46.6388L60.2088 46.4389L59.4597 47.1304L60.8162 48.6ZM59.9762 49.56L58.3121 48.4506L58.2789 48.5005L58.2487 48.5523L59.9762 49.56ZM61.1363 52.44L60.4114 54.304L60.4421 54.316L60.4733 54.3269L61.1363 52.44ZM65.0563 53.32L64.7643 55.2986L64.7648 55.2987L65.0563 53.32ZM73.4163 56.32L72.2693 57.9585L72.2789 57.9651L73.4163 56.32ZM74.6963 69.8L73.1271 68.5599L73.1209 68.5677L73.1148 68.5757L74.6963 69.8ZM69.6963 73.48L70.4223 75.3436V75.3436L69.6963 73.48ZM67.4163 62.84L68.4561 61.1316L68.445 61.1248L68.4337 61.1181L67.4163 62.84ZM64.4163 61.8L64.8927 59.8575L64.8795 59.8544L64.4163 61.8ZM61.0563 61L61.5195 59.0544L60.7426 58.8694L60.052 59.2704L61.0563 61ZM58.9362 62.64L57.491 61.2576L57.4749 61.2743L57.4593 61.2915L58.9362 62.64ZM59.3363 66.96L60.5279 65.3538L60.511 65.3412L60.4937 65.329L59.3363 66.96ZM64.2562 41.08L65.9436 42.1538L64.2562 41.08ZM64.2962 23.04L66.0707 22.1173V22.1173L64.2962 23.04ZM60.5363 23.08L58.7474 22.1856H58.7474L60.5363 23.08ZM60.5762 41.08L58.8889 42.1538L60.5762 41.08ZM63.2162 72.68C61.0988 72.68 59.1474 72.4434 57.3536 71.9828L56.3589 75.8572C58.5118 76.4099 60.8004 76.68 63.2162 76.68V72.68ZM57.3536 71.9828C55.6363 71.5419 54.3566 70.8526 53.422 69.9789L50.6905 72.9011C52.2092 74.3208 54.1295 75.2848 56.3589 75.8572L57.3536 71.9828ZM53.4209 69.9779C52.6773 69.2839 52.2562 68.3597 52.2562 67H48.2562C48.2562 69.3203 49.0352 71.3561 50.6916 72.9021L53.4209 69.9779ZM52.2562 67C52.2562 65.9755 52.5279 65.1768 53.0212 64.5134L49.8113 62.1266C48.7579 63.5432 48.2562 65.1979 48.2562 67H52.2562ZM53.0015 64.5394C53.6768 63.6615 54.4228 62.9655 55.2355 62.4308L53.037 59.0892C51.8231 59.8878 50.7557 60.8985 49.831 62.1006L53.0015 64.5394ZM55.2042 62.451C56.1694 61.8414 56.7725 61.5757 57.0811 61.4952L56.0714 57.6248C55.1533 57.8643 54.1298 58.3986 53.0683 59.069L55.2042 62.451ZM57.1257 57.637C56.114 57.3479 55.2436 56.8603 54.4895 56.1673L51.783 59.1127C53.0022 60.233 54.4252 61.0254 56.0268 61.483L57.1257 57.637ZM54.5095 56.186C54.0581 55.7596 53.6963 55.046 53.6963 53.72H49.6963C49.6963 55.8073 50.2944 57.707 51.763 59.094L54.5095 56.186ZM53.6963 53.72C53.6963 52.5407 54.0561 51.7324 54.6925 51.112L51.9001 48.248C50.403 49.7076 49.6963 51.5926 49.6963 53.72H53.6963ZM54.6925 51.112C55.6302 50.1977 56.6203 49.4764 57.6614 48.9332L55.8111 45.3868C54.3989 46.1236 53.0956 47.0823 51.9001 48.248L54.6925 51.112ZM57.8316 45.4866C56.6456 44.7103 55.7288 43.7083 55.0601 42.4572L51.5324 44.3428C52.517 46.185 53.8936 47.6897 55.6409 48.8334L57.8316 45.4866ZM55.079 42.4935C54.4566 41.2693 54.0962 39.6784 54.0962 37.64H50.0962C50.0962 40.1349 50.5359 42.384 51.5135 44.3065L55.079 42.4935ZM54.0962 37.64V25.72H50.0962V37.64H54.0962ZM54.0962 25.72C54.0962 22.8264 54.886 20.6624 56.3154 19.0439L53.3171 16.3961C51.1198 18.8842 50.0962 22.0536 50.0962 25.72H54.0962ZM56.3142 19.0451C57.7184 17.4578 59.6452 16.6 62.3363 16.6V12.6C58.6806 12.6 55.5941 13.8222 53.3183 16.3948L56.3142 19.0451ZM62.3363 16.6C64.1453 16.6 65.4092 16.9541 66.2763 17.496L68.3962 14.104C66.7033 13.0459 64.6338 12.6 62.3363 12.6V16.6ZM66.3176 17.5212C67.4094 18.1673 68.2056 18.9094 68.7646 19.7279L72.0679 17.4721C71.1335 16.104 69.8765 14.9794 68.3549 14.0788L66.3176 17.5212ZM72.1374 19.6186C72.7249 18.626 73.4883 17.9097 74.4452 17.4215L72.6273 13.8585C70.9708 14.7036 69.6543 15.9606 68.6951 17.5814L72.1374 19.6186ZM74.4737 17.4067C75.606 16.8059 76.4518 16.6 77.0563 16.6V12.6C75.5807 12.6 74.0798 13.0875 72.5988 13.8733L74.4737 17.4067ZM75.0563 14.6V21.8H79.0563V14.6H75.0563ZM77.0563 19.8C75.8793 19.8 74.7873 19.9024 73.8018 20.1323L74.7107 24.0277C75.3252 23.8843 76.0998 23.8 77.0563 23.8V19.8ZM73.864 20.1188C72.9284 20.306 72.042 20.5959 71.2934 21.0534L73.3792 24.4666C73.5905 24.3374 73.9841 24.174 74.6485 24.0412L73.864 20.1188ZM70.498 23.5478C70.4711 23.4852 70.4638 23.4534 70.4699 23.4751C70.4745 23.4916 70.4842 23.5296 70.4977 23.5952C70.5251 23.7277 70.558 23.9222 70.5946 24.1902L74.5579 23.6498C74.4835 23.1044 74.3784 22.4478 74.1745 21.9722L70.498 23.5478ZM70.6085 24.2778C70.7 24.7809 70.7363 25.1773 70.7363 25.48H74.7363C74.7363 24.876 74.6658 24.2324 74.544 23.5622L70.6085 24.2778ZM70.7363 25.48V37.88H74.7363V25.48H70.7363ZM70.7363 37.88C70.7363 40.5294 69.941 42.6011 68.4259 44.2442L71.3666 46.9558C73.6382 44.4922 74.7363 41.4172 74.7363 37.88H70.7363ZM68.4259 44.2442C66.9612 45.8328 65.0025 46.68 62.3363 46.68V50.68C65.9633 50.68 69.0447 49.4739 71.3666 46.9558L68.4259 44.2442ZM62.3363 46.68C61.9833 46.68 61.7076 46.6736 61.5014 46.6628C61.2772 46.651 61.1983 46.6368 61.2085 46.6388L60.424 50.5612C60.9128 50.6589 61.6102 50.68 62.3363 50.68V46.68ZM59.4597 47.1304C59.0218 47.5346 58.6305 47.973 58.3121 48.4506L61.6404 50.6694C61.7486 50.507 61.9174 50.3054 62.1728 50.0696L59.4597 47.1304ZM58.2487 48.5523C57.8822 49.1806 57.6963 49.8754 57.6963 50.6H61.6963C61.6963 50.5902 61.6968 50.5845 61.6972 50.5821C61.6975 50.5798 61.6977 50.5793 61.6975 50.5799C61.6973 50.5806 61.6972 50.5806 61.6977 50.5795C61.6982 50.5783 61.6999 50.5744 61.7038 50.5677L58.2487 48.5523ZM57.6963 50.6C57.6963 51.4281 57.9391 52.2399 58.4812 52.9326C59.0032 53.5995 59.7014 54.0279 60.4114 54.304L61.8611 50.576C61.6111 50.4788 61.5893 50.4138 61.6313 50.4674C61.6531 50.4953 61.6741 50.5333 61.687 50.5729C61.6993 50.6105 61.6963 50.6242 61.6963 50.6H57.6963ZM60.4733 54.3269C61.6284 54.7328 63.0742 55.0492 64.7643 55.2986L65.3482 51.3414C63.785 51.1108 62.6175 50.8406 61.7992 50.5531L60.4733 54.3269ZM64.7648 55.2987C67.9957 55.7745 70.4615 56.693 72.2693 57.9585L74.5632 54.6815C72.1043 52.9603 68.9968 51.8788 65.3477 51.3413L64.7648 55.2987ZM72.2789 57.9651C73.763 58.9912 74.6562 60.6725 74.6562 63.48H78.6562C78.6562 59.7275 77.3895 56.6355 74.5536 54.6749L72.2789 57.9651ZM74.6562 63.48C74.6562 65.6896 74.0986 67.3307 73.1271 68.5599L76.2654 71.0401C77.9072 68.9627 78.6562 66.3904 78.6562 63.48H74.6562ZM73.1148 68.5757C72.0689 69.9266 70.7047 70.9407 68.9702 71.6164L70.4223 75.3436C72.7944 74.4193 74.7636 72.98 76.2777 71.0243L73.1148 68.5757ZM68.9702 71.6164C67.155 72.3237 65.2418 72.68 63.2162 72.68V76.68C65.7241 76.68 68.1309 76.2363 70.4223 75.3436L68.9702 71.6164ZM63.3763 69.88C64.9485 69.88 66.4195 69.5966 67.7312 68.9585L65.9813 65.3615C65.3196 65.6834 64.4706 65.88 63.3763 65.88V69.88ZM67.7312 68.9585C68.4741 68.5971 69.1506 68.0755 69.6349 67.3425C70.1254 66.6001 70.3363 65.7652 70.3363 64.92H66.3363C66.3363 65.0882 66.3004 65.1332 66.2976 65.1375C66.2886 65.1511 66.2251 65.2429 65.9813 65.3615L67.7312 68.9585ZM70.3363 64.92C70.3363 63.5254 69.8938 62.0067 68.4561 61.1316L66.3764 64.5484C66.355 64.5354 66.3282 64.514 66.3043 64.4863C66.281 64.4593 66.2742 64.4423 66.2772 64.449C66.2867 64.4705 66.3363 64.6031 66.3363 64.92H70.3363ZM68.4337 61.1181C67.577 60.6119 66.3311 60.2104 64.8927 59.8576L63.9398 63.7424C65.3281 64.0829 66.0822 64.3748 66.3988 64.5619L68.4337 61.1181ZM64.8795 59.8544L61.5195 59.0544L60.593 62.9456L63.953 63.7456L64.8795 59.8544ZM60.052 59.2704C59.0829 59.8331 58.2228 60.4925 57.491 61.2576L60.3815 64.0224C60.823 63.5609 61.3763 63.1269 62.0605 62.7296L60.052 59.2704ZM57.4593 61.2915C56.5527 62.2843 56.0962 63.5028 56.0962 64.84H60.0962C60.0962 64.4706 60.1998 64.2223 60.4132 63.9885L57.4593 61.2915ZM56.0962 64.84C56.0962 66.4641 56.9584 67.725 58.1788 68.591L60.4937 65.329C60.2583 65.1619 60.166 65.0373 60.1326 64.9802C60.107 64.9364 60.0962 64.9021 60.0962 64.84H56.0962ZM58.1446 68.5662C59.4995 69.5715 61.386 69.88 63.3763 69.88V65.88C61.6331 65.88 60.8263 65.5752 60.5279 65.3538L58.1446 68.5662ZM62.4163 43.96C63.7747 43.96 65.1165 43.4535 65.9436 42.1538L62.5689 40.0062C62.5687 40.0066 62.5711 40.0028 62.5767 39.9961C62.5824 39.9894 62.5902 39.9812 62.6 39.9724C62.6213 39.9534 62.6415 39.9414 62.6533 39.9357C62.6758 39.925 62.6184 39.96 62.4163 39.96V43.96ZM65.9436 42.1538C66.6177 41.0944 66.8163 39.7611 66.8163 38.44H62.8163C62.8163 39.4656 62.6414 39.8923 62.5689 40.0062L65.9436 42.1538ZM66.8163 38.44V25.64H62.8163V38.44H66.8163ZM66.8163 25.64C66.8163 24.3785 66.6145 23.1632 66.0707 22.1173L62.5218 23.9627C62.6713 24.2502 62.8163 24.7682 62.8163 25.64H66.8163ZM66.0707 22.1173C65.3019 20.6389 63.8837 20.04 62.4163 20.04V24.04C62.6306 24.04 62.6721 24.0797 62.627 24.0557C62.604 24.0435 62.5759 24.0235 62.5506 23.9975C62.526 23.9722 62.5183 23.956 62.5218 23.9627L66.0707 22.1173ZM62.4163 20.04C61.7126 20.04 60.9765 20.1746 60.2981 20.5499C59.6016 20.9352 59.0859 21.5086 58.7474 22.1856L62.3251 23.9744C62.3331 23.9584 62.3301 23.969 62.309 23.9916C62.2869 24.0153 62.2598 24.036 62.2344 24.0501C62.1826 24.0787 62.2133 24.04 62.4163 24.04V20.04ZM58.7474 22.1856C58.2259 23.2285 58.0163 24.408 58.0163 25.64H62.0163C62.0163 24.8453 62.1532 24.3182 62.3251 23.9744L58.7474 22.1856ZM58.0163 25.64V38.44H62.0163V25.64H58.0163ZM58.0163 38.44C58.0163 39.7611 58.2148 41.0944 58.8889 42.1538L62.2636 40.0062C62.1911 39.8923 62.0163 39.4656 62.0163 38.44H58.0163ZM58.8889 42.1538C59.716 43.4535 61.0578 43.96 62.4163 43.96V39.96C62.2141 39.96 62.1567 39.925 62.1792 39.9357C62.191 39.9414 62.2112 39.9534 62.2325 39.9724C62.2423 39.9812 62.2501 39.9894 62.2558 39.9961C62.2614 40.0028 62.2638 40.0066 62.2636 40.0062L58.8889 42.1538ZM81.9544 58.36L83.3251 56.9036L81.9544 58.36ZM79.9144 55.12L78.0208 55.7638L78.0249 55.7755L79.9144 55.12ZM79.2344 15.24V13.24H77.2344V15.24H79.2344ZM87.3144 15.24H89.3144V13.24H87.3144V15.24ZM87.7544 51.28L86.1817 52.5156L86.2309 52.5781L86.2848 52.6366L87.7544 51.28ZM90.7144 51.2L89.3002 49.7858L90.7144 51.2ZM91.8744 49.72L93.5749 50.7727L93.8744 50.2889V49.72H91.8744ZM91.8744 15.24V13.24H89.8744V15.24H91.8744ZM99.9544 15.24H101.954V13.24H99.9544V15.24ZM99.9544 59V61H101.954V59H99.9544ZM91.8744 59H89.8744V61H91.8744V59ZM91.8744 55.32H93.8744V50.6801L90.5011 53.866L91.8744 55.32ZM88.6344 58.16L89.9046 59.7048L88.6344 58.16ZM85.3144 57.64C84.4509 57.64 83.8329 57.3815 83.3251 56.9036L80.5836 59.8164C81.8892 61.0451 83.5112 61.64 85.3144 61.64V57.64ZM83.3251 56.9036C82.6786 56.2951 82.1634 55.5006 81.8039 54.4645L78.0249 55.7755C78.5721 57.3528 79.4169 58.7182 80.5836 59.8164L83.3251 56.9036ZM81.8079 54.4762C81.4225 53.3427 81.2344 52.2133 81.2344 51.08H77.2344C77.2344 52.6667 77.4995 54.2306 78.0208 55.7638L81.8079 54.4762ZM81.2344 51.08V15.24H77.2344V51.08H81.2344ZM79.2344 17.24H87.3144V13.24H79.2344V17.24ZM85.3144 15.24V49.48H89.3144V15.24H85.3144ZM85.3144 49.48C85.3144 50.4566 85.4711 51.6112 86.1817 52.5156L89.327 50.0444C89.4011 50.1387 89.3923 50.1779 89.3672 50.0751C89.3421 49.9727 89.3144 49.7835 89.3144 49.48H85.3144ZM86.2848 52.6366C87.1183 53.5396 88.2457 53.8 89.2344 53.8V49.8C89.1535 49.8 89.0974 49.7947 89.0624 49.7895C89.0277 49.7843 89.018 49.7798 89.0273 49.7831C89.0375 49.7866 89.0657 49.7978 89.1042 49.8225C89.1435 49.8476 89.1852 49.8814 89.224 49.9234L86.2848 52.6366ZM89.2344 53.8C90.3295 53.8 91.3383 53.4045 92.1286 52.6142L89.3002 49.7858C89.287 49.799 89.2807 49.803 89.2818 49.8022C89.2831 49.8013 89.2874 49.7988 89.293 49.7965C89.2985 49.7943 89.2993 49.7947 89.2927 49.7959C89.2857 49.7972 89.2671 49.8 89.2344 49.8V53.8ZM92.1286 52.6142C92.6737 52.0691 93.1544 51.452 93.5749 50.7727L90.1738 48.6673C89.901 49.108 89.6083 49.4776 89.3002 49.7858L92.1286 52.6142ZM93.8744 49.72V15.24H89.8744V49.72H93.8744ZM91.8744 17.24H99.9544V13.24H91.8744V17.24ZM97.9544 15.24V59H101.954V15.24H97.9544ZM99.9544 57H91.8744V61H99.9544V57ZM93.8744 59V55.32H89.8744V59H93.8744ZM90.5011 53.866C89.5796 54.7363 88.5348 55.6527 87.3642 56.6152L89.9046 59.7048C91.134 58.694 92.2491 57.717 93.2476 56.774L90.5011 53.866ZM87.3642 56.6152C86.3402 57.457 85.6737 57.64 85.3144 57.64V61.64C86.9817 61.64 88.5285 60.8363 89.9046 59.7048L87.3642 56.6152ZM104.322 59H102.322V61H104.322V59ZM104.322 0.199999V-1.8H102.322V0.199999H104.322ZM112.402 0.199999H114.402V-1.8H112.402V0.199999ZM112.402 59V61H114.402V59H112.402ZM106.322 59V0.199999H102.322V59H106.322ZM104.322 2.2H112.402V-1.8H104.322V2.2ZM110.402 0.199999V59H114.402V0.199999H110.402ZM112.402 57H104.322V61H112.402V57ZM118.253 56.8L119.877 55.6332L118.253 56.8ZM118.613 39.04L116.981 37.8829L116.977 37.8893L116.972 37.8956L118.613 39.04ZM125.893 33.08L126.816 34.854L126.824 34.8498L125.893 33.08ZM128.452 31.64L129.501 33.3433L128.452 31.64ZM129.732 30.44L131.571 31.2278L131.732 30.8505V30.44H129.732ZM129.333 22.84L127.417 23.4147L127.429 23.4536L127.442 23.492L129.333 22.84ZM125.652 22.92L127.518 23.642L127.521 23.6321L127.525 23.6222L125.652 22.92ZM125.173 28.12V30.12H127.173V28.12H125.173ZM117.092 28.12H115.092V30.12H117.092V28.12ZM118.493 20.08L116.737 19.1223L116.732 19.1318L118.493 20.08ZM122.372 16.04L123.368 17.7748L123.377 17.7696L122.372 16.04ZM133.173 16L132.099 17.6873L132.11 17.6943L132.121 17.7012L133.173 16ZM136.572 19.8L134.778 20.6826L134.787 20.7004L134.796 20.718L136.572 19.8ZM137.973 55.96L135.982 56.1542L135.982 56.159L137.973 55.96ZM138.372 59V61H140.733L140.345 58.6712L138.372 59ZM130.452 59L128.9 60.2612L129.501 61H130.452V59ZM129.812 57.12L127.817 57.2488L127.819 57.2807L127.822 57.3126L129.812 57.12ZM129.732 55.48H131.732V53.48H129.732V55.48ZM129.173 55.48V53.48H127.983L127.415 54.525L129.173 55.48ZM126.613 58.48L125.419 56.8751L125.409 56.8825L125.399 56.8901L126.613 58.48ZM128.732 50.76L127.347 49.3172L127.333 49.3314L127.318 49.3458L128.732 50.76ZM129.732 38.28H131.732V35.2578L128.951 36.4391L129.732 38.28ZM125.452 42.04L123.692 41.0901L123.687 41.1003L125.452 42.04ZM123.092 57.64C122.03 57.64 120.966 57.149 119.877 55.6332L116.628 57.9668C118.259 60.2376 120.421 61.64 123.092 61.64V57.64ZM119.877 55.6332C118.876 54.2402 118.213 51.8485 118.213 48.12H114.213C114.213 52.1781 114.909 55.5732 116.628 57.9668L119.877 55.6332ZM118.213 48.12C118.213 44.6308 118.955 42.044 120.253 40.1844L116.972 37.8956C115.07 40.6227 114.213 44.0892 114.213 48.12H118.213ZM120.244 40.1971C121.641 38.2274 123.791 36.4291 126.816 34.854L124.969 31.306C121.541 33.0909 118.837 35.266 116.981 37.8829L120.244 40.1971ZM126.824 34.8498C127.862 34.3033 128.757 33.8007 129.501 33.3433L127.404 29.9367C126.761 30.3326 125.949 30.79 124.961 31.3102L126.824 34.8498ZM129.501 33.3433C130.252 32.8807 131.151 32.2065 131.571 31.2278L127.894 29.6522C127.96 29.4991 128.018 29.4732 127.925 29.5609C127.839 29.6411 127.677 29.7686 127.404 29.9367L129.501 33.3433ZM131.732 30.44V25.64H127.732V30.44H131.732ZM131.732 25.64C131.732 24.3947 131.582 23.2284 131.223 22.188L127.442 23.492C127.616 23.9983 127.732 24.6986 127.732 25.64H131.732ZM131.248 22.2653C131.013 21.4803 130.543 20.7589 129.785 20.2648C129.059 19.791 128.242 19.64 127.492 19.64V23.64C127.729 23.64 127.713 23.689 127.6 23.6152C127.542 23.5776 127.49 23.5271 127.453 23.474C127.417 23.424 127.411 23.396 127.417 23.4147L131.248 22.2653ZM127.492 19.64C126.719 19.64 125.918 19.8257 125.21 20.3182C124.503 20.8101 124.051 21.4957 123.78 22.2178L127.525 23.6222C127.551 23.5536 127.568 23.5319 127.564 23.5383C127.561 23.5417 127.554 23.5507 127.542 23.563C127.529 23.5754 127.513 23.5888 127.495 23.6018C127.476 23.6148 127.458 23.6251 127.441 23.6328C127.425 23.6405 127.413 23.6442 127.408 23.6456C127.398 23.6483 127.422 23.64 127.492 23.64V19.64ZM123.787 22.198C123.35 23.329 123.173 24.634 123.173 26.04H127.173C127.173 24.9393 127.315 24.1643 127.518 23.642L123.787 22.198ZM123.173 26.04V28.12H127.173V26.04H123.173ZM125.173 26.12H117.092V30.12H125.173V26.12ZM119.092 28.12V26.28H115.092V28.12H119.092ZM119.092 26.28C119.092 24.1392 119.508 22.4128 120.253 21.0282L116.732 19.1318C115.61 21.2138 115.092 23.6208 115.092 26.28H119.092ZM120.248 21.0377C121.044 19.5787 122.084 18.5115 123.368 17.7747L121.377 14.3053C119.408 15.4352 117.861 17.0613 116.737 19.1223L120.248 21.0377ZM123.377 17.7696C124.699 17.0021 126.213 16.6 127.973 16.6V12.6C125.572 12.6 123.353 13.1579 121.368 14.3104L123.377 17.7696ZM127.973 16.6C129.651 16.6 130.999 16.9875 132.099 17.6873L134.246 14.3127C132.413 13.1458 130.294 12.6 127.973 12.6V16.6ZM132.121 17.7012C133.251 18.3999 134.135 19.3751 134.778 20.6826L138.367 18.9174C137.41 16.9716 136.027 15.4135 134.224 14.2988L132.121 17.7012ZM134.796 20.718C135.454 21.9932 135.812 23.5098 135.812 25.32H139.812C139.812 22.9702 139.344 20.8068 138.349 18.882L134.796 20.718ZM135.812 25.32V51.4H139.812V25.32H135.812ZM135.812 51.4C135.812 53.3703 135.866 54.9653 135.982 56.1542L139.963 55.7658C139.866 54.768 139.812 53.323 139.812 51.4H135.812ZM135.982 56.159C136.093 57.2648 136.232 58.3217 136.4 59.3288L140.345 58.6712C140.193 57.7583 140.065 56.7885 139.963 55.761L135.982 56.159ZM138.372 57H130.452V61H138.372V57ZM132.005 57.7388C132.008 57.7425 131.971 57.6992 131.926 57.5655C131.88 57.43 131.832 57.2239 131.803 56.9274L127.822 57.3126C127.922 58.3438 128.209 59.4103 128.9 60.2612L132.005 57.7388ZM131.808 56.9912C131.754 56.1521 131.732 55.6709 131.732 55.48H127.732C127.732 55.8224 127.764 56.4345 127.817 57.2488L131.808 56.9912ZM129.732 53.48H129.173V57.48H129.732V53.48ZM127.415 54.525C126.876 55.5167 126.209 56.288 125.419 56.8751L127.806 60.0849C129.096 59.1253 130.135 57.8967 130.93 56.435L127.415 54.525ZM125.399 56.8901C124.751 57.3846 124.009 57.64 123.092 57.64V61.64C124.843 61.64 126.447 61.1221 127.826 60.0699L125.399 56.8901ZM126.372 53.72C127.818 53.72 129.119 53.2022 130.147 52.1742L127.318 49.3458C127.066 49.5978 126.794 49.72 126.372 49.72V53.72ZM130.118 52.2028C131.077 51.2812 131.732 50.0954 131.732 48.68H127.732C127.732 48.7579 127.721 48.9588 127.347 49.3172L130.118 52.2028ZM131.732 48.68V38.28H127.732V48.68H131.732ZM128.951 36.4391C126.634 37.4229 124.838 38.9673 123.692 41.0901L127.213 42.9899C127.88 41.7527 128.938 40.7905 130.514 40.1209L128.951 36.4391ZM123.687 41.1003C122.637 43.0738 122.132 45.2691 122.132 47.64H126.133C126.133 45.8508 126.508 44.3129 127.218 42.9797L123.687 41.1003ZM122.132 47.64C122.132 48.8076 122.357 49.9558 122.784 51.0743L126.521 49.6457C126.255 48.9509 126.133 48.2857 126.133 47.64H122.132ZM122.784 51.0743C123.045 51.7567 123.455 52.4372 124.102 52.9488C124.776 53.4816 125.568 53.72 126.372 53.72V49.72C126.363 49.72 126.391 49.719 126.442 49.7358C126.495 49.7533 126.545 49.7809 126.583 49.8112C126.657 49.8694 126.606 49.87 126.521 49.6457L122.784 51.0743ZM142.359 59H140.359V61H142.359V59ZM142.359 15.24V13.24H140.359V15.24H142.359ZM150.439 15.24H152.439V13.24H150.439V15.24ZM150.439 18.92H148.439V23.4722L151.792 20.3931L150.439 18.92ZM153.999 15.88L155.225 17.4608L155.23 17.4566L153.999 15.88ZM160.639 16.08L162.132 14.7488L160.639 16.08ZM162.599 19.48L160.702 20.1125L161.739 23.2223L164.03 20.8779L162.599 19.48ZM166.159 16.16L164.882 14.6209L164.874 14.6276L164.866 14.6345L166.159 16.16ZM173.319 15.88L174.69 14.4236V14.4236L173.319 15.88ZM175.359 19.12L177.249 18.4645V18.4645L175.359 19.12ZM176.039 59V61H178.039V59H176.039ZM168.439 59H166.439V61H168.439V59ZM167.799 22.96L166.49 24.4714L166.514 24.4922L166.538 24.5122L167.799 22.96ZM164.519 23.16L165.778 24.7145L165.8 24.6968L165.821 24.6785L164.519 23.16ZM163.239 24.52L161.56 23.4335L161.239 23.9294V24.52H163.239ZM163.239 59V61H165.239V59H163.239ZM155.639 59H153.639V61H155.639V59ZM154.999 22.96L153.69 24.4714L153.714 24.4922L153.738 24.5122L154.999 22.96ZM151.719 23.16L152.978 24.7145L153 24.6968L153.021 24.6785L151.719 23.16ZM150.439 24.52L148.76 23.4335L148.439 23.9294V24.52H150.439ZM150.439 59V61H152.439V59H150.439ZM144.359 59V15.24H140.359V59H144.359ZM142.359 17.24H150.439V13.24H142.359V17.24ZM148.439 15.24V18.92H152.439V15.24H148.439ZM151.792 20.3931C153.07 19.2198 154.213 18.2447 155.225 17.4608L152.774 14.2992C151.652 15.1686 150.422 16.2202 149.087 17.4469L151.792 20.3931ZM155.23 17.4566C156.1 16.7777 156.731 16.6 157.159 16.6V12.6C155.561 12.6 154.086 13.2757 152.769 14.3034L155.23 17.4566ZM157.159 16.6C158.086 16.6 158.683 16.8908 159.147 17.4112L162.132 14.7488C160.836 13.2958 159.112 12.6 157.159 12.6V16.6ZM159.147 17.4112C159.842 18.1907 160.36 19.085 160.702 20.1125L164.497 18.8475C163.986 17.315 163.197 15.9426 162.132 14.7488L159.147 17.4112ZM164.03 20.8779C165.134 19.7483 166.275 18.6843 167.453 17.6855L164.866 14.6345C163.591 15.7157 162.358 16.865 161.169 18.0821L164.03 20.8779ZM167.437 17.6991C168.431 16.8741 169.261 16.6 169.959 16.6V12.6C168.098 12.6 166.395 13.3659 164.882 14.6209L167.437 17.6991ZM169.959 16.6C170.823 16.6 171.441 16.8585 171.949 17.3364L174.69 14.4236C173.385 13.1949 171.763 12.6 169.959 12.6V16.6ZM171.949 17.3364C172.595 17.9449 173.11 18.7394 173.47 19.7755L177.249 18.4645C176.702 16.8872 175.857 15.5218 174.69 14.4236L171.949 17.3364ZM173.47 19.7755C173.85 20.8708 174.039 21.9959 174.039 23.16H178.039C178.039 21.5508 177.776 19.9825 177.249 18.4645L173.47 19.7755ZM174.039 23.16V59H178.039V23.16H174.039ZM176.039 57H168.439V61H176.039V57ZM170.439 59V24.76H166.439V59H170.439ZM170.439 24.76C170.439 23.6396 170.164 22.3044 169.061 21.4078L166.538 24.5122C166.487 24.4703 166.448 24.4255 166.422 24.3876C166.398 24.3512 166.392 24.3312 166.395 24.34C166.404 24.3657 166.439 24.4889 166.439 24.76H170.439ZM169.109 21.4486C168.289 20.7376 167.293 20.44 166.279 20.44V24.44C166.397 24.44 166.455 24.4565 166.472 24.4623C166.485 24.4668 166.486 24.4684 166.49 24.4714L169.109 21.4486ZM166.279 20.44C165.096 20.44 164.064 20.9166 163.218 21.6415L165.821 24.6785C166.095 24.4434 166.236 24.44 166.279 24.44V20.44ZM163.261 21.6055C162.588 22.1501 161.999 22.7549 161.56 23.4335L164.919 25.6065C165.066 25.3784 165.331 25.0765 165.778 24.7145L163.261 21.6055ZM161.239 24.52V59H165.239V24.52H161.239ZM163.239 57H155.639V61H163.239V57ZM157.639 59V24.76H153.639V59H157.639ZM157.639 24.76C157.639 23.6396 157.364 22.3044 156.261 21.4078L153.738 24.5122C153.687 24.4703 153.648 24.4256 153.622 24.3876C153.598 24.3512 153.592 24.3312 153.595 24.34C153.604 24.3657 153.639 24.4889 153.639 24.76H157.639ZM156.309 21.4486C155.489 20.7376 154.493 20.44 153.479 20.44V24.44C153.597 24.44 153.655 24.4565 153.672 24.4623C153.685 24.4668 153.686 24.4684 153.69 24.4714L156.309 21.4486ZM153.479 20.44C152.296 20.44 151.264 20.9166 150.418 21.6415L153.021 24.6785C153.295 24.4434 153.436 24.44 153.479 24.44V20.44ZM150.461 21.6055C149.788 22.1501 149.199 22.7549 148.76 23.4335L152.119 25.6065C152.266 25.3784 152.531 25.0765 152.978 24.7145L150.461 21.6055ZM148.439 24.52V59H152.439V24.52H148.439ZM150.439 57H142.359V61H150.439V57ZM182.376 56.32L180.83 57.5895L180.838 57.5995L180.847 57.6094L182.376 56.32ZM182.376 17.8L180.861 16.4937V16.4937L182.376 17.8ZM195.656 16.08L194.58 17.7661L194.587 17.7703L194.593 17.7744L195.656 16.08ZM199.256 20.12L197.456 20.9919L197.461 21.003L199.256 20.12ZM200.496 38.6V40.6H202.496V38.6H200.496ZM187.136 38.6V36.6H185.136V38.6H187.136ZM187.856 51.16L186.077 52.0747L186.093 52.1055L186.11 52.1356L187.856 51.16ZM192.296 51.24L190.529 50.3017L190.518 50.3235L190.507 50.3456L192.296 51.24ZM192.976 43.32V41.32H190.976V43.32H192.976ZM200.496 43.32H202.496V41.32H200.496V43.32ZM197.736 56.56L196.238 55.2348L196.237 55.2361L197.736 56.56ZM187.136 32.28H185.136V34.28H187.136V32.28ZM192.976 32.28V34.28H194.976V32.28H192.976ZM192.336 23L190.506 23.8073L190.52 23.8402L190.536 23.8725L192.336 23ZM187.856 23.04L189.623 23.9758L189.629 23.9653L189.634 23.9547L187.856 23.04ZM190.016 57.64C187.302 57.64 185.345 56.7384 183.904 55.0306L180.847 57.6094C183.14 60.3283 186.275 61.64 190.016 61.64V57.64ZM183.921 55.0505C182.408 53.2091 181.616 50.9394 181.616 48.12H177.616C177.616 51.754 178.663 54.9509 180.83 57.5895L183.921 55.0505ZM181.616 48.12V26.12H177.616V48.12H181.616ZM181.616 26.12C181.616 23.0803 182.426 20.8036 183.89 19.1063L180.861 16.4937C178.645 19.0631 177.616 22.3331 177.616 26.12H181.616ZM183.89 19.1063C185.283 17.4914 187.259 16.6 190.096 16.6V12.6C186.319 12.6 183.148 13.8419 180.861 16.4937L183.89 19.1063ZM190.096 16.6C191.943 16.6 193.408 17.0185 194.58 17.7661L196.731 14.3939C194.81 13.1682 192.568 12.6 190.096 12.6V16.6ZM194.593 17.7744C195.841 18.5571 196.789 19.6156 197.456 20.9919L201.056 19.2481C200.069 17.211 198.617 15.5762 196.718 14.3856L194.593 17.7744ZM197.461 21.003C198.133 22.369 198.496 23.9791 198.496 25.88H202.496C202.496 23.4609 202.031 21.231 201.05 19.237L197.461 21.003ZM198.496 25.88V38.6H202.496V25.88H198.496ZM200.496 36.6H187.136V40.6H200.496V36.6ZM185.136 38.6V48.12H189.136V38.6H185.136ZM185.136 48.12C185.136 49.5178 185.445 50.8465 186.077 52.0747L189.634 50.2453C189.306 49.6069 189.136 48.9089 189.136 48.12H185.136ZM186.11 52.1356C186.947 53.6337 188.338 54.52 190.096 54.52V50.52C189.92 50.52 189.855 50.4834 189.834 50.4704C189.807 50.4543 189.718 50.3931 189.602 50.1844L186.11 52.1356ZM190.096 54.52C190.89 54.52 191.697 54.3558 192.431 53.9287C193.176 53.4957 193.719 52.8647 194.084 52.1344L190.507 50.3456C190.473 50.4129 190.447 50.4451 190.436 50.457C190.427 50.4675 190.422 50.4698 190.42 50.4713C190.416 50.4733 190.397 50.4842 190.35 50.4955C190.301 50.5072 190.22 50.52 190.096 50.52V54.52ZM194.062 52.1783C194.705 50.9685 194.976 49.5878 194.976 48.12H190.976C190.976 49.1056 190.793 49.8048 190.529 50.3017L194.062 52.1783ZM194.976 48.12V43.32H190.976V48.12H194.976ZM192.976 45.32H200.496V41.32H192.976V45.32ZM198.496 43.32V48.36H202.496V43.32H198.496ZM198.496 48.36C198.496 51.3705 197.687 53.5965 196.238 55.2349L199.234 57.8851C201.464 55.3635 202.496 52.1228 202.496 48.36H198.496ZM196.237 55.2361C194.884 56.7677 192.911 57.64 190.016 57.64V61.64C193.787 61.64 196.961 60.459 199.235 57.8839L196.237 55.2361ZM187.136 34.28H192.976V30.28H187.136V34.28ZM194.976 32.28V26.12H190.976V32.28H194.976ZM194.976 26.12C194.976 24.685 194.72 23.3341 194.135 22.1275L190.536 23.8725C190.804 24.4259 190.976 25.155 190.976 26.12H194.976ZM194.165 22.1927C193.823 21.4169 193.283 20.7375 192.514 20.2704C191.758 19.8114 190.917 19.64 190.096 19.64V23.64C190.232 23.64 190.321 23.6542 190.372 23.6669C190.398 23.6732 190.414 23.6792 190.424 23.6831C190.433 23.6869 190.437 23.6893 190.438 23.6896C190.438 23.6898 190.437 23.6893 190.437 23.6887C190.436 23.6881 190.438 23.6894 190.442 23.6942C190.449 23.7032 190.474 23.7351 190.506 23.8073L194.165 22.1927ZM190.096 19.64C189.272 19.64 188.452 19.8335 187.716 20.294C186.983 20.7521 186.45 21.4001 186.077 22.1253L189.634 23.9547C189.741 23.7466 189.822 23.6946 189.836 23.686C189.845 23.6799 189.906 23.64 190.096 23.64V19.64ZM186.088 22.1042C185.438 23.3318 185.136 24.6861 185.136 26.12H189.136C189.136 25.2606 189.313 24.5615 189.623 23.9758L186.088 22.1042ZM185.136 26.12V32.28H189.136V26.12H185.136ZM203.922 59H201.922V61H203.922V59ZM203.922 15.24V13.24H201.922V15.24H203.922ZM212.002 15.24H214.002V13.24H212.002V15.24ZM212.002 18.92H210.002V23.6539L213.396 20.354L212.002 18.92ZM215.242 16.08L216.491 17.6417L216.502 17.6334L216.512 17.6248L215.242 16.08ZM221.922 15.88L223.293 14.4236V14.4236L221.922 15.88ZM223.962 19.12L222.072 19.7755L223.962 19.12ZM224.642 59V61H226.642V59H224.642ZM216.562 59H214.562V61H216.562V59ZM216.122 22.96L214.595 24.2519V24.2519L216.122 22.96ZM213.122 23.08L211.708 21.6658V21.6658L213.122 23.08ZM212.002 24.52L210.301 23.4673L210.002 23.951V24.52H212.002ZM212.002 59V61H214.002V59H212.002ZM205.922 59V15.24H201.922V59H205.922ZM203.922 17.24H212.002V13.24H203.922V17.24ZM210.002 15.24V18.92H214.002V15.24H210.002ZM213.396 20.354C214.304 19.4715 215.334 18.5672 216.491 17.6417L213.992 14.5183C212.749 15.5128 211.62 16.5018 210.608 17.486L213.396 20.354ZM216.512 17.6248C217.536 16.783 218.203 16.6 218.562 16.6V12.6C216.895 12.6 215.348 13.4037 213.972 14.5351L216.512 17.6248ZM218.562 16.6C219.425 16.6 220.043 16.8585 220.551 17.3364L223.293 14.4236C221.987 13.1949 220.365 12.6 218.562 12.6V16.6ZM220.551 17.3364C221.198 17.9449 221.713 18.7394 222.072 19.7755L225.851 18.4645C225.304 16.8872 224.459 15.5218 223.293 14.4236L220.551 17.3364ZM222.072 19.7755C222.452 20.8708 222.642 21.9959 222.642 23.16H226.642C226.642 21.5508 226.378 19.9825 225.851 18.4645L222.072 19.7755ZM222.642 23.16V59H226.642V23.16H222.642ZM224.642 57H216.562V61H224.642V57ZM218.562 59V24.76H214.562V59H218.562ZM218.562 24.76C218.562 23.7973 218.42 22.5802 217.649 21.6681L214.595 24.2519C214.483 24.1194 214.484 24.0429 214.509 24.1449C214.533 24.2432 214.562 24.4374 214.562 24.76H218.562ZM217.649 21.6681C216.812 20.6788 215.611 20.44 214.642 20.44V24.44C214.733 24.44 214.796 24.4458 214.835 24.4515C214.874 24.4572 214.883 24.4619 214.869 24.4569C214.854 24.4516 214.814 24.4358 214.762 24.4009C214.707 24.3652 214.649 24.3157 214.595 24.2519L217.649 21.6681ZM214.642 20.44C213.508 20.44 212.497 20.876 211.708 21.6658L214.536 24.4942C214.562 24.4688 214.579 24.4555 214.588 24.4495C214.596 24.4436 214.599 24.4426 214.598 24.4433C214.596 24.4439 214.596 24.4437 214.6 24.443C214.604 24.4422 214.617 24.44 214.642 24.44V20.44ZM211.708 21.6658C211.183 22.1909 210.716 22.797 210.301 23.4673L213.702 25.5727C213.981 25.123 214.261 24.7691 214.536 24.4942L211.708 21.6658ZM210.002 24.52V59H214.002V24.52H210.002ZM212.002 57H203.922V61H212.002V57ZM234.101 57.96L235.387 56.4286L234.101 57.96ZM231.341 53.16L229.392 53.6097L229.395 53.6215L229.397 53.6333L231.341 53.16ZM230.621 22.52H232.621V20.52H230.621V22.52ZM226.541 22.52H224.541V24.52H226.541V22.52ZM226.541 15.24V13.24H224.541V15.24H226.541ZM230.621 15.24V17.24H232.621V15.24H230.621ZM230.621 4.44V2.44H228.621V4.44H230.621ZM238.701 4.44H240.701V2.44H238.701V4.44ZM238.701 15.24H236.701V17.24H238.701V15.24ZM244.261 15.24H246.261V13.24H244.261V15.24ZM244.261 22.52V24.52H246.261V22.52H244.261ZM238.701 22.52V20.52H236.701V22.52H238.701ZM239.461 50.68L237.755 51.7251L237.763 51.7377L237.771 51.7501L239.461 50.68ZM243.261 51.76L242.868 49.7988L242.855 49.8015L242.842 49.8044L243.261 51.76ZM244.221 51.48H246.221V48.4025L243.408 49.6524L244.221 51.48ZM244.221 58.88L244.963 60.737L246.221 60.2341V58.88H244.221ZM242.461 59.4L242.053 57.442L242.004 57.4522L241.956 57.4648L242.461 59.4ZM239.901 57.64C237.629 57.64 236.227 57.1344 235.387 56.4286L232.814 59.4914C234.641 61.0256 237.106 61.64 239.901 61.64V57.64ZM235.387 56.4286C234.448 55.6401 233.713 54.4497 233.284 52.6867L229.397 53.6333C229.981 56.0303 231.086 58.0399 232.814 59.4914L235.387 56.4286ZM233.289 52.7103C232.853 50.8187 232.621 48.4974 232.621 45.72H228.621C228.621 48.7026 228.868 51.3413 229.392 53.6097L233.289 52.7103ZM232.621 45.72V22.52H228.621V45.72H232.621ZM230.621 20.52H226.541V24.52H230.621V20.52ZM228.541 22.52V15.24H224.541V22.52H228.541ZM226.541 17.24H230.621V13.24H226.541V17.24ZM232.621 15.24V4.44H228.621V15.24H232.621ZM230.621 6.44H238.701V2.44H230.621V6.44ZM236.701 4.44V15.24H240.701V4.44H236.701ZM238.701 17.24H244.261V13.24H238.701V17.24ZM242.261 15.24V22.52H246.261V15.24H242.261ZM244.261 20.52H238.701V24.52H244.261V20.52ZM236.701 22.52V46.88H240.701V22.52H236.701ZM236.701 46.88C236.701 48.7114 236.959 50.4261 237.755 51.7251L241.166 49.6349C240.949 49.2805 240.701 48.4619 240.701 46.88H236.701ZM237.771 51.7501C238.726 53.2575 240.276 53.88 241.941 53.88V49.88C241.312 49.88 241.209 49.7025 241.15 49.6099L237.771 51.7501ZM241.941 53.88C242.545 53.88 243.132 53.8329 243.68 53.7156L242.842 49.8044C242.642 49.8471 242.349 49.88 241.941 49.88V53.88ZM243.653 53.7212C244.127 53.6263 244.606 53.4975 245.033 53.3076L243.408 49.6524C243.356 49.6759 243.194 49.7337 242.868 49.7988L243.653 53.7212ZM242.221 51.48V58.88H246.221V51.48H242.221ZM243.478 57.023C243.067 57.1875 242.594 57.3293 242.053 57.442L242.869 61.358C243.608 61.204 244.308 60.9991 244.963 60.737L243.478 57.023ZM241.956 57.4648C241.584 57.5617 240.928 57.64 239.901 57.64V61.64C241.06 61.64 242.11 61.5583 242.965 61.3352L241.956 57.4648ZM249.016 56.32L247.486 57.6077L247.494 57.6169L249.016 56.32ZM249.016 17.88L250.539 19.177L250.547 19.1677L249.016 17.88ZM264.176 17.88L262.646 19.1677L262.654 19.1778L262.663 19.1877L264.176 17.88ZM264.176 56.32L262.655 55.0215L262.654 55.0231L264.176 56.32ZM258.776 51.28L260.577 52.1511L260.582 52.14L260.587 52.1289L258.776 51.28ZM258.776 22.88L256.976 23.7511L258.776 22.88ZM254.456 22.88L252.656 22.0089V22.0089L254.456 22.88ZM254.456 51.28L252.656 52.1511L254.456 51.28ZM256.616 57.56C253.886 57.56 251.944 56.6729 250.539 55.0231L247.494 57.6169C249.768 60.2871 252.893 61.56 256.616 61.56V57.56ZM250.547 55.0323C249.059 53.2646 248.256 50.9847 248.256 48.04H244.256C244.256 51.7619 245.293 55.002 247.486 57.6077L250.547 55.0323ZM248.256 48.04V26.12H244.256V48.04H248.256ZM248.256 26.12C248.256 23.1746 249.059 20.9137 250.539 19.1769L247.494 16.5831C245.293 19.1663 244.256 22.3988 244.256 26.12H248.256ZM250.547 19.1677C251.955 17.4942 253.894 16.6 256.616 16.6V12.6C252.885 12.6 249.758 13.8925 247.486 16.5923L250.547 19.1677ZM256.616 16.6C259.306 16.6 261.234 17.4901 262.646 19.1677L265.707 16.5923C263.438 13.8965 260.327 12.6 256.616 12.6V16.6ZM262.663 19.1877C264.164 20.9248 264.976 23.1818 264.976 26.12H268.976C268.976 22.3915 267.922 19.1552 265.689 16.5723L262.663 19.1877ZM264.976 26.12V48.04H268.976V26.12H264.976ZM264.976 48.04C264.976 50.9775 264.164 53.2535 262.655 55.0215L265.697 57.6185C267.921 55.0131 268.976 51.7692 268.976 48.04H264.976ZM262.654 55.0231C261.245 56.6769 259.314 57.56 256.616 57.56V61.56C260.318 61.56 263.428 60.2831 265.699 57.6169L262.654 55.0231ZM256.616 54.52C257.399 54.52 258.201 54.3639 258.932 53.9445C259.678 53.5164 260.221 52.8865 260.577 52.1511L256.976 50.4089C256.95 50.4616 256.933 50.4808 256.932 50.4819C256.931 50.4829 256.932 50.4817 256.935 50.4794C256.938 50.4772 256.94 50.4758 256.941 50.4755C256.951 50.4694 256.874 50.52 256.616 50.52V54.52ZM260.587 52.1289C261.15 50.9279 261.376 49.5336 261.376 48.04H257.376C257.376 49.1597 257.202 49.9254 256.965 50.4311L260.587 52.1289ZM261.376 48.04V26.12H257.376V48.04H261.376ZM261.376 26.12C261.376 24.6111 261.154 23.2015 260.577 22.0089L256.976 23.7511C257.199 24.2118 257.376 24.9623 257.376 26.12H261.376ZM260.577 22.0089C260.221 21.2735 259.678 20.6436 258.932 20.2155C258.201 19.7961 257.399 19.64 256.616 19.64V23.64C256.874 23.64 256.951 23.6906 256.941 23.6845C256.94 23.6842 256.938 23.6828 256.935 23.6806C256.932 23.6783 256.931 23.6771 256.932 23.6781C256.933 23.6792 256.95 23.6984 256.976 23.7511L260.577 22.0089ZM256.616 19.64C255.834 19.64 255.031 19.7961 254.301 20.2155C253.555 20.6436 253.012 21.2735 252.656 22.0089L256.257 23.7511C256.282 23.6984 256.299 23.6792 256.3 23.6781C256.301 23.6771 256.3 23.6783 256.298 23.6806C256.295 23.6828 256.293 23.6842 256.292 23.6845C256.281 23.6906 256.359 23.64 256.616 23.64V19.64ZM252.656 22.0089C252.079 23.2015 251.856 24.6111 251.856 26.12H255.856C255.856 24.9623 256.034 24.2118 256.257 23.7511L252.656 22.0089ZM251.856 26.12V48.04H255.856V26.12H251.856ZM251.856 48.04C251.856 49.5489 252.079 50.9585 252.656 52.1511L256.257 50.4089C256.034 49.9482 255.856 49.1977 255.856 48.04H251.856ZM252.656 52.1511C253.012 52.8865 253.555 53.5164 254.301 53.9445C255.031 54.3639 255.834 54.52 256.616 54.52V50.52C256.359 50.52 256.281 50.4694 256.292 50.4755C256.293 50.4758 256.295 50.4772 256.298 50.4794C256.3 50.4817 256.301 50.4829 256.3 50.4819C256.299 50.4808 256.282 50.4616 256.257 50.4089L252.656 52.1511Z" fill="#DE299C" mask="url(#path-1-outside-1_4_639)"/>
</g>
<defs>
<filter id="filter0_d_4_639" x="0.200195" y="0.199951" width="270.776" height="78.4801" filterUnits="userSpaceOnUse" color-interpolation-filters="sRGB">
<feFlood flood-opacity="0" result="BackgroundImageFix"/>
<feColorMatrix in="SourceAlpha" type="matrix" values="0 0 0 0 0 0 0 0 0 0 0 0 0 0 0 0 0 0 127 0" result="hardAlpha"/>
<feOffset dx="4" dy="4"/>
<feComposite in2="hardAlpha" operator="out"/>
<feColorMatrix type="matrix" values="0 0 0 0 0.870588 0 0 0 0 0.160784 0 0 0 0 0.611765 0 0 0 1 0"/>
<feBlend mode="normal" in2="BackgroundImageFix" result="effect1_dropShadow_4_639"/>
<feBlend mode="normal" in="SourceGraphic" in2="effect1_dropShadow_4_639" result="shape"/>
</filter>
</defs>
</svg>
